<svg width="100" height="19" viewBox="0 0 100 19" fill="none" xmlns="http://www.w3.org/2000/svg">
<path d="M6.38775 2.32758C2.9089 2.32758 0.240662 4.96205 0.240662 8.44089C0.240662 11.9197 2.9089 14.5542 6.38775 14.5542C9.86659 14.5542 12.5517 11.9197 12.5517 8.44089C12.5517 4.96205 9.86659 2.32758 6.38775 2.32758ZM6.38775 4.6243C8.51558 4.6243 10.103 6.22862 10.103 8.44089C10.103 10.6532 8.51558 12.2575 6.38775 12.2575C4.25991 12.2575 2.67248 10.6532 2.67248 8.44089C2.67248 6.22862 4.25991 4.6243 6.38775 4.6243Z" fill="black"/>
<path d="M22.701 14.3516L19.4417 9.62302L22.549 5.06337H19.6444L18.0063 7.78228L16.25 5.06337H13.3791L16.4864 9.55547L13.2102 14.3516H16.1149L17.9218 11.43L19.8301 14.3516H22.701Z" fill="black"/>
<path d="M30.2248 5.06337V6.36372C29.5831 5.46868 28.6036 4.86072 27.2864 4.86072C24.9053 4.86072 23.0645 6.83657 23.0645 9.70746C23.0645 12.5615 24.8715 14.5542 27.3033 14.5542C28.6036 14.5542 29.5662 13.98 30.208 13.1019V14.3516H32.6229L32.6398 5.06337H30.2248ZM27.8437 12.2575C26.5096 12.2575 25.4963 11.2442 25.4963 9.70746C25.4963 8.18758 26.4927 7.15744 27.8437 7.15744C29.1947 7.15744 30.2248 8.18758 30.2248 9.70746C30.2248 11.2442 29.1947 12.2575 27.8437 12.2575Z" fill="black"/>
<path d="M41.5052 5.06337V6.34683C40.8635 5.45179 39.8671 4.86072 38.5837 4.86072C36.1856 4.86072 34.3449 6.83657 34.3449 9.63991C34.3449 12.4264 36.1519 14.4191 38.5837 14.4191C39.884 14.4191 40.8466 13.8449 41.5052 12.9668V14.3009C41.5052 15.8714 40.7284 16.6314 39.2592 16.6314C38.2628 16.6314 37.3847 16.2598 37.1145 15.2128H34.6151C34.9697 17.6446 37.0807 18.7761 39.3267 18.7761C42.1301 18.7761 43.9202 16.986 43.9202 14.2333V5.06337H41.5052ZM39.1241 12.1224C37.79 12.1224 36.7767 11.0922 36.7767 9.63991C36.7767 8.18758 37.7731 7.15744 39.1241 7.15744C40.4751 7.15744 41.5052 8.18758 41.5052 9.63991C41.5052 11.1091 40.4751 12.1224 39.1241 12.1224Z" fill="black"/>
<path d="M47.0607 0.773926C46.2163 0.773926 45.5577 1.36499 45.5577 2.19248C45.5577 3.01998 46.2163 3.62793 47.0607 3.62793C47.9389 3.62793 48.5637 3.01998 48.5637 2.19248C48.5637 1.36499 47.9389 0.773926 47.0607 0.773926ZM45.8448 14.3516H48.2597V5.06337H45.8448V14.3516Z" fill="black"/>
<path d="M50.2155 14.3516H52.6305V1.3481H50.2155V14.3516Z" fill="black"/>
<path d="M59.1797 4.86072C56.3426 4.86072 54.3329 6.9379 54.3329 9.72435C54.3329 12.4939 56.3257 14.5542 59.2303 14.5542C61.2231 14.5542 63.0807 13.5916 63.7731 11.3962H61.2737C60.9529 12.1393 60.1423 12.5615 59.2135 12.5615C57.9638 12.5615 56.9505 11.8184 56.7985 10.3323H63.9251C64.1615 7.27565 62.2532 4.86072 59.1797 4.86072ZM59.1628 6.85346C60.328 6.85346 61.088 7.54585 61.3582 8.55911H56.9167C57.2207 7.56274 57.9807 6.85346 59.1628 6.85346Z" fill="black"/>
<path d="M71.8479 0.773926C71.0035 0.773926 70.3449 1.36499 70.3449 2.19248C70.3449 3.01998 71.0035 3.62793 71.8479 3.62793C72.726 3.62793 73.3509 3.01998 73.3509 2.19248C73.3509 1.36499 72.726 0.773926 71.8479 0.773926ZM70.632 14.3516H73.0469V5.06337H70.632V14.3516Z" fill="black"/>
<path d="M79.2753 14.5542C81.572 14.5542 83.4127 13.5409 83.4127 11.4638C83.4127 9.60614 81.9266 9.09951 79.2753 8.49156C77.9243 8.18758 77.5021 8.10314 77.5021 7.66406C77.5021 7.15744 78.0931 6.88723 79.0557 6.88723C80.1703 6.88723 80.6769 7.24187 80.8627 7.83294H83.3114C82.9905 6.11041 81.724 4.86072 79.1402 4.86072C76.6915 4.86072 75.0702 5.99219 75.0702 7.95115C75.0702 9.55547 76.1511 10.1465 78.7855 10.7714C80.1872 11.1091 80.9134 11.1598 80.9134 11.7846C80.9134 12.2913 80.4067 12.5446 79.3428 12.5446C77.8398 12.5446 77.2825 12.0379 77.0968 11.2949H74.6481C74.9858 13.3383 76.7928 14.5542 79.2753 14.5542Z" fill="black"/>
<path d="M86.8037 11.6833C85.9424 11.6833 85.3007 12.2913 85.3007 13.1188C85.3007 13.9631 85.9424 14.5542 86.8037 14.5542C87.6481 14.5542 88.3067 13.9631 88.3067 13.1188C88.3067 12.2913 87.6481 11.6833 86.8037 11.6833Z" fill="black"/>
<path d="M92.3614 11.6833C91.5002 11.6833 90.8584 12.2913 90.8584 13.1188C90.8584 13.9631 91.5002 14.5542 92.3614 14.5542C93.2058 14.5542 93.8644 13.9631 93.8644 13.1188C93.8644 12.2913 93.2058 11.6833 92.3614 11.6833Z" fill="black"/>
<path d="M97.9192 11.6833C97.0579 11.6833 96.4162 12.2913 96.4162 13.1188C96.4162 13.9631 97.0579 14.5542 97.9192 14.5542C98.7635 14.5542 99.4222 13.9631 99.4222 13.1188C99.4222 12.2913 98.7635 11.6833 97.9192 11.6833Z" fill="black"/>
</svg>
