<svg width="157" height="15" viewBox="0 0 157 15" fill="none" xmlns="http://www.w3.org/2000/svg">
<path d="M3.75694 0.74855L2.87879 6.16947C2.64236 7.60491 2.28772 7.99333 1.46023 7.99333C1.25758 7.99333 1.05493 7.97644 0.835388 7.94266V10.1212C1.19003 10.1887 1.59533 10.2394 1.96686 10.2394C3.65562 10.2394 4.82086 9.15857 5.25994 6.40589L5.81723 3.02837H8.21527V10.0367H10.6302V0.74855H3.75694Z" fill="black"/>
<path d="M19.1446 0.74855L16.831 6.18636L14.5343 0.74855H11.9673L15.5475 8.80393L13.1157 14.2586H15.6826L21.7284 0.74855H19.1446Z" fill="black"/>
<path d="M28.8381 0.74855V4.93667C28.399 5.1731 27.791 5.27442 27.1662 5.27442C25.7476 5.27442 25.3761 4.73402 25.3761 3.46745V0.74855H22.9612V4.09229C22.9612 6.65921 24.7175 7.45292 26.6933 7.45292C27.5715 7.45292 28.2639 7.28405 28.8381 7.04762V10.0367H31.253V0.74855H28.8381Z" fill="black"/>
<path d="M43.5586 0.74855V7.7569H40.7891V0.74855H38.3741V7.7569H35.6046V0.74855H33.1896V10.0367H34.4393H38.3741H43.5586H45.9735V0.74855H43.5586Z" fill="black"/>
<path d="M54.8411 0.74855V2.04889C54.1994 1.15385 53.2199 0.545898 51.9027 0.545898C49.5215 0.545898 47.6808 2.52175 47.6808 5.39264C47.6808 8.24664 49.4878 10.2394 51.9196 10.2394C53.2199 10.2394 54.1825 9.6652 54.8242 8.78704V10.0367H57.2392L57.256 0.74855H54.8411ZM52.46 7.94266C51.1258 7.94266 50.1126 6.92941 50.1126 5.39264C50.1126 3.87275 51.109 2.84261 52.46 2.84261C53.811 2.84261 54.8411 3.87275 54.8411 5.39264C54.8411 6.92941 53.811 7.94266 52.46 7.94266Z" fill="black"/>
<path d="M62.6073 0.74855C60.8848 0.74855 59.1622 1.60982 59.1622 3.92342C59.1622 5.46019 60.0742 6.25391 61.2056 6.60854L58.6556 10.0367H61.6109L63.7557 6.84497H65.0053V10.0367H67.4203V0.74855H62.6073ZM62.7762 4.85223C61.9825 4.85223 61.6109 4.48071 61.6109 3.88964C61.6109 3.31546 61.9149 2.91016 62.7593 2.91016H65.0053V4.85223H62.7762Z" fill="black"/>
<path d="M83.7077 10.0367L79.1818 5.1731L83.4206 0.74855H80.3471L76.8175 4.61581V0.74855H74.4026V10.0367H76.8175V5.9837L80.6173 10.0367H83.7077Z" fill="black"/>
<path d="M88.5452 0.545898C85.8769 0.545898 83.7153 2.5893 83.7153 5.39264C83.7153 8.17909 85.8432 10.2394 88.5452 10.2394C91.2641 10.2394 93.3919 8.19598 93.3919 5.39264C93.3919 2.5893 91.2303 0.545898 88.5452 0.545898ZM88.5452 2.84261C89.8962 2.84261 90.9432 3.87275 90.9432 5.39264C90.9432 6.92941 89.8962 7.94266 88.5452 7.94266C87.1942 7.94266 86.1471 6.92941 86.1471 5.39264C86.1471 3.87275 87.1942 2.84261 88.5452 2.84261Z" fill="black"/>
<path d="M102.666 0.74855L100.268 4.05852L97.8698 0.74855H95.0833V10.0367H97.4982V6.74365L97.3463 3.56878L100.234 7.72313H100.302L103.189 3.56878L103.02 6.74365V10.0367H105.435V0.74855H102.666Z" fill="black"/>
<path d="M114.311 0.74855V2.04889C113.669 1.15385 112.689 0.545898 111.372 0.545898C108.991 0.545898 107.15 2.52175 107.15 5.39264C107.15 8.24664 108.957 10.2394 111.389 10.2394C112.689 10.2394 113.652 9.6652 114.294 8.78704V10.0367H116.709L116.725 0.74855H114.311ZM111.929 7.94266C110.595 7.94266 109.582 6.92941 109.582 5.39264C109.582 3.87275 110.578 2.84261 111.929 2.84261C113.28 2.84261 114.311 3.87275 114.311 5.39264C114.311 6.92941 113.28 7.94266 111.929 7.94266Z" fill="black"/>
<path d="M125.236 0.74855V4.17673H121.065V0.74855H118.65V10.0367H121.065V6.45656H125.236V10.0367H127.651V0.74855H125.236Z" fill="black"/>
<path d="M139.043 7.7569V0.74855H132.102L131.258 6.00059C131.106 6.9463 130.903 7.4867 130.582 7.7569H128.927V12.3841H131.342V10.0367H138.317V12.3841H140.732V7.7569H139.043ZM133.132 7.7569C133.369 7.38537 133.537 6.87875 133.656 6.1188L134.162 3.02837H136.628V7.7569H133.132Z" fill="black"/>
<path d="M148.63 0.74855V2.04889C147.988 1.15385 147.009 0.545898 145.691 0.545898C143.31 0.545898 141.47 2.52175 141.47 5.39264C141.47 8.24664 143.277 10.2394 145.708 10.2394C147.009 10.2394 147.971 9.6652 148.613 8.78704V10.0367H151.028L151.045 0.74855H148.63ZM146.249 7.94266C144.915 7.94266 143.901 6.92941 143.901 5.39264C143.901 3.87275 144.898 2.84261 146.249 2.84261C147.6 2.84261 148.63 3.87275 148.63 5.39264C148.63 6.92941 147.6 7.94266 146.249 7.94266Z" fill="black"/>
<path d="M154.793 7.36849C153.932 7.36849 153.29 7.97644 153.29 8.80393C153.29 9.64831 153.932 10.2394 154.793 10.2394C155.638 10.2394 156.296 9.64831 156.296 8.80393C156.296 7.97644 155.638 7.36849 154.793 7.36849Z" fill="black"/>
</svg>
