<svg width="26" height="26" viewBox="0 0 26 26" fill="none" xmlns="http://www.w3.org/2000/svg">
<path d="M0.75 0.890625H4.25V4.39063H0.75V0.890625ZM7.75 7.89063H4.25V4.39063H7.75V7.89063ZM11.25 11.3906H7.75V7.89063H11.25V11.3906ZM14.75 11.3906H11.25V14.8906H7.75V18.3906H4.25V21.8906H0.75V25.3906H4.25V21.8906H7.75V18.3906H11.25V14.8906H14.75V18.3906H18.25V21.8906H21.75V25.3906H25.25V21.8906H21.75V18.3906H18.25V14.8906H14.75V11.3906ZM18.25 7.89063V11.3906H14.75V7.89063H18.25ZM21.75 4.39063V7.89063H18.25V4.39063H21.75ZM21.75 4.39063V0.890625H25.25V4.39063H21.75Z" fill="black"/>
</svg>
