<svg width="57" height="63" viewBox="0 0 57 63" fill="none" xmlns="http://www.w3.org/2000/svg">
<path d="M24.625 2H22.625V4V43.25H19.75V38.375V36.375H17.75H12.875V31.5V29.5H10.875H4H2V31.5V38.375V40.375H4H8.875V45.25V47.25H10.875H15.75V52.125V54.125H17.75H22.625V59V61H24.625H31.5H33.5V59V54.125H38.375H40.375V52.125V47.25H45.25H47.25V45.25V40.375H52.125H54.125V38.375V31.5V29.5H52.125H45.25H43.25V31.5V36.375H38.375H36.375V38.375V43.25H33.5V4V2H31.5H24.625Z" fill="white" stroke="black" stroke-width="4"/>
</svg>
