<svg display="none">
    <svg id="like" width="24" height="21" viewBox="0 0 24 21" fill="red" xmlns="http://www.w3.org/2000/svg">
        <path d="M8.4 0H4.2V2.1H2.1V4.2H0V10.5H2.1V12.6H4.2V14.7H6.3V16.8H8.4V18.9H10.5V21H12.6V18.9H14.7V16.8H16.8V14.7H18.9V12.6H21V10.5H23.1V4.2H21V2.1H18.9V0H14.7V2.1H12.6V4.2H10.5V2.1H8.4V0ZM8.4 2.1V4.2H10.5V6.3H12.6V4.2H14.7V2.1H18.9V4.2H21V10.5H18.9V12.6H16.8V14.7H14.7V16.8H12.6V18.9H10.5V16.8H8.4V14.7H6.3V12.6H4.2V10.5H2.1V4.2H4.2V2.1H8.4Z" fill="#E15EFF"/>
    </svg>

    <svg id="loop" width="21" height="21" viewBox="0 0 21 21" fill="none" xmlns="http://www.w3.org/2000/svg">
        <path d="M12.6 0H4.2V2.1H2.1V4.2H0V12.6H2.1V14.7H4.2V16.8H12.6V14.7H14.7V16.8H16.8V18.9H18.9V21H21V18.9H18.9V16.8H16.8V14.7H14.7V12.6H16.8V4.2H14.7V2.1H12.6V0ZM12.6 2.1V4.2H14.7V12.6H12.6V14.7H4.2V12.6H2.1V4.2H4.2V2.1H12.6ZM7.35 4.2H9.45V7.35H12.6V9.45H9.45V12.6H7.35V9.45H4.2V7.35H7.35V4.2Z" fill="white"/>
    </svg>

    <svg id="swiperPrev" width="44" height="44" viewBox="0 0 44 44" xmlns="http://www.w3.org/2000/svg">
        <path d="M36.6667 20.167V23.8337H14.6667V27.5003H11V23.8337H7.33334V20.167H11V16.5003H14.6667V20.167H36.6667ZM18.3333 12.8337H14.6667V16.5003H18.3333V12.8337ZM18.3333 12.8337H22V9.16699H18.3333V12.8337ZM18.3333 31.167H14.6667V27.5003H18.3333V31.167ZM18.3333 31.167H22V34.8337H18.3333V31.167Z"/>
    </svg>

    <svg id="swiperNext" width="44" height="44" viewBox="0 0 44 44"  xmlns="http://www.w3.org/2000/svg">
        <path d="M7.33336 20.167V23.8337H29.3334V27.5003H33V23.8337H36.6667V20.167H33V16.5003H29.3334V20.167H7.33336ZM25.6667 12.8337H29.3334V16.5003H25.6667V12.8337ZM25.6667 12.8337H22V9.16699H25.6667V12.8337ZM25.6667 31.167H29.3334V27.5003H25.6667V31.167ZM25.6667 31.167H22V34.8337H25.6667V31.167Z"/>
    </svg>

    <svg id="close" width="26" height="26" viewBox="0 0 26 26" xmlns="http://www.w3.org/2000/svg">
        <path d="M0.75 0.890625H4.25V4.39063H0.75V0.890625ZM7.75 7.89063H4.25V4.39063H7.75V7.89063ZM11.25 11.3906H7.75V7.89063H11.25V11.3906ZM14.75 11.3906H11.25V14.8906H7.75V18.3906H4.25V21.8906H0.75V25.3906H4.25V21.8906H7.75V18.3906H11.25V14.8906H14.75V18.3906H18.25V21.8906H21.75V25.3906H25.25V21.8906H21.75V18.3906H18.25V14.8906H14.75V11.3906ZM18.25 7.89063V11.3906H14.75V7.89063H18.25ZM21.75 4.39063V7.89063H18.25V4.39063H21.75ZM21.75 4.39063V0.890625H25.25V4.39063H21.75Z"/>
    </svg>

</svg>