<svg width="126" height="126" viewBox="0 0 126 126" fill="none" xmlns="http://www.w3.org/2000/svg">
<path fill-rule="evenodd" clip-rule="evenodd" d="M125.987 64.3066L120.765 64.2003C120.773 63.8013 120.777 63.4012 120.777 63C120.777 62.5988 120.773 62.1987 120.765 61.7996L125.987 61.6934C125.996 62.1279 126 62.5634 126 63C126 63.4366 125.996 63.8721 125.987 64.3066ZM125.881 59.0929L120.668 59.4118C120.619 58.6139 120.554 57.8205 120.473 57.0321L125.669 56.4995C125.757 57.359 125.828 58.2235 125.881 59.0929ZM125.35 53.9131L120.18 54.6598C120.066 53.8689 119.936 53.0833 119.79 52.3033L124.924 51.3429C125.083 52.1937 125.225 53.0506 125.35 53.9131ZM124.392 48.7934L119.302 49.9664C119.123 49.189 118.928 48.4176 118.718 47.6527L123.754 46.2689C123.984 47.1036 124.196 47.9452 124.392 48.7934ZM123.012 43.7734L118.038 45.3657C117.795 44.6065 117.537 43.8542 117.264 43.1091L122.167 41.3111C122.465 42.1241 122.747 42.945 123.012 43.7734ZM121.22 38.8844L116.395 40.885C116.09 40.1486 115.77 39.4198 115.435 38.699L120.172 36.4996C120.537 37.2858 120.886 38.0809 121.22 38.8844ZM119.026 34.1607C118.628 33.3882 118.214 32.6249 117.785 31.8715L113.246 34.4558C113.64 35.1468 114.019 35.8465 114.385 36.5548L119.026 34.1607ZM116.45 29.6357L112.022 32.4055C111.599 31.7299 111.163 31.0637 110.714 30.4071L115.024 27.457C115.514 28.1727 115.989 28.8991 116.45 29.6357ZM113.509 25.3389L109.324 28.4641C108.847 27.8256 108.357 27.1972 107.855 26.5794L111.907 23.2846C112.455 23.958 112.989 24.6429 113.509 25.3389ZM110.223 21.298L106.31 24.7566C105.782 24.1596 105.242 23.5736 104.691 22.9989L108.459 19.3825C109.06 20.0087 109.648 20.6474 110.223 21.298ZM106.618 17.541L103.001 21.3091C102.426 20.7576 101.84 20.2178 101.243 19.6902L104.702 15.7767C105.353 16.3517 105.991 16.9399 106.618 17.541ZM102.715 14.0925L99.4206 18.1449C98.8028 17.6426 98.1744 17.1528 97.5359 16.6759L100.661 12.4914C101.357 13.0112 102.042 13.545 102.715 14.0925ZM98.543 10.9764L95.5928 15.2862C94.9363 14.8368 94.2701 14.4006 93.5945 13.978L96.3643 9.55014C97.1009 10.0109 97.8273 10.4865 98.543 10.9764ZM94.1285 8.21507L91.5442 12.7537C90.8532 12.3602 90.1534 11.9807 89.4452 11.6153L91.8393 6.97362C92.6118 7.37206 93.375 7.78602 94.1285 8.21507ZM89.5004 5.82804L87.301 10.5651C86.5802 10.2305 85.8514 9.91028 85.115 9.6049L87.1156 4.78046C87.9191 5.11364 88.7141 5.46297 89.5004 5.82804ZM84.6889 3.83286L82.8909 8.7364C82.1457 8.46317 81.3934 8.20488 80.6343 7.96186L82.2266 2.98771C83.0549 3.25288 83.8758 3.53473 84.6889 3.83286ZM79.7311 2.2458L78.3473 7.28195C77.5823 7.07176 76.811 6.8769 76.0336 6.69773L77.2066 1.60835C78.0547 1.80384 78.8964 2.01645 79.7311 2.2458ZM74.6571 1.07634L73.6967 6.21007C72.9167 6.06415 72.1311 5.93389 71.3401 5.81963L72.0869 0.650489C72.9494 0.77509 73.8063 0.917165 74.6571 1.07634ZM69.5005 0.331289L68.9679 5.52686C68.1795 5.44604 67.3861 5.38105 66.5882 5.33223L66.9071 0.119181C67.7765 0.172372 68.641 0.243192 69.5005 0.331289ZM64.3066 0.0132796L64.2003 5.235C63.8013 5.22688 63.4012 5.2228 63 5.2228C62.5988 5.2228 62.1987 5.22688 61.7996 5.235L61.6934 0.0132801C62.1279 0.00444094 62.5634 0 63 0C63.4366 0 63.8721 0.00444075 64.3066 0.0132796ZM59.0929 0.119183L59.4118 5.33223C58.6139 5.38106 57.8205 5.44605 57.0321 5.52687L56.4995 0.331293C57.359 0.243195 58.2235 0.172374 59.0929 0.119183ZM53.9131 0.650495L54.6598 5.81963C53.8689 5.93389 53.0833 6.06416 52.3033 6.21008L51.3429 1.07635C52.1937 0.917173 53.0506 0.775097 53.9131 0.650495ZM48.7934 1.60836L49.9664 6.69774C49.189 6.87691 48.4176 7.07177 47.6527 7.28196L46.2689 2.24581C47.1036 2.01646 47.9452 1.80385 48.7934 1.60836ZM43.7734 2.98772L45.3657 7.96188C44.6065 8.20489 43.8542 8.46319 43.1091 8.73641L41.3111 3.83287C42.1241 3.53474 42.945 3.2529 43.7734 2.98772ZM38.8844 4.78048L40.885 9.60491C40.1486 9.91029 39.4198 10.2305 38.699 10.5651L36.4996 5.82806C37.2858 5.46299 38.0809 5.11366 38.8844 4.78048ZM34.1607 6.97363L36.5548 11.6154C35.8465 11.9807 35.1468 12.3602 34.4558 12.7537L31.8715 8.21509C32.6249 7.78604 33.3881 7.37208 34.1607 6.97363ZM29.6357 9.55016L32.4055 13.978C31.7299 14.4006 31.0637 14.8368 30.4071 15.2862L27.457 10.9764C28.1727 10.4865 28.8991 10.0109 29.6357 9.55016ZM25.3389 12.4914L28.4641 16.676C27.8256 17.1528 27.1972 17.6426 26.5794 18.1449L23.2846 14.0925C23.958 13.5451 24.6429 13.0112 25.3389 12.4914ZM21.298 15.7767L24.7566 19.6902C24.1596 20.2178 23.5736 20.7576 22.9989 21.3092L19.3825 17.541C20.0087 16.9399 20.6474 16.3517 21.298 15.7767ZM17.541 19.3825L21.3091 22.9989C20.7576 23.5736 20.2178 24.1596 19.6902 24.7566L15.7767 21.2981C16.3517 20.6474 16.9399 20.0087 17.541 19.3825ZM14.0925 23.2846L18.1449 26.5794C17.6426 27.1972 17.1528 27.8256 16.6759 28.4641L12.4914 25.3389C13.0112 24.6429 13.545 23.958 14.0925 23.2846ZM10.9764 27.457C10.4865 28.1728 10.0109 28.8991 9.55014 29.6357L13.978 32.4055C14.4006 31.7299 14.8368 31.0637 15.2862 30.4072L10.9764 27.457ZM8.21507 31.8715L12.7537 34.4558C12.3602 35.1468 11.9807 35.8466 11.6153 36.5548L6.97361 34.1607C7.37206 33.3882 7.78602 32.625 8.21507 31.8715ZM5.82804 36.4996L10.5651 38.699C10.2305 39.4198 9.91028 40.1486 9.6049 40.885L4.78046 38.8844C5.11364 38.0809 5.46297 37.2859 5.82804 36.4996ZM3.83286 41.3111L8.7364 43.1091C8.46317 43.8543 8.20488 44.6066 7.96186 45.3657L2.98771 43.7734C3.25288 42.9451 3.53473 42.1242 3.83286 41.3111ZM2.2458 46.2689L7.28195 47.6527C7.07176 48.4177 6.8769 49.189 6.69773 49.9664L1.60835 48.7935C1.80384 47.9453 2.01645 47.1036 2.2458 46.2689ZM1.07634 51.3429L6.21007 52.3033C6.06415 53.0833 5.93389 53.8689 5.81963 54.6599L0.650488 53.9131C0.77509 53.0506 0.917165 52.1937 1.07634 51.3429ZM0.331289 56.4995L5.52686 57.0321C5.44604 57.8206 5.38105 58.6139 5.33223 59.4118L0.119181 59.0929C0.172372 58.2236 0.243192 57.359 0.331289 56.4995ZM0.0132796 61.6934C0.00444075 62.1279 0 62.5634 0 63C0 63.4366 0.00444094 63.8721 0.0132801 64.3066L5.235 64.2004C5.22688 63.8013 5.2228 63.4012 5.2228 63C5.2228 62.5988 5.22688 62.1987 5.235 61.7997L0.0132796 61.6934ZM0.119183 66.9072L5.33223 66.5882C5.38106 67.3861 5.44605 68.1795 5.52687 68.9679L0.331293 69.5005C0.243195 68.6411 0.172374 67.7765 0.119183 66.9072ZM0.650495 72.0869L5.81963 71.3402C5.93389 72.1311 6.06416 72.9167 6.21008 73.6967L1.07635 74.6572C0.917173 73.8063 0.775097 72.9494 0.650495 72.0869ZM1.60836 77.2066L6.69774 76.0336C6.87691 76.811 7.07177 77.5824 7.28196 78.3474L2.24581 79.7311C2.01646 78.8964 1.80385 78.0548 1.60836 77.2066ZM2.98773 82.2266L7.96188 80.6343C8.20489 81.3935 8.46319 82.1458 8.73641 82.8909L3.83287 84.6889C3.53474 83.8759 3.2529 83.055 2.98773 82.2266ZM4.78048 87.1156L9.60491 85.115C9.91029 85.8514 10.2305 86.5802 10.5651 87.301L5.82806 89.5005C5.46299 88.7142 5.11366 87.9191 4.78048 87.1156ZM6.97363 91.8393L11.6154 89.4452C11.9807 90.1535 12.3602 90.8532 12.7537 91.5442L8.21509 94.1286C7.78604 93.3751 7.37208 92.6119 6.97363 91.8393ZM9.55016 96.3643L13.978 93.5945C14.4006 94.2701 14.8368 94.9363 15.2862 95.5929L10.9764 98.543C10.4865 97.8273 10.0109 97.1009 9.55016 96.3643ZM12.4914 100.661L16.676 97.5359C17.1528 98.1744 17.6426 98.8028 18.1449 99.4206L14.0925 102.715C13.5451 102.042 13.0112 101.357 12.4914 100.661ZM15.7767 104.702L19.6902 101.243C20.2178 101.84 20.7576 102.426 21.3092 103.001L17.541 106.618C16.9399 105.991 16.3517 105.353 15.7767 104.702ZM19.3825 108.459L22.9989 104.691C23.5736 105.242 24.1596 105.782 24.7566 106.31L21.2981 110.223C20.6474 109.648 20.0088 109.06 19.3825 108.459ZM23.2846 111.907L26.5794 107.855C27.1972 108.357 27.8256 108.847 28.4641 109.324L25.3389 113.509C24.6429 112.989 23.958 112.455 23.2846 111.907ZM27.457 115.024L30.4072 110.714C31.0637 111.163 31.7299 111.599 32.4055 112.022L29.6357 116.45C28.8991 115.989 28.1728 115.514 27.457 115.024ZM31.8715 117.785L34.4558 113.246C35.1468 113.64 35.8466 114.019 36.5548 114.385L34.1607 119.026C33.3882 118.628 32.625 118.214 31.8715 117.785ZM36.4996 120.172L38.699 115.435C39.4198 115.77 40.1486 116.09 40.885 116.395L38.8844 121.22C38.0809 120.886 37.2859 120.537 36.4996 120.172ZM41.3111 122.167L43.1091 117.264C43.8543 117.537 44.6066 117.795 45.3657 118.038L43.7734 123.012C42.9451 122.747 42.1242 122.465 41.3111 122.167ZM46.2689 123.754L47.6527 118.718C48.4177 118.928 49.189 119.123 49.9664 119.302L48.7935 124.392C47.9453 124.196 47.1036 123.984 46.2689 123.754ZM51.3429 124.924L52.3033 119.79C53.0833 119.936 53.8689 120.066 54.6599 120.18L53.9131 125.35C53.0506 125.225 52.1937 125.083 51.3429 124.924ZM56.4995 125.669L57.0321 120.473C57.8206 120.554 58.6139 120.619 59.4118 120.668L59.0929 125.881C58.2235 125.828 57.359 125.757 56.4995 125.669ZM61.6934 125.987L61.7997 120.765C62.1987 120.773 62.5988 120.777 63 120.777C63.4012 120.777 63.8013 120.773 64.2004 120.765L64.3066 125.987C63.8721 125.996 63.4366 126 63 126C62.5634 126 62.1279 125.996 61.6934 125.987ZM66.9072 125.881L66.5882 120.668C67.3861 120.619 68.1795 120.554 68.9679 120.473L69.5005 125.669C68.6411 125.757 67.7765 125.828 66.9072 125.881ZM72.0869 125.35L71.3402 120.18C72.1311 120.066 72.9167 119.936 73.6967 119.79L74.6572 124.924C73.8063 125.083 72.9494 125.225 72.0869 125.35ZM77.2066 124.392L76.0336 119.302C76.811 119.123 77.5824 118.928 78.3474 118.718L79.7311 123.754C78.8964 123.984 78.0548 124.196 77.2066 124.392ZM82.2266 123.012L80.6343 118.038C81.3935 117.795 82.1458 117.537 82.8909 117.264L84.6889 122.167C83.8759 122.465 83.055 122.747 82.2266 123.012ZM87.1156 121.22L85.115 116.395C85.8514 116.09 86.5802 115.77 87.301 115.435L89.5005 120.172C88.7142 120.537 87.9191 120.886 87.1156 121.22ZM91.8393 119.026L89.4452 114.385C90.1535 114.019 90.8532 113.64 91.5442 113.246L94.1286 117.785C93.3751 118.214 92.6119 118.628 91.8393 119.026ZM96.3643 116.45L93.5945 112.022C94.2701 111.599 94.9363 111.163 95.5929 110.714L98.543 115.024C97.8273 115.514 97.1009 115.989 96.3643 116.45ZM100.661 113.509L97.5359 109.324C98.1744 108.847 98.8028 108.357 99.4206 107.855L102.715 111.907C102.042 112.455 101.357 112.989 100.661 113.509ZM104.702 110.223L101.243 106.31C101.84 105.782 102.426 105.242 103.001 104.691L106.618 108.459C105.991 109.06 105.353 109.648 104.702 110.223ZM108.459 106.618L104.691 103.001C105.242 102.426 105.782 101.84 106.31 101.243L110.223 104.702C109.648 105.353 109.06 105.991 108.459 106.618ZM111.907 102.715L107.855 99.4206C108.357 98.8028 108.847 98.1744 109.324 97.5359L113.509 100.661C112.989 101.357 112.455 102.042 111.907 102.715ZM115.024 98.543L110.714 95.5928C111.163 94.9363 111.599 94.2701 112.022 93.5945L116.45 96.3643C115.989 97.1009 115.514 97.8273 115.024 98.543ZM117.785 94.1285L113.246 91.5442C113.64 90.8532 114.019 90.1534 114.385 89.4452L119.026 91.8393C118.628 92.6118 118.214 93.375 117.785 94.1285ZM120.172 89.5004L115.435 87.301C115.77 86.5802 116.09 85.8514 116.395 85.115L121.22 87.1156C120.886 87.9191 120.537 88.7141 120.172 89.5004ZM122.167 84.6889L117.264 82.8909C117.537 82.1457 117.795 81.3934 118.038 80.6343L123.012 82.2266C122.747 83.0549 122.465 83.8758 122.167 84.6889ZM123.754 79.7311L118.718 78.3473C118.928 77.5823 119.123 76.811 119.302 76.0336L124.392 77.2066C124.196 78.0547 123.984 78.8964 123.754 79.7311ZM124.924 74.6571L119.79 73.6967C119.936 72.9167 120.066 72.1311 120.18 71.3401L125.35 72.0869C125.225 72.9494 125.083 73.8063 124.924 74.6571ZM125.669 69.5005L120.473 68.9679C120.554 68.1795 120.619 67.3861 120.668 66.5882L125.881 66.9071C125.828 67.7765 125.757 68.641 125.669 69.5005Z" fill="white"/>
<path fill-rule="evenodd" clip-rule="evenodd" d="M125.987 64.3066L120.765 64.2004C120.773 63.8013 120.777 63.4012 120.777 63C120.777 62.5988 120.773 62.1987 120.765 61.7996L125.987 61.6934C125.996 62.1279 126 62.5634 126 63C126 63.4366 125.996 63.8721 125.987 64.3066ZM125.881 59.0929L120.668 59.4118C120.619 58.6139 120.554 57.8205 120.473 57.0321L125.669 56.4995C125.757 57.359 125.828 58.2235 125.881 59.0929ZM125.35 53.9131L120.18 54.6598C120.066 53.8689 119.936 53.0833 119.79 52.3033L124.924 51.3429C125.083 52.1937 125.225 53.0506 125.35 53.9131ZM124.392 48.7934L119.302 49.9664C119.123 49.189 118.928 48.4176 118.718 47.6527L123.754 46.2689C123.984 47.1036 124.196 47.9452 124.392 48.7934ZM123.012 43.7734L118.038 45.3657C117.795 44.6066 117.537 43.8542 117.264 43.1091L122.167 41.3111C122.465 42.1241 122.747 42.945 123.012 43.7734ZM121.22 38.8844L116.395 40.885C116.09 40.1486 115.77 39.4198 115.435 38.699L120.172 36.4996C120.537 37.2858 120.886 38.0809 121.22 38.8844ZM119.026 34.1607C118.628 33.3882 118.214 32.625 117.785 31.8715L113.246 34.4558C113.64 35.1468 114.019 35.8465 114.385 36.5548L119.026 34.1607ZM116.45 29.6357L112.022 32.4055C111.599 31.7299 111.163 31.0637 110.714 30.4071L115.024 27.457C115.514 28.1727 115.989 28.8991 116.45 29.6357ZM113.509 25.3389L109.324 28.4641C108.847 27.8256 108.357 27.1972 107.855 26.5794L111.908 23.2846C112.455 23.958 112.989 24.6429 113.509 25.3389ZM110.223 21.298L106.31 24.7566C105.782 24.1596 105.242 23.5736 104.691 22.9989L108.459 19.3825C109.06 20.0087 109.648 20.6474 110.223 21.298ZM106.618 17.541L103.001 21.3091C102.426 20.7576 101.84 20.2178 101.243 19.6902L104.702 15.7767C105.353 16.3517 105.991 16.9399 106.618 17.541ZM102.715 14.0925L99.4207 18.1449C98.8028 17.6426 98.1745 17.1528 97.5359 16.6759L100.661 12.4914C101.357 13.0112 102.042 13.545 102.715 14.0925ZM98.543 10.9764L95.5929 15.2862C94.9363 14.8368 94.2701 14.4006 93.5946 13.978L96.3643 9.55014C97.1009 10.0109 97.8273 10.4865 98.543 10.9764ZM94.1286 8.21507L91.5442 12.7537C90.8533 12.3602 90.1535 11.9807 89.4452 11.6153L91.8394 6.97362C92.6119 7.37206 93.3751 7.78602 94.1286 8.21507ZM89.5005 5.82804L87.301 10.5651C86.5802 10.2305 85.8515 9.91028 85.115 9.6049L87.1157 4.78046C87.9191 5.11364 88.7142 5.46297 89.5005 5.82804ZM84.6889 3.83286L82.8909 8.7364C82.1458 8.46317 81.3935 8.20488 80.6343 7.96186L82.2266 2.98771C83.055 3.25288 83.8759 3.53473 84.6889 3.83286ZM79.7311 2.2458L78.3474 7.28195C77.5824 7.07176 76.811 6.8769 76.0336 6.69773L77.2066 1.60835C78.0548 1.80384 78.8964 2.01645 79.7311 2.2458ZM74.6572 1.07634L73.6967 6.21007C72.9167 6.06415 72.1311 5.93389 71.3402 5.81963L72.0869 0.650489C72.9494 0.77509 73.8063 0.917165 74.6572 1.07634ZM69.5005 0.331289L68.9679 5.52686C68.1795 5.44604 67.3861 5.38105 66.5882 5.33223L66.9072 0.119181C67.7765 0.172372 68.6411 0.243192 69.5005 0.331289ZM64.3066 0.0132796L64.2004 5.235C63.8013 5.22688 63.4012 5.2228 63 5.2228C62.5989 5.2228 62.1987 5.22688 61.7997 5.235L61.6934 0.0132801C62.1279 0.00444094 62.5635 0 63 0C63.4366 0 63.8722 0.00444075 64.3066 0.0132796ZM59.0929 0.119183L59.4119 5.33223C58.6139 5.38106 57.8206 5.44605 57.0321 5.52687L56.4996 0.331293C57.359 0.243195 58.2236 0.172374 59.0929 0.119183ZM82.2267 123.012L80.6344 118.038C81.3935 117.795 82.1458 117.537 82.891 117.264L84.689 122.167C83.8759 122.465 83.055 122.747 82.2267 123.012ZM87.1157 121.22L85.1151 116.395C85.8515 116.09 86.5803 115.77 87.301 115.435L89.5005 120.172C88.7142 120.537 87.9191 120.886 87.1157 121.22ZM91.8394 119.026L89.4452 114.385C90.1535 114.019 90.8533 113.64 91.5442 113.246L94.1286 117.785C93.3751 118.214 92.6119 118.628 91.8394 119.026ZM96.3644 116.45L93.5946 112.022C94.2701 111.599 94.9364 111.163 95.5929 110.714L98.5431 115.024C97.8273 115.514 97.1009 115.989 96.3644 116.45ZM100.661 113.509L97.536 109.324C98.1745 108.847 98.8029 108.357 99.4207 107.855L102.715 111.907C102.042 112.455 101.357 112.989 100.661 113.509ZM104.702 110.223L101.243 106.31C101.84 105.782 102.426 105.242 103.001 104.691L106.618 108.459C105.991 109.06 105.353 109.648 104.702 110.223ZM108.459 106.618L104.691 103.001C105.242 102.426 105.782 101.84 106.31 101.243L110.223 104.702C109.648 105.353 109.06 105.991 108.459 106.618ZM111.908 102.715L107.855 99.4206C108.357 98.8028 108.847 98.1744 109.324 97.5359L113.509 100.661C112.989 101.357 112.455 102.042 111.908 102.715ZM115.024 98.543L110.714 95.5929C111.163 94.9363 111.599 94.2701 112.022 93.5945L116.45 96.3643C115.989 97.1009 115.514 97.8273 115.024 98.543ZM117.785 94.1285L113.246 91.5442C113.64 90.8532 114.019 90.1535 114.385 89.4452L119.026 91.8393C118.628 92.6118 118.214 93.375 117.785 94.1285ZM120.172 89.5004L115.435 87.301C115.77 86.5802 116.09 85.8514 116.395 85.115L121.22 87.1156C120.886 87.9191 120.537 88.7141 120.172 89.5004ZM122.167 84.6889L117.264 82.8909C117.537 82.1457 117.795 81.3934 118.038 80.6343L123.012 82.2266C122.747 83.055 122.465 83.8759 122.167 84.6889ZM123.754 79.7311L118.718 78.3473C118.928 77.5824 119.123 76.811 119.302 76.0336L124.392 77.2066C124.196 78.0547 123.984 78.8964 123.754 79.7311ZM124.924 74.6571L119.79 73.6967C119.936 72.9167 120.066 72.1311 120.18 71.3401L125.35 72.0869C125.225 72.9494 125.083 73.8063 124.924 74.6571ZM125.669 69.5005L120.473 68.9679C120.554 68.1795 120.619 67.3861 120.668 66.5882L125.881 66.9071C125.828 67.7765 125.757 68.641 125.669 69.5005Z" fill="#E15EFF"/>
</svg>
