<?xml version="1.0" standalone="no"?>
<!DOCTYPE svg PUBLIC "-//W3C//DTD SVG 1.1//EN" "http://www.w3.org/Graphics/SVG/1.1/DTD/svg11.dtd" >
<svg xmlns="http://www.w3.org/2000/svg" xmlns:xlink="http://www.w3.org/1999/xlink" version="1.1">
<metadata>
Created by FontForge 20170731 at Tue Jul 31 17:08:24 2018
 By Aleksey,,,
2017 by (URW)++ Design &#38; Development
</metadata>
<defs>
<font id="A1Serif-Regular" horiz-adv-x="1147" vert-adv-y="2048" >
  <font-face 
    font-family="A1 Serif"
    font-weight="400"
    font-stretch="normal"
    units-per-em="2048"
    panose-1="0 0 0 0 0 0 0 0 0 0"
    ascent="1536"
    descent="-512"
    x-height="969"
    cap-height="1475"
    bbox="-302 -480 2421 2018"
    underline-thickness="142"
    underline-position="-564"
    unicode-range="U+0020-FB04"
  />
<missing-glyph horiz-adv-x="573" vert-adv-y="2457" 
d="M57 0v1475h459v-1475h-459zM459 57v1361h-345v-1361h345z" />
    <glyph glyph-name="ff" unicode="ff" horiz-adv-x="1361" vert-adv-y="2457" 
d="M219 151v667h-154v151l154 6v127q0 203 78.5 295t250.5 92q85 0 163 -14l-11 -145q-76 12 -129 12q-65 0 -101.5 -20t-54.5 -67q-22 -53 -22 -159v-127h229v-151h-229v-667h205v-151h-533v151h154zM892 151v667h-154v151l154 6v127q0 202 78.5 294.5t250.5 92.5
q84 0 163 -14l-12 -145q-76 12 -129 12q-64 0 -100.5 -20t-55.5 -67q-21 -52 -21 -159v-127h244v-151h-244v-667h204v-151h-532v151h154z" />
    <glyph glyph-name="fi" unicode="fi" horiz-adv-x="1285" vert-adv-y="2457" 
d="M219 151v667h-154v151l154 6v127q0 203 78.5 295t250.5 92q84 0 162 -14l-11 -145q-76 12 -128 12q-65 0 -101.5 -20t-54.5 -67q-22 -53 -22 -159v-127h244v-151h-244v-667h205v-151h-533v151h154zM910 151v667h-151v151h325v-818h147v-151h-478v151h157zM896 1164v204
h199v-204h-199z" />
    <glyph glyph-name="fl" unicode="fl" horiz-adv-x="1292" vert-adv-y="2457" 
d="M219 151v667h-154v151l154 6v127q0 203 78.5 295t250.5 92q84 0 162 -14l-11 -145q-76 12 -128 12q-65 0 -101.5 -20t-54.5 -67q-22 -53 -22 -159v-127h244v-151h-244v-667h205v-151h-533v151h154zM915 151v1173h-151v151h325v-1324h147v-151h-478v151h157z" />
    <glyph glyph-name="ffi" unicode="ffi" horiz-adv-x="1958" vert-adv-y="2457" 
d="M219 151v667h-154v151l154 6v127q0 203 78.5 295t250.5 92q85 0 163 -14l-11 -145q-76 12 -129 12q-65 0 -101.5 -20t-54.5 -67q-22 -53 -22 -159v-127h229v-151h-229v-667h205v-151h-533v151h154zM892 151v667h-154v151l154 6v127q0 202 78.5 294.5t250.5 92.5
q84 0 163 -14l-12 -145q-76 12 -129 12q-64 0 -100.5 -20t-55.5 -67q-21 -52 -21 -159v-127h244v-151h-244v-667h204v-151h-532v151h154zM1583 151v667h-151v151h325v-818h146v-151h-478v151h158zM1569 1164v204h199v-204h-199z" />
    <glyph glyph-name="ffl" unicode="ffl" horiz-adv-x="1964" vert-adv-y="2457" 
d="M219 151v667h-154v151l154 6v127q0 203 78.5 295t250.5 92q85 0 163 -14l-11 -145q-76 12 -129 12q-65 0 -101.5 -20t-54.5 -67q-22 -53 -22 -159v-127h229v-151h-229v-667h205v-151h-533v151h154zM892 151v667h-154v151l154 6v127q0 202 78.5 294.5t250.5 92.5
q83 0 162 -14l-11 -145q-76 12 -129 12q-64 0 -100.5 -20.5t-55.5 -66.5q-21 -52 -21 -159v-127h251v-151h-251v-667h204v-151h-532v151h154zM1588 151v1173h-152v151h326v-1324h146v-151h-478v151h158z" />
    <glyph glyph-name=".notdef" horiz-adv-x="573" vert-adv-y="2457" 
d="M57 0v1475h459v-1475h-459zM459 57v1361h-345v-1361h345z" />
    <glyph glyph-name="glyph1" horiz-adv-x="0" vert-adv-y="0" 
 />
    <glyph glyph-name="glyph2" horiz-adv-x="573" vert-adv-y="2457" 
 />
    <glyph glyph-name="space" unicode=" " horiz-adv-x="573" vert-adv-y="2457" 
 />
    <glyph glyph-name="exclam" unicode="!" horiz-adv-x="625" vert-adv-y="2457" 
d="M207 0v215h204v-215h-204zM228 388l-23 1087h204l-23 -1087h-158z" />
    <glyph glyph-name="quotedbl" unicode="&#x22;" horiz-adv-x="603" vert-adv-y="2457" 
d="M95 908v567h134v-567h-134zM374 908v567h134v-567h-134z" />
    <glyph glyph-name="numbersign" unicode="#" vert-adv-y="2457" 
d="M245 464h-189l19 137h189l35 247h-189l19 137h189l67 477h158l-67 -477h268l67 477h157l-67 -477h190l-20 -137h-189l-35 -247h190l-20 -137h-189l-65 -464h-158l66 464h-268l-66 -464h-157zM422 601h268l35 247h-268z" />
    <glyph glyph-name="dollar" unicode="$" vert-adv-y="2457" 
d="M64 0v440h156v-34q0 -139 98 -201q74 -47 197 -64v558q-124 34 -174.5 53.5t-99.5 49.5q-145 91 -145 294q0 235 189 338q82 45 230 52v155h118v-160q11 -3 17 -4q76 -18 113 -35.5t84 -56.5v90h141v-431h-147v27q0 107 -47 164t-161 89v-478q120 -32 172 -52t101 -52
q167 -111 167 -330q0 -143 -72 -250q-104 -155 -368 -177v-155h-118v162q-117 12 -175 30.5t-128 65.5v-88h-148zM515 879v459q-105 -8 -158 -46q-90 -63 -90 -180q0 -92 52 -141t196 -92zM633 663v-528q116 20 163 54q104 76 104 210q0 126 -91 192q-41 29 -134 58
q-31 10 -42 14z" />
    <glyph glyph-name="percent" unicode="%" horiz-adv-x="1685" vert-adv-y="2457" 
d="M436 1506q155 0 259 -111q94 -99 94 -240q0 -140 -94 -239q-104 -111 -264 -111q-159 0 -263 111q-94 100 -94 239q0 143 94 240q107 111 268 111zM429 1370q-85 0 -142.5 -62t-57.5 -153t58 -152.5t144 -61.5q92 0 150 68q53 61 53 147q0 93 -58.5 153.5t-146.5 60.5z
M315 0l903 1475h152l-903 -1475h-152zM1258 670q155 0 259 -111q94 -99 94 -240q0 -139 -94 -239q-104 -111 -263 -111q-160 0 -264 111q-94 100 -94 239q0 143 94 240q107 111 268 111zM1251 534q-85 0 -142.5 -62t-57.5 -152q0 -92 58 -153.5t144 -61.5q92 0 150 68
q53 61 53 146q0 93 -58 154t-147 61z" />
    <glyph glyph-name="ampersand" unicode="&#x26;" horiz-adv-x="1309" vert-adv-y="2457" 
d="M648 844l297 -409q58 154 105 368h163q-76 -341 -164 -510l213 -293h-192l-117 163q-11 -13 -16 -19q-59 -66 -79 -83.5t-64 -40.5q-99 -52 -231 -52q-199 0 -317 97q-140 116 -140 321q0 97 35 172t117 154q39 38 180 154q-95 123 -128 191.5t-33 140.5q0 131 88 219
q89 89 227 89q141 0 231 -92q86 -87 86 -209q0 -126 -121 -241q-31 -29 -140 -120zM559 964q116 89 153.5 136.5t37.5 104.5q0 67 -45 111t-113 44q-66 0 -111 -43.5t-45 -107.5q0 -48 21.5 -91.5t101.5 -153.5zM528 746q-113 -90 -156 -134q-89 -92 -89 -211
q0 -132 81 -208q78 -74 209 -74q118 0 201 70q20 18 84 103z" />
    <glyph glyph-name="quotesingle" unicode="'" horiz-adv-x="321" vert-adv-y="2457" 
d="M94 908v567h134v-567h-134z" />
    <glyph glyph-name="parenleft" unicode="(" horiz-adv-x="819" vert-adv-y="2457" 
d="M662 -432h-163q-288 469 -288 963q0 491 288 954h163q-122 -211 -182 -394q-90 -271 -90 -560q0 -257 64 -484t208 -479z" />
    <glyph glyph-name="parenright" unicode=")" horiz-adv-x="819" vert-adv-y="2457" 
d="M320 -432h-163q122 215 182 398q90 274 90 565q0 255 -64.5 480.5t-207.5 473.5h163q288 -465 288 -954q0 -492 -288 -963z" />
    <glyph glyph-name="asterisk" unicode="*" vert-adv-y="2457" 
d="M168 1164l51 148l283 -101l-5 296h152l-5 -296l282 99l53 -147l-294 -83l198 -247l-129 -93l-181 259l-182 -258l-129 91l198 248z" />
    <glyph glyph-name="plus" unicode="+" vert-adv-y="2457" 
d="M142 661v152h356v375h152v-375h356v-152h-356v-376h-152v376h-356z" />
    <glyph glyph-name="comma" unicode="," horiz-adv-x="573" vert-adv-y="2457" 
d="M76 -273l141 494h209l-177 -494h-173z" />
    <glyph glyph-name="hyphen" unicode="-" horiz-adv-x="716" vert-adv-y="2457" 
d="M88 478v151h540v-151h-540z" />
    <glyph glyph-name="period" unicode="." horiz-adv-x="573" vert-adv-y="2457" 
d="M186 0v221h204v-221h-204z" />
    <glyph glyph-name="slash" unicode="/" horiz-adv-x="791" vert-adv-y="2457" 
d="M63 -188l527 1683h132l-527 -1683h-132z" />
    <glyph glyph-name="zero" unicode="0" vert-adv-y="2457" 
d="M580 1504q169 0 291 -126q193 -200 193 -640q0 -306 -95 -498q-133 -269 -396 -269q-285 0 -414 310q-77 184 -77 457q0 305 95 497q133 269 403 269zM569 1349q-146 0 -228 -162t-82 -450q0 -257 64 -410q84 -201 250 -201q149 0 231.5 161t82.5 452q0 256 -64 409
q-84 201 -254 201z" />
    <glyph glyph-name="one" unicode="1" vert-adv-y="2457" 
d="M506 151v1154l-304 -129l-50 131l382 168h146v-1324h297v-151h-776v151h305z" />
    <glyph glyph-name="two" unicode="2" vert-adv-y="2457" 
d="M76 0q15 157 103.5 283t374.5 397q86 82 126 128t72 99q53 91 53 183q0 118 -71 190q-72 73 -190 73q-253 0 -295 -323h-166q23 185 87 283q123 191 375 191q189 0 310 -105q132 -114 132 -306q0 -171 -105 -309q-74 -98 -264 -274q-169 -156 -218.5 -213.5t-89.5 -145.5
h565v257h156v-408h-955z" />
    <glyph glyph-name="three" unicode="3" vert-adv-y="2457" 
d="M400 703v138q176 -1 269 37q155 63 155 227q0 110 -74.5 178.5t-193.5 68.5q-229 0 -276 -234h-170q21 146 98 239q120 147 352 147q209 0 328 -117q110 -108 110 -276q0 -124 -58.5 -204t-184.5 -129q131 -40 201 -121q91 -103 91 -255q0 -207 -146 -327
q-125 -104 -341 -104q-443 0 -482 430h170q16 -136 95.5 -206.5t216.5 -70.5q126 0 204 62q103 81 103 220q0 193 -201 263q-92 33 -266 34z" />
    <glyph glyph-name="four" unicode="4" vert-adv-y="2457" 
d="M460 0v151h231v240h-601v157l396 927h187l-405 -932h423v496h167v-496h237v-152h-237v-240h214v-151h-612z" />
    <glyph glyph-name="five" unicode="5" vert-adv-y="2457" 
d="M71 401h170q12 -100 61 -167q80 -110 240 -110q145 0 233 100q80 91 80 224q0 146 -88 235q-83 86 -219 86q-78 0 -138.5 -26.5t-140.5 -96.5l-120 72l48 757h756v-353h-156v200h-441l-34 -475q119 75 253 75q184 0 304 -101q156 -132 156 -368q0 -215 -130 -347
q-134 -135 -366 -135q-213 0 -330.5 108.5t-137.5 321.5z" />
    <glyph glyph-name="six" unicode="6" vert-adv-y="2457" 
d="M293 799q73 78 139.5 109t162.5 31q185 0 304 -113q141 -134 141 -364q0 -226 -131 -363q-123 -128 -331 -128q-241 0 -367 181q-102 148 -102 453q0 410 115 648q121 251 388 251q177 0 279 -97t119 -281h-169q-17 93 -49 138q-62 87 -184 87q-98 0 -160 -57.5
t-102 -186.5q-31 -98 -53 -308zM572 786q-131 0 -207 -88q-77 -90 -77 -240q0 -154 77.5 -243.5t210.5 -89.5q137 0 209 88q78 96 78 242q0 152 -77 243q-75 88 -214 88z" />
    <glyph glyph-name="seven" unicode="7" vert-adv-y="2457" 
d="M846 1322h-552v-209h-156v362h884v-138l-508 -1337h-194z" />
    <glyph glyph-name="eight" unicode="8" vert-adv-y="2457" 
d="M352 783q-91 41 -139 98q-74 89 -74 225q0 184 123 293q117 105 311 105q210 0 329 -122q104 -108 104 -276q0 -117 -51.5 -195.5t-161.5 -127.5q105 -39 173 -114q93 -104 93 -265q0 -200 -138 -319q-132 -114 -348 -114q-234 0 -367 130q-120 118 -120 302
q0 138 68.5 235.5t197.5 144.5zM569 1352q-125 0 -193.5 -66t-68.5 -186q0 -118 69.5 -183.5t195.5 -65.5q127 0 196.5 65.5t69.5 184.5q0 121 -69.5 186t-199.5 65zM569 701q-140 0 -222.5 -76.5t-82.5 -207.5q0 -141 90 -219q81 -71 218 -71q150 0 233 83q76 77 76 208
q0 136 -90 213q-82 70 -222 70z" />
    <glyph glyph-name="nine" unicode="9" vert-adv-y="2457" 
d="M852 710q-74 -75 -140 -104t-163 -29q-178 0 -292 93q-154 126 -154 364q0 216 131 347q124 123 329 123q244 0 368 -172q55 -76 80 -184.5t25 -268.5q0 -400 -83 -624q-104 -284 -414 -284q-233 0 -341 147q-67 90 -81 231h169q21 -105 64 -153q65 -72 191 -72
q112 0 176 61t97 200q32 135 38 325zM564 1350q-131 0 -205 -83q-79 -87 -79 -230q0 -142 77 -224.5t211 -82.5q137 0 212 82q77 85 77 225q0 147 -78 230t-215 83z" />
    <glyph glyph-name="colon" unicode=":" horiz-adv-x="574" vert-adv-y="2457" 
d="M186 0v221h204v-221h-204zM186 636v221h204v-221h-204z" />
    <glyph glyph-name="semicolon" unicode=";" horiz-adv-x="574" vert-adv-y="2457" 
d="M194 636v221h204v-221h-204zM53 -273l141 494h209l-177 -494h-173z" />
    <glyph glyph-name="less" unicode="&#x3c;" vert-adv-y="2457" 
d="M317 737l688 -373v-168l-867 486v110l867 486v-168z" />
    <glyph glyph-name="equal" unicode="=" vert-adv-y="2457" 
d="M142 493v153h864v-153h-864zM142 827v153h864v-153h-864z" />
    <glyph glyph-name="greater" unicode="&#x3e;" vert-adv-y="2457" 
d="M830 737l-688 373v168l867 -486v-110l-867 -486v168z" />
    <glyph glyph-name="question" unicode="?" horiz-adv-x="1015" vert-adv-y="2457" 
d="M367 0v215h204v-215h-204zM387 389v408q158 1 243 45q138 72 138 236q0 119 -76 196q-79 79 -195 79q-138 0 -213 -112q-41 -62 -60 -189h-165q12 107 32 167t62 120q121 169 348 169q191 0 314 -118q130 -123 130 -321q0 -181 -122 -292q-53 -48 -114 -73.5t-162 -41.5
v-273h-160z" />
    <glyph glyph-name="at" unicode="@" horiz-adv-x="2139" vert-adv-y="2457" 
d="M1343 374q-112 -160 -317 -160q-176 0 -285 117q-105 113 -105 294q0 182 105 295q107 114 281 114q196 0 306 -150l6 142h141v-528q0 -69 15 -101q24 -52 108 -52q124 0 186 108q59 101 59 264q0 310 -208 484q-206 172 -538 172q-406 0 -625 -265q-175 -211 -175 -521
q0 -316 175 -483q224 -212 676 -212q349 0 664 121l52 -129q-180 -71 -345.5 -101.5t-371.5 -30.5q-325 0 -541 91q-484 203 -484 742q0 375 233 630q272 298 741 298q363 0 607 -174q171 -123 253 -309q61 -140 61 -302q0 -236 -110 -371q-55 -68 -141 -106t-184 -38
q-105 0 -162 38t-77 123zM1045 896q-107 0 -173 -74q-67 -74 -67 -198q0 -123 67 -197q67 -75 179 -75q121 0 196 85q66 75 66 186q0 123 -74 198t-194 75z" />
    <glyph glyph-name="A" unicode="A" horiz-adv-x="1460" vert-adv-y="2457" 
d="M1043 434h-633l-104 -283h161v-151h-467v151h122l504 1324h198l510 -1324h126v-151h-473v151h162zM987 582l-264 714l-258 -714h522z" />
    <glyph glyph-name="B" unicode="B" horiz-adv-x="1332" vert-adv-y="2457" 
d="M226 151v1173h-144v151h583q232 0 356 -92q127 -94 127 -274q0 -212 -206 -305q120 -27 191 -105q96 -106 96 -268q0 -230 -178 -344q-134 -87 -393 -87h-576v151h144zM401 867h260q144 0 221 54q86 59 86 173q0 111 -81 172.5t-228 61.5h-258v-461zM401 147h217
q208 0 306 61q121 74 121 226q0 136 -95.5 211.5t-266.5 75.5h-282v-574z" />
    <glyph glyph-name="C" unicode="C" horiz-adv-x="1476" vert-adv-y="2457" 
d="M1263 348l114 -121q-96 -116 -204 -173q-160 -85 -374 -85q-361 0 -542 221q-165 200 -165 532q0 359 194 575q186 209 503 209q240 0 396 -115v84h148v-431h-156v27q0 101 -49 157t-138 87.5t-198 31.5q-254 0 -391 -186q-125 -170 -125 -438q0 -272 141 -437
q132 -156 386 -156q179 0 316 86q51 33 144 132z" />
    <glyph glyph-name="D" unicode="D" horiz-adv-x="1496" vert-adv-y="2457" 
d="M226 151v1173h-144v151h531q348 0 553 -168q237 -195 237 -569q0 -375 -237 -570q-205 -168 -553 -168h-531v151h144zM406 151h195q272 0 432 130q186 151 186 456t-185 457q-160 130 -433 130h-195v-1173z" />
    <glyph glyph-name="E" unicode="E" horiz-adv-x="1211" vert-adv-y="2457" 
d="M226 151v1173h-144v151h1022v-359h-156v208h-542v-482h486v-151h-486v-540h552v249h156v-400h-1032v151h144z" />
    <glyph glyph-name="F" unicode="F" horiz-adv-x="1141" vert-adv-y="2457" 
d="M226 151v1173h-144v151h1021v-359h-156v208h-541v-493h486v-151h-486v-529h183v-151h-507v151h144z" />
    <glyph glyph-name="G" unicode="G" horiz-adv-x="1663" vert-adv-y="2457" 
d="M806 571v151h676v-663q-262 -90 -594 -90q-263 0 -437 94q-178 97 -270 275q-89 170 -89 392q0 376 254 599q199 176 515 176q260 0 423 -114v84h148v-431h-156v27q0 99 -50 155q-51 58 -144 89.5t-211 31.5q-275 0 -434 -170q-161 -171 -161 -445q0 -281 171 -450
q157 -155 453 -155q205 0 414 66v378h-508z" />
    <glyph glyph-name="H" unicode="H" horiz-adv-x="1473" vert-adv-y="2457" 
d="M226 151v1173h-144v151h475v-151h-151v-473h660v473h-151v151h475v-151h-144v-1173h144v-151h-475v151h151v549h-660v-549h151v-151h-475v151h144z" />
    <glyph glyph-name="I" unicode="I" horiz-adv-x="639" vert-adv-y="2457" 
d="M229 151v1173h-144v151h469v-151h-145v-1173h145v-151h-469v151h144z" />
    <glyph glyph-name="J" unicode="J" horiz-adv-x="634" vert-adv-y="2457" 
d="M230 1324h-151v151h475v-151h-144v-1189q0 -136 -19.5 -211t-69.5 -128q-82 -88 -278 -96v151q109 9 146 58q24 33 32.5 78t8.5 137v1200z" />
    <glyph glyph-name="K" unicode="K" horiz-adv-x="1264" vert-adv-y="2457" 
d="M226 151v1173h-144v151h461v-151h-137v-533l490 533h-129v151h444v-151h-107l-501 -540l528 -633h139v-151h-485v151h131l-510 610v-610h131v-151h-455v151h144z" />
    <glyph glyph-name="L" unicode="L" horiz-adv-x="1151" vert-adv-y="2457" 
d="M226 151v1173h-144v151h484v-151h-160v-1173h516v261h156v-412h-996v151h144z" />
    <glyph glyph-name="M" unicode="M" horiz-adv-x="1810" vert-adv-y="2457" 
d="M191 151l82 1173h-145v151h379l346 -1007q25 -71 53 -200q24 118 50 194l349 1013h375v-151h-145l82 -1173h129v-151h-443v151h138l-53 872q-1 24 -7 223q-48 -178 -62 -218l-352 -1028h-125l-352 1026l-64 220q-5 -196 -6 -222l-54 -873h140v-151h-444v151h129z" />
    <glyph glyph-name="N" unicode="N" horiz-adv-x="1456" vert-adv-y="2457" 
d="M226 151v1173h-144v151h345l558 -947q17 -30 87 -172q-5 131 -5 195v773h-153v151h465v-151h-144v-1348h-125l-647 1109q-7 13 -75 153q6 -131 6 -157v-930h150v-151h-462v151h144z" />
    <glyph glyph-name="O" unicode="O" horiz-adv-x="1714" vert-adv-y="2457" 
d="M867 1506q224 0 413 -124q188 -123 277 -327q64 -148 64 -317q0 -299 -190 -515q-113 -128 -268 -193q-143 -61 -307 -61q-235 0 -423 124q-186 122 -276 328q-65 148 -65 315q0 306 191 516q231 254 584 254zM849 1348q-248 0 -417 -183q-156 -170 -156 -428
q0 -256 156 -427q169 -183 425 -183q255 0 424 183q156 171 156 426q0 263 -156 429q-173 183 -432 183z" />
    <glyph glyph-name="P" unicode="P" horiz-adv-x="1238" vert-adv-y="2457" 
d="M226 151v1173h-144v151h492q156 0 250 -17.5t165 -60.5q91 -55 139.5 -152.5t48.5 -224.5q0 -230 -146.5 -339.5t-455.5 -109.5h-169v-420h183v-151h-507v151h144zM406 719h174q202 0 296 65q117 80 117 240q0 154 -109 233q-93 67 -299 67h-179v-605z" />
    <glyph glyph-name="Q" unicode="Q" horiz-adv-x="1714" vert-adv-y="2457" 
d="M481 -302l-55 146q99 72 161 99t149 36q-203 31 -357 153q-147 117 -222 289q-65 148 -65 317q0 299 191 514q113 128 267 193q143 61 306 61q236 0 424 -123q187 -123 277 -328q64 -147 64 -317q0 -299 -190 -514q-176 -198 -427 -241q-49 -8 -140 -12q63 -15 206 -78
q150 -67 224 -67q80 0 175 54l51 -148q-121 -64 -235 -64q-57 0 -112 15t-161 60q-125 53 -169.5 67t-89.5 14q-115 0 -272 -126zM849 1348q-248 0 -417 -183q-156 -169 -156 -427q0 -256 156 -427q169 -183 425 -183q255 0 424 183q156 171 156 426q0 262 -156 428
q-173 183 -432 183z" />
    <glyph glyph-name="R" unicode="R" horiz-adv-x="1296" vert-adv-y="2457" 
d="M226 151v1173h-144v151h524q147 0 230 -14t148 -50q86 -48 133 -139t47 -208q0 -186 -122 -291q-38 -32 -146 -80q55 -30 86.5 -76.5t68.5 -153.5l110 -312h138v-151h-290l-121 371q-29 89 -49 127t-55 75q-36 36 -86.5 50t-147.5 14h-144v-486h171v-151h-495v151h144z
M406 785h182q195 0 278 52q114 70 114 219q0 146 -107 216q-80 52 -272 52h-195v-539z" />
    <glyph glyph-name="S" unicode="S" horiz-adv-x="1234" vert-adv-y="2457" 
d="M110 0v440h156v-34q0 -104 50 -164q46 -54 130 -84.5t187 -30.5q172 0 263 79q84 73 84 192q0 114 -89 185q-39 30 -105 54.5t-204 59.5q-170 42 -246 75t-125 85q-85 91 -85 240q0 178 112 288q122 121 340 121q207 0 332 -115v84h148v-431h-156v27q0 101 -39 160
q-35 53 -110.5 85t-165.5 32q-137 0 -213 -70q-71 -66 -71 -166q0 -110 90 -168q64 -41 270 -90q172 -41 253.5 -76.5t138.5 -93.5q105 -107 105 -273q0 -195 -124 -314q-135 -128 -399 -128q-229 0 -379 115v-84h-148z" />
    <glyph glyph-name="T" unicode="T" horiz-adv-x="1213" vert-adv-y="2457" 
d="M516 151v1173h-322v-239h-156v390h1136v-390h-156v239h-322v-1173h196v-151h-571v151h195z" />
    <glyph glyph-name="U" unicode="U" horiz-adv-x="1436" vert-adv-y="2457" 
d="M72 1324v151h475v-151h-151v-758q0 -199 49 -295q72 -141 273 -141q200 0 273 141q49 95 49 295v758h-151v151h475v-151h-144v-701q0 -191 -16.5 -288t-60.5 -170q-119 -196 -425 -196q-305 0 -425 196q-44 73 -60.5 170.5t-16.5 287.5v701h-144z" />
    <glyph glyph-name="V" unicode="V" horiz-adv-x="1257" vert-adv-y="2457" 
d="M-10 1324v151h489v-151h-165l266 -830q35 -110 53 -192q23 107 51 194l266 828h-163v151h482v-151h-139l-443 -1357h-110l-450 1357h-137z" />
    <glyph glyph-name="W" unicode="W" horiz-adv-x="1907" vert-adv-y="2457" 
d="M5 1324v151h490v-151h-173l218 -766q24 -86 57 -224q38 157 57 222l263 939h93l265 -941q26 -94 53 -220q30 130 60 238l212 752h-163v151h466v-151h-131l-392 -1356h-108l-264 942q-23 82 -46 202q-26 -119 -48 -197l-269 -947h-111l-396 1356h-133z" />
    <glyph glyph-name="X" unicode="X" horiz-adv-x="1292" vert-adv-y="2457" 
d="M171 151l374 610l-345 563h-156v151h500v-151h-139l253 -431l246 431h-141v151h483v-151h-146l-349 -566l370 -607h166v-151h-515v151h145l-278 476l-272 -476h146v-151h-515v151h173z" />
    <glyph glyph-name="Y" unicode="Y" horiz-adv-x="1153" vert-adv-y="2457" 
d="M484 151v520l-372 653h-128v151h482v-151h-147l264 -489l263 489h-145v151h463v-151h-132l-368 -655v-518h181v-151h-542v151h181z" />
    <glyph glyph-name="Z" unicode="Z" horiz-adv-x="1143" vert-adv-y="2457" 
d="M49 0v143l771 1181h-573v-239h-156v390h960v-116l-786 -1208h632v255h156v-406h-1004z" />
    <glyph glyph-name="bracketleft" unicode="[" horiz-adv-x="819" vert-adv-y="2457" 
d="M287 -422v1897h362v-137h-183v-1618h183v-142h-362z" />
    <glyph glyph-name="backslash" unicode="\" horiz-adv-x="791" vert-adv-y="2457" 
d="M580 -188l-527 1683h132l527 -1683h-132z" />
    <glyph glyph-name="bracketright" unicode="]" horiz-adv-x="819" vert-adv-y="2457" 
d="M170 -422v142h183v1618h-183v137h362v-1897h-362z" />
    <glyph glyph-name="asciicircum" unicode="^" vert-adv-y="2457" 
d="M573 1334l-329 -429h-185l430 570h169l430 -570h-185z" />
    <glyph glyph-name="underscore" unicode="_" horiz-adv-x="1024" vert-adv-y="2457" 
d="M-6 -422v151h1036v-151h-1036z" />
    <glyph glyph-name="grave" unicode="`" horiz-adv-x="1024" vert-adv-y="2457" 
d="M525 1118l-279 349h196l207 -349h-124z" />
    <glyph glyph-name="a" unicode="a" horiz-adv-x="1175" vert-adv-y="2457" 
d="M792 582v48q0 119 -41 163q-56 60 -217 60q-122 0 -169 -44q-30 -29 -38 -107h-163q5 160 91 228t282 68q262 0 358 -110q41 -47 57.5 -112.5t16.5 -182.5v-442h148v-151h-311v111q-125 -140 -363 -140q-173 0 -270 74q-98 75 -98 232q0 192 146 268q90 47 300 47
q89 0 271 -10zM795 444q-113 12 -266 12q-155 0 -210 -33q-69 -42 -69 -140q0 -83 50 -122q54 -42 173 -42q192 0 280 101q25 28 33.5 57t8.5 86v81z" />
    <glyph glyph-name="b" unicode="b" horiz-adv-x="1224" vert-adv-y="2457" 
d="M160 0v1324h-150v151h324v-647q44 52 74 78q110 92 273 92q208 0 337 -146q124 -140 124 -367q0 -228 -124 -368q-129 -146 -338 -146q-219 0 -359 181l-7 -152h-154zM649 847q-145 0 -235 -114q-80 -101 -80 -249q0 -146 80 -248q89 -114 240 -114q150 0 237 113
q74 97 74 249q0 165 -84 262q-88 101 -232 101z" />
    <glyph glyph-name="c" unicode="c" horiz-adv-x="1027" vert-adv-y="2457" 
d="M897 248l93 -121q-170 -156 -431 -156q-218 0 -344 124q-135 134 -135 379q0 237 123 380q124 144 333 144q150 0 260 -84v55h137v-332h-148v30q0 80 -40 117q-67 64 -186 64q-150 0 -229 -107q-73 -99 -73 -262q0 -176 94 -272q81 -84 221 -84q177 0 325 125z" />
    <glyph glyph-name="d" unicode="d" horiz-adv-x="1274" vert-adv-y="2457" 
d="M900 0v151q-50 -58 -79 -83q-113 -97 -280 -97q-208 0 -337 146q-124 141 -124 368t124 367q129 146 337 146q111 0 192.5 -40t154.5 -130v496h-170v151h344v-1324h148v-151h-310zM563 847q-135 0 -222 -101q-84 -98 -84 -261q0 -153 74 -250q87 -113 237 -113
q151 0 240 114q80 102 80 247q0 163 -90 263.5t-235 100.5z" />
    <glyph glyph-name="e" unicode="e" horiz-adv-x="1136" vert-adv-y="2457" 
d="M1060 435h-800q13 -107 51 -168q90 -145 282 -145q95 0 177.5 27.5t184.5 93.5l86 -130q-215 -143 -450 -143q-236 0 -376 147q-136 142 -136 368t134 368q135 145 361 145q184 0 309 -105q175 -147 177 -458zM875 574q-17 98 -59 157q-86 120 -246 120q-176 0 -259 -143
q-32 -56 -47 -134h611z" />
    <glyph glyph-name="f" unicode="f" horiz-adv-x="689" vert-adv-y="2457" 
d="M219 151v667h-154v151l154 6v127q0 203 78.5 295t250.5 92q84 0 162 -14l-11 -145q-76 12 -128 12q-65 0 -101.5 -20t-54.5 -67q-22 -53 -22 -159v-127h244v-151h-244v-667h205v-151h-533v151h154z" />
    <glyph glyph-name="g" unicode="g" horiz-adv-x="1273" vert-adv-y="2457" 
d="M888 154q-46 -52 -77 -77q-109 -88 -269 -88q-209 0 -338 142q-124 137 -124 358t121 361q129 148 342 148q116 0 197.5 -41t159.5 -139v151h324v-151h-162v-723q0 -252 -72 -367q-112 -180 -415 -180q-214 0 -312 73.5t-105 239.5h164q8 -75 44 -111q57 -56 213 -56
q193 0 261 120q27 47 37.5 105t10.5 162v73zM563 847q-135 0 -222 -100q-84 -96 -84 -257q0 -148 74 -241q87 -109 237 -109t240 108q80 96 80 238q0 161 -90.5 261t-234.5 100z" />
    <glyph glyph-name="h" unicode="h" horiz-adv-x="1267" vert-adv-y="2457" 
d="M218 151v1173h-150v151h324v-659q109 102 190.5 142t180.5 40q179 0 248 -130q28 -52 38.5 -118t10.5 -189v-410h148v-151h-457v151h135v419q0 121 -20 177q-33 92 -148 92q-79 0 -148.5 -42.5t-177.5 -156.5v-489h140v-151h-464v151h150z" />
    <glyph glyph-name="i" unicode="i" horiz-adv-x="606" vert-adv-y="2457" 
d="M230 151v667h-151v151h325v-818h147v-151h-478v151h157zM216 1164v204h199v-204h-199z" />
    <glyph glyph-name="j" unicode="j" horiz-adv-x="581" vert-adv-y="2457" 
d="M69 818v151h327v-1002q0 -122 -19 -189t-66 -114q-79 -78 -260 -86v151q99 8 134 52q22 28 29.5 65t7.5 116v856h-153zM208 1164v204h199v-204h-199z" />
    <glyph glyph-name="k" unicode="k" horiz-adv-x="1085" vert-adv-y="2457" 
d="M216 151v1173h-151v151h325v-913l320 267h-122v140h437v-149h-113l-320 -272l397 -397h109v-151h-424v143h111l-395 401v-401h127v-143h-452v151h151z" />
    <glyph glyph-name="l" unicode="l" horiz-adv-x="603" vert-adv-y="2457" 
d="M226 151v1173h-151v151h325v-1324h147v-151h-478v151h157z" />
    <glyph glyph-name="m" unicode="m" horiz-adv-x="1834" vert-adv-y="2457" 
d="M225 151v667h-150v151h321v-156q90 87 130 114q105 71 214 71q103 0 161 -47t90 -155q93 94 141 127q111 75 224 75q164 0 226 -130q45 -93 45 -307v-410h148v-151h-451v151h129v419q0 120 -17 176q-27 93 -126 93q-85 0 -181 -79q-32 -26 -116 -120v-489h143v-151h-446
v151h129v419q0 120 -17 176q-27 93 -126 93q-69 0 -135.5 -45t-161.5 -155v-488h134v-151h-458v151h150z" />
    <glyph glyph-name="n" unicode="n" horiz-adv-x="1274" vert-adv-y="2457" 
d="M225 151v667h-150v151h324v-156q97 87 140 114q113 71 232 71q180 0 248 -130q28 -53 38.5 -118.5t10.5 -188.5v-410h148v-151h-457v151h135v419q0 121 -20 177q-33 92 -148 92q-79 0 -151.5 -44.5t-175.5 -155.5v-488h140v-151h-464v151h150z" />
    <glyph glyph-name="o" unicode="o" horiz-adv-x="1201" vert-adv-y="2457" 
d="M607 998q226 0 372 -146q141 -142 141 -368q0 -225 -141 -367q-145 -146 -379 -146t-378 146q-142 142 -142 366q0 231 142 369q148 146 385 146zM595 847q-160 0 -257 -114q-81 -95 -81 -248t81 -249q96 -114 262 -114t262 114q81 96 81 247q0 156 -81 250
q-99 114 -267 114z" />
    <glyph glyph-name="p" unicode="p" horiz-adv-x="1275" vert-adv-y="2457" 
d="M214 -271v1089h-149v151h310v-152q48 60 87 91q111 90 272 90q209 0 338 -146q124 -141 124 -368q0 -226 -124 -367q-129 -146 -336 -146q-109 0 -191 40t-157 130v-412h176v-151h-499v151h149zM703 847q-145 0 -235 -114q-80 -101 -80 -249q0 -146 80 -248
q89 -114 240 -114q150 0 237 113q74 97 74 248q0 166 -84 263q-88 101 -232 101z" />
    <glyph glyph-name="q" unicode="q" horiz-adv-x="1277" vert-adv-y="2457" 
d="M888 -271v412q-49 -58 -81 -83q-107 -87 -267 -87q-207 0 -336 146q-124 140 -124 367t124 368q129 146 338 146q216 0 358 -180v151h312v-151h-150v-1089h150v-151h-499v151h175zM563 847q-135 0 -222 -101q-84 -98 -84 -261q0 -153 74 -250q87 -113 237 -113
q151 0 240 114q80 101 80 247q0 163 -90 263.5t-235 100.5z" />
    <glyph glyph-name="r" unicode="r" horiz-adv-x="817" vert-adv-y="2457" 
d="M225 151v667h-150v151h319v-160q83 103 143 138q85 51 200 51h41v-167h-37q-79 0 -126 -15t-94 -55q-50 -42 -122 -150v-460h155v-151h-479v151h150z" />
    <glyph glyph-name="s" unicode="s" horiz-adv-x="983" vert-adv-y="2457" 
d="M89 0v319h148v-34q0 -75 50 -112q80 -60 235 -60q104 0 161 37q61 39 61 118q0 65 -55 102q-24 17 -54.5 24.5t-172.5 31.5q-122 20 -186 42.5t-104 57.5q-77 68 -77 184q0 130 93 210q89 78 247 78q79 0 138 -18.5t123 -63.5v53h137v-297h-148v18q0 69 -44 105
q-74 60 -193 60q-94 0 -140 -40q-42 -37 -42 -95q0 -62 65 -97q37 -20 186 -46q136 -23 198.5 -42.5t102.5 -52.5q93 -73 93 -212q0 -143 -100 -221t-284 -78q-173 0 -301 82v-53h-137z" />
    <glyph glyph-name="t" unicode="t" horiz-adv-x="688" vert-adv-y="2457" 
d="M213 818h-154v151h154v357h174v-357h244v-151h-244v-500q0 -93 29.5 -130t105.5 -37h121v-151h-127q-303 0 -303 291v527z" />
    <glyph glyph-name="u" unicode="u" horiz-adv-x="1215" vert-adv-y="2457" 
d="M206 818h-148v151h322v-570q0 -118 15 -168q27 -88 128 -88q74 0 141 40.5t168 146.5v488h-140v151h314v-818h150v-151h-324v156q-95 -83 -133 -106q-108 -66 -221 -66q-165 0 -227 126q-26 52 -35.5 114.5t-9.5 183.5v410z" />
    <glyph glyph-name="v" unicode="v" horiz-adv-x="1060" vert-adv-y="2457" 
d="M125 818h-119v151h438v-151h-136l179 -464q19 -50 45 -143q32 108 46 144l180 463h-137v151h434v-151h-119l-346 -844h-126z" />
    <glyph glyph-name="w" unicode="w" horiz-adv-x="1610" vert-adv-y="2457" 
d="M131 818h-115v151h437v-151h-149l155 -433q24 -67 46 -150q26 90 51 157l215 577h71l212 -582q25 -69 48 -152q28 94 47 145l161 438h-154v151h435v-151h-112l-321 -842h-108l-208 580q-22 63 -39 131q-16 -67 -38 -128l-211 -583h-106z" />
    <glyph glyph-name="x" unicode="x" horiz-adv-x="1115" vert-adv-y="2457" 
d="M159 151l297 361l-251 306h-148v151h461v-136h-125l176 -232l189 232h-126v136h445v-151h-142l-275 -312l290 -355h145v-151h-483v142h146l-209 275l-213 -275h144v-142h-460v151h139z" />
    <glyph glyph-name="y" unicode="y" horiz-adv-x="1076" vert-adv-y="2457" 
d="M111 818h-103v151h460v-151h-175l210 -461q3 -7 48 -119q25 69 54 137l185 443h-169v151h455v-151h-109l-421 -965q-72 -163 -142 -216q-44 -33 -97 -45.5t-152 -13.5v151q104 1 148.5 31t85.5 128l73 173z" />
    <glyph glyph-name="z" unicode="z" horiz-adv-x="957" vert-adv-y="2457" 
d="M47 0v149l585 669h-384v-158h-151v309h760v-128l-599 -690h464v174h151v-325h-826z" />
    <glyph glyph-name="braceleft" unicode="{" horiz-adv-x="819" vert-adv-y="2457" 
d="M298 561q103 -39 137.5 -108.5t34.5 -239.5v-249q0 -162 45 -206q44 -44 159 -44h50v-136h-69q-117 0 -177.5 14.5t-101.5 51.5q-44 40 -62 109t-18 194v248q0 167 -44 228q-27 36 -63.5 51t-111.5 18v138q77 3 116.5 20t64.5 56q38 60 38 221v179q0 130 18 199t62 107
q41 35 102 49t177 14h69v-136h-51q-124 0 -163.5 -48.5t-39.5 -201.5v-189q0 -162 -35.5 -232t-136.5 -107z" />
    <glyph glyph-name="bar" unicode="|" horiz-adv-x="1024" vert-adv-y="2457" 
d="M425 -480v2046h171v-2046h-171z" />
    <glyph glyph-name="braceright" unicode="}" horiz-adv-x="819" vert-adv-y="2457" 
d="M522 561q-101 37 -136.5 107t-35.5 232v189q0 161 -44 206q-44 44 -159 44h-51v136h69q123 0 187 -16.5t104 -58.5q37 -38 52.5 -106t15.5 -188v-179q0 -161 38 -221q25 -39 64.5 -56t116.5 -20v-138q-75 -3 -111.5 -18t-63.5 -51q-44 -62 -44 -228v-248q0 -132 -21 -203
t-71 -110q-41 -31 -99 -43.5t-168 -12.5h-69v136h50q125 0 164.5 48.5t39.5 201.5v249q0 165 33 238q33 70 139 110z" />
    <glyph glyph-name="asciitilde" unicode="~" vert-adv-y="2457" 
d="M197 602l-96 110q83 95 145.5 132.5t136.5 37.5q95 0 204 -61q89 -50 113.5 -59.5t61.5 -9.5q87 0 190 120l94 -107q-142 -173 -280 -173q-87 0 -207 64q-78 41 -109.5 53t-63.5 12q-84 0 -189 -119z" />
    <glyph glyph-name="nonbreakingspace" unicode="&#xa0;" horiz-adv-x="573" vert-adv-y="2457" 
 />
    <glyph glyph-name="exclamdown" unicode="&#xa1;" horiz-adv-x="625" vert-adv-y="2457" 
d="M204 -209l23 1178h158l23 -1178h-204zM205 1161v215h204v-215h-204z" />
    <glyph glyph-name="cent" unicode="&#xa2;" vert-adv-y="2457" 
d="M565 284q-138 14 -230 73q-203 131 -203 428q0 185 80 314q59 95 143.5 144t209.5 62v303h118v-306q124 -20 205 -85v62h130v-332h-144v30q6 147 -191 178v-721q165 15 289 124l94 -121q-149 -138 -383 -155v-308h-118v310zM565 443v707q-100 -23 -151 -71
q-105 -97 -105 -288q0 -211 138 -302q34 -23 118 -46z" />
    <glyph glyph-name="sterling" unicode="&#xa3;" vert-adv-y="2457" 
d="M67 -24v170q122 29 177.5 108.5t55.5 225.5q0 64 -23 187h-210v137h184q-44 177 -44 281q0 204 123 317q110 102 284 102q176 0 291 -119v90h141v-431h-152v27q0 101 -34 161q-30 53 -93.5 85t-139.5 32q-104 0 -170 -59q-79 -71 -79 -196q0 -95 49 -290h284v-137h-258
q24 -144 24 -212q0 -65 -10.5 -111t-40.5 -114q166 -94 301 -94q230 0 255 260h168q-45 -420 -419 -420q-191 0 -382 123q-116 -118 -282 -123z" />
    <glyph glyph-name="currency" unicode="&#xa4;" vert-adv-y="2457" 
d="M135 279l-90 94l196 194q-80 107 -80 242q0 134 79 241l-195 193l90 94l196 -196q111 81 244 81q134 0 242 -81l193 195l94 -93l-196 -193q79 -111 79 -240q0 -134 -80 -243l197 -194l-94 -93l-194 196q-115 -80 -242 -80q-129 0 -242 80zM571 1087q-115 0 -197 -85
q-78 -81 -78 -193t78 -193q82 -85 200 -85t200 85q78 81 78 193q0 113 -78 193q-83 85 -203 85z" />
    <glyph glyph-name="yen" unicode="&#xa5;" vert-adv-y="2457" 
d="M483 143v235h-348v119h348v116h-348v119h305l-329 592h-128v151h482v-151h-147l264 -489l263 489h-145v151h464v-151h-132l-325 -592h305v-119h-349v-116h349v-119h-349v-235h182v-143h-543v143h181z" />
    <glyph glyph-name="brokenbar" unicode="&#xa6;" horiz-adv-x="616" vert-adv-y="2457" 
d="M229 846v602h159v-602h-159zM229 0v603h159v-603h-159z" />
    <glyph glyph-name="section" unicode="&#xa7;" vert-adv-y="2457" 
d="M252 -208v337h141v-194h126q188 0 188 109q0 86 -120 194l-257 232q-108 98 -146.5 160t-38.5 139q0 141 126 207q52 28 127 38q-89 118 -89 227q0 122 103.5 178t330.5 56h164v-336h-136v195h-101q-194 0 -194 -105q0 -43 34.5 -94t114.5 -126l223 -210
q180 -170 180 -319q0 -97 -57 -160.5t-167 -89.5q81 -105 81 -200q0 -238 -378 -238h-255zM763 648l-162 154q-60 57 -98.5 79t-78.5 22q-53 0 -89 -34t-36 -84q0 -39 20 -71.5t81 -90.5l172 -164q106 -102 183 -102q47 0 79.5 34t32.5 83q0 76 -104 174z" />
    <glyph glyph-name="dieresis" unicode="&#xa8;" horiz-adv-x="1024" vert-adv-y="2457" 
d="M249 1174v194h177v-194h-177zM597 1174v194h177v-194h-177z" />
    <glyph glyph-name="copyright" unicode="&#xa9;" horiz-adv-x="1728" vert-adv-y="2457" 
d="M1157 1072v-224h-122v128q-76 29 -152 29q-123 0 -190 -84q-64 -79 -64 -197q0 -124 66 -195.5t180 -71.5q132 0 256 90l71 -92q-152 -115 -321 -115q-187 0 -294 115q-95 103 -95 271q0 178 108 287t285 109q123 0 272 -50zM873 1521q215 0 399 -116q191 -122 287 -325
q74 -158 74 -343q0 -325 -219 -552q-225 -232 -550 -232q-326 0 -550 232q-220 227 -220 550q0 221 104 402q110 193 310 298q163 86 365 86zM855 1385q-176 0 -326 -98q-161 -104 -234 -277q-51 -121 -51 -274q0 -271 168 -452q182 -195 452 -195q269 0 451 195
q168 181 168 451q0 279 -168 455q-187 195 -460 195z" />
    <glyph glyph-name="ordfeminine" unicode="&#xaa;" horiz-adv-x="769" vert-adv-y="2457" 
d="M508 854v68q-33 -33 -60 -49q-63 -36 -159 -36q-233 0 -233 198q0 108 65 154.5t215 46.5q39 0 150 -5v39q0 61 -34.5 87.5t-112.5 26.5q-85 0 -189 -38l-46 118q124 42 244 42q154 0 220.5 -60t66.5 -199v-270h89v-123h-216zM486 1123q-71 6 -135 6q-80 0 -112.5 -20.5
t-32.5 -70.5q0 -88 113 -88q78 0 122.5 33.5t44.5 92.5v47z" />
    <glyph glyph-name="guillemotleft" unicode="&#xab;" horiz-adv-x="791" vert-adv-y="2457" 
d="M235 463l212 -368h-172l-204 368l204 369h172zM529 463l212 -368h-172l-204 368l204 369h172z" />
    <glyph glyph-name="logicalnot" unicode="&#xac;" vert-adv-y="2457" 
d="M142 665v148h799v-528h-155v380h-644z" />
    <glyph glyph-name="uni00AD" unicode="&#xad;" horiz-adv-x="716" vert-adv-y="2457" 
d="M88 478v151h540v-151h-540z" />
    <glyph glyph-name="registered" unicode="&#xae;" horiz-adv-x="1276" vert-adv-y="2457" 
d="M461 1028v355h-55v92h230q103 0 154 -24q81 -38 81 -135q0 -87 -81 -130q19 -20 36 -65l37 -93h60v-92h-148l-51 139q-17 49 -36.5 63t-71.5 14h-45v-124h68v-92h-233v92h55zM571 1239h57q70 0 100 17.5t30 56.5q0 38 -28.5 54t-95.5 16h-63v-144zM645 1774
q229 0 393 -169q160 -164 160 -403q0 -237 -160 -402q-163 -169 -400 -169q-238 0 -401 169q-160 165 -160 401q0 243 160 404q167 169 408 169zM632 1666q-187 0 -318 -139q-121 -129 -121 -325q0 -194 121 -324q130 -139 323 -139q194 0 324 139q121 130 121 323
q0 200 -121 326q-134 139 -329 139z" />
    <glyph glyph-name="macron" unicode="&#xaf;" horiz-adv-x="1024" vert-adv-y="2457" 
d="M247 1203v138h530v-138h-530z" />
    <glyph glyph-name="degree" unicode="&#xb0;" horiz-adv-x="722" vert-adv-y="2457" 
d="M358 1425q-81 0 -129.5 -52t-48.5 -139q0 -71 33 -119q49 -71 148 -71q84 0 133 51t49 139q0 73 -33 120q-49 71 -152 71zM366 1537q137 0 220 -83t83 -219q0 -126 -74 -209q-85 -93 -233 -93q-149 0 -234 93q-74 83 -74 208q0 140 84 221.5t228 81.5z" />
    <glyph glyph-name="plusminus" unicode="&#xb1;" vert-adv-y="2457" 
d="M142 708v152h356v376h152v-376h356v-152h-356v-376h-152v376h-356zM142 0v152h864v-152h-864z" />
    <glyph glyph-name="twosuperior" unicode="&#xb2;" horiz-adv-x="737" vert-adv-y="2457" 
d="M45 819q7 73 18.5 107.5t43.5 79.5q34 49 82 96t185 166q110 96 110 182q0 55 -37.5 89t-97.5 34q-68 0 -102.5 -42.5t-54.5 -149.5l-143 18q24 129 62 185q78 112 241 112q134 0 210 -64.5t76 -177.5q0 -93 -43.5 -159t-185.5 -188q-124 -107 -164 -165h295v152h132
v-275h-627z" />
    <glyph glyph-name="threesuperior" unicode="&#xb3;" horiz-adv-x="737" vert-adv-y="2457" 
d="M252 1211v116h27q217 0 217 131q0 51 -38 82.5t-99 31.5q-63 0 -98.5 -31t-53.5 -101l-143 16q32 126 102.5 183t197.5 57q132 0 206.5 -62.5t74.5 -173.5q0 -128 -121 -186q150 -63 150 -212q0 -123 -81.5 -191t-229.5 -68q-298 0 -314 265l140 10q8 -72 53 -111
t120 -39q73 0 116 36t43 97q0 107 -128 138q-46 11 -141 12z" />
    <glyph glyph-name="acute" unicode="&#xb4;" horiz-adv-x="1024" vert-adv-y="2457" 
d="M375 1118l208 349h195l-279 -349h-124z" />
    <glyph glyph-name="mu" unicode="&#xb5;" horiz-adv-x="1190" vert-adv-y="2457" 
d="M46 818v151h324l1 -572q0 -116 15 -166q26 -88 127 -88q74 0 141 40.5t167 146.5v488h-139v151h313v-818h150v-151h-324v156q-86 -80 -126 -106q-103 -66 -209 -66q-65 0 -116 31v-286h176v-151h-499v151h149v1089h-150z" />
    <glyph glyph-name="paragraph" unicode="&#xb6;" horiz-adv-x="1290" vert-adv-y="2457" 
d="M461 -271v928q-156 15 -245 79q-156 111 -156 328q0 192 125 306q65 58 143.5 82t209.5 24h604v-151h-123v-1596h176v-151h-882v151h148zM619 -271h242v1596h-242v-1596z" />
    <glyph glyph-name="glyph121" unicode="&#xb7;" horiz-adv-x="574" vert-adv-y="2457" 
d="M186 443v221h204v-221h-204z" />
    <glyph glyph-name="cedilla" unicode="&#xb8;" horiz-adv-x="1024" vert-adv-y="2457" 
d="M489 0h119l-52 -94q86 -7 121 -24q97 -44 97 -158q0 -98 -66.5 -150t-191.5 -52q-107 0 -247 39v139q154 -56 249 -56q111 0 111 79q0 40 -30 58t-100 18q-7 0 -68 -4v93z" />
    <glyph glyph-name="onesuperior" unicode="&#xb9;" horiz-adv-x="737" vert-adv-y="2457" 
d="M306 942v590l-149 -62l-46 115l222 94h122v-737h148v-123h-451v123h154z" />
    <glyph glyph-name="ordmasculine" unicode="&#xba;" horiz-adv-x="769" vert-adv-y="2457" 
d="M389 1506q152 0 245 -92q92 -91 92 -242t-92 -242q-93 -92 -250 -92q-156 0 -249 92q-92 91 -92 241q0 153 92 243q94 92 254 92zM381 1383q-83 0 -135 -58.5t-52 -152.5q0 -95 52.5 -153t137.5 -58q94 0 146 68q45 59 45 142q0 97 -53 154.5t-141 57.5z" />
    <glyph glyph-name="guillemotright" unicode="&#xbb;" horiz-adv-x="791" vert-adv-y="2457" 
d="M555 463l-212 369h172l204 -369l-204 -368h-172zM261 463l-212 369h172l204 -369l-204 -368h-172z" />
    <glyph glyph-name="onequarter" unicode="&#xbc;" horiz-adv-x="1761" vert-adv-y="2457" 
d="M306 738v590l-149 -62l-46 115l222 94h122v-737h148v-123h-451v123h154zM401 0l739 1475h152l-739 -1475h-152zM1377 0v189h-393v117l261 554h155l-261 -551h238v287h139v-287h125v-120h-125v-189h-139z" />
    <glyph glyph-name="onehalf" unicode="&#xbd;" horiz-adv-x="1761" vert-adv-y="2457" 
d="M294 738v590l-149 -62l-46 115l222 94h122v-737h148v-123h-451v123h154zM385 0l739 1475h152l-739 -1475h-152zM1020 0q7 72 18.5 106.5t43.5 80.5q35 49 81.5 95.5t185.5 166.5q110 96 110 182q0 55 -37.5 89t-97.5 34q-68 0 -102.5 -42.5t-54.5 -149.5l-143 18
q23 127 62 185q77 112 241 112q134 0 210 -64.5t76 -177.5q0 -93 -43 -158.5t-186 -188.5q-125 -109 -164 -165h295v152h132v-275h-627z" />
    <glyph glyph-name="threequarters" unicode="&#xbe;" horiz-adv-x="1761" vert-adv-y="2457" 
d="M279 1007v116q24 -1 35 -1q83 0 133 23q76 34 76 108q0 51 -37.5 82.5t-99.5 31.5q-63 0 -99 -31t-53 -100l-143 15q32 127 102.5 183.5t197.5 56.5q133 0 207 -62t74 -174q0 -127 -121 -185q150 -64 150 -213q0 -123 -81.5 -191t-229.5 -68q-298 0 -314 266l140 10
q8 -73 53 -112t120 -39q73 0 116 36t43 98q0 107 -128 138q-46 10 -141 12zM462 0l739 1475h152l-739 -1475h-152zM1411 0v189h-393v117l261 554h156l-262 -551h238v287h139v-287h125v-120h-125v-189h-139z" />
    <glyph glyph-name="questiondown" unicode="&#xbf;" horiz-adv-x="1015" vert-adv-y="2457" 
d="M647 1376v-215h-204v215h204zM628 971v-505q-159 -1 -243 -45q-138 -72 -138 -236q0 -118 76 -195q78 -79 195 -79q138 0 213 112q41 61 60 188h165q-13 -106 -32.5 -166.5t-62.5 -119.5q-120 -169 -347 -169q-191 0 -315 117q-129 123 -129 321q0 181 122 292
q53 48 114 74t162 42v369h160z" />
    <glyph glyph-name="Agrave" unicode="&#xc0;" horiz-adv-x="1460" vert-adv-y="2457" 
d="M1043 434h-633l-104 -283h161v-151h-467v151h122l504 1324h198l510 -1324h126v-151h-473v151h162zM987 582l-264 714l-258 -714h522zM702 1596l-254 324h196l182 -324h-124z" />
    <glyph glyph-name="Aacute" unicode="&#xc1;" horiz-adv-x="1460" vert-adv-y="2457" 
d="M1043 434h-633l-104 -283h161v-151h-467v151h122l504 1324h198l510 -1324h126v-151h-473v151h162zM987 582l-264 714l-258 -714h522zM641 1596l182 324h196l-254 -324h-124z" />
    <glyph glyph-name="Acircumflex" unicode="&#xc2;" horiz-adv-x="1460" vert-adv-y="2457" 
d="M1043 434h-633l-104 -283h161v-151h-467v151h122l504 1324h198l510 -1324h126v-151h-473v151h162zM987 582l-264 714l-258 -714h522zM730 1809l-162 -213h-124l197 324h178l195 -324h-123z" />
    <glyph glyph-name="Atilde" unicode="&#xc3;" horiz-adv-x="1460" vert-adv-y="2457" 
d="M1043 434h-633l-104 -283h161v-151h-467v151h122l504 1324h198l510 -1324h126v-151h-473v151h162zM987 582l-264 714l-258 -714h522zM536 1648h-113q46 205 200 205q57 0 139 -45q73 -40 97 -40q52 0 87 84h114q-26 -93 -62 -140q-53 -70 -146 -70q-63 0 -173 62
q-41 23 -63 23q-49 0 -80 -79z" />
    <glyph glyph-name="Adieresis" unicode="&#xc4;" horiz-adv-x="1460" vert-adv-y="2457" 
d="M1043 434h-633l-104 -283h161v-151h-467v151h122l504 1324h198l510 -1324h126v-151h-473v151h162zM987 582l-264 714l-258 -714h522zM451 1651v194h177v-194h-177zM832 1651v194h177v-194h-177z" />
    <glyph glyph-name="Aring" unicode="&#xc5;" horiz-adv-x="1460" vert-adv-y="2457" 
d="M1043 434h-633l-104 -283h161v-151h-467v151h122l504 1324h198l510 -1324h126v-151h-473v151h162zM987 582l-264 714l-258 -714h522zM734 2018q106 0 168 -62t62 -167q0 -107 -62.5 -168t-171.5 -61q-115 0 -177 69q-56 63 -56 159q0 108 63 169t174 61zM728 1918
q-56 0 -87 -34t-31 -95q0 -129 120 -129q121 0 121 129t-123 129z" />
    <glyph glyph-name="AE" unicode="&#xc6;" horiz-adv-x="1958" vert-adv-y="2457" 
d="M973 479h-530l-196 -328h183v-151h-515v151h145l675 1173h-136v151h1252v-367h-156v216h-542v-482h486v-151h-486v-540h552v257h156v-408h-1069v151h181v328zM973 625v699h-60l-395 -699h455z" />
    <glyph glyph-name="Ccedilla" unicode="&#xc7;" horiz-adv-x="1476" vert-adv-y="2457" 
d="M1263 347l114 -120q-196 -252 -560 -257l-35 -64q86 -7 122 -24q96 -44 96 -158q0 -98 -66.5 -150t-191.5 -52q-107 0 -247 39v138q154 -55 250 -55q110 0 110 78q0 76 -129 76q-16 0 -69 -3v93l44 86q-210 20 -343 120q-266 198 -266 628q0 359 194 575q187 209 503 209
q240 0 396 -115v84h148v-431h-156v27q0 101 -49 157q-48 56 -137.5 87.5t-198.5 31.5q-254 0 -391 -186q-125 -171 -125 -438q0 -272 141 -437q132 -156 386 -156q179 0 316 86q51 33 144 131z" />
    <glyph glyph-name="Egrave" unicode="&#xc8;" horiz-adv-x="1211" vert-adv-y="2457" 
d="M226 151v1173h-144v151h1022v-359h-156v208h-542v-482h486v-151h-486v-540h552v249h156v-400h-1032v151h144zM630 1596l-254 324h196l182 -324h-124z" />
    <glyph glyph-name="Eacute" unicode="&#xc9;" horiz-adv-x="1211" vert-adv-y="2457" 
d="M226 151v1173h-144v151h1022v-359h-156v208h-542v-482h486v-151h-486v-540h552v249h156v-400h-1032v151h144zM528 1596l182 324h196l-254 -324h-124z" />
    <glyph glyph-name="Ecircumflex" unicode="&#xca;" horiz-adv-x="1211" vert-adv-y="2457" 
d="M226 151v1173h-144v151h1022v-359h-156v208h-542v-482h486v-151h-486v-540h552v249h156v-400h-1032v151h144zM638 1809l-162 -213h-124l197 324h178l195 -324h-123z" />
    <glyph glyph-name="Edieresis" unicode="&#xcb;" horiz-adv-x="1211" vert-adv-y="2457" 
d="M226 151v1173h-144v151h1022v-359h-156v208h-542v-482h486v-151h-486v-540h552v249h156v-400h-1032v151h144zM333 1651v194h177v-194h-177zM714 1651v194h177v-194h-177z" />
    <glyph glyph-name="Igrave" unicode="&#xcc;" horiz-adv-x="639" vert-adv-y="2457" 
d="M229 151v1173h-144v151h469v-151h-145v-1173h145v-151h-469v151h144zM310 1596l-254 324h196l182 -324h-124z" />
    <glyph glyph-name="Iacute" unicode="&#xcd;" horiz-adv-x="639" vert-adv-y="2457" 
d="M229 151v1173h-144v151h469v-151h-145v-1173h145v-151h-469v151h144zM217 1596l182 324h196l-254 -324h-124z" />
    <glyph glyph-name="Icircumflex" unicode="&#xce;" horiz-adv-x="639" vert-adv-y="2457" 
d="M228 151v1173h-144v151h469v-151h-145v-1173h145v-151h-469v151h144zM319 1809l-162 -213h-124l197 324h178l195 -324h-123z" />
    <glyph glyph-name="Idieresis" unicode="&#xcf;" horiz-adv-x="639" vert-adv-y="2457" 
d="M229 151v1173h-144v151h469v-151h-145v-1173h145v-151h-469v151h144zM40 1651v194h177v-194h-177zM421 1651v194h177v-194h-177z" />
    <glyph glyph-name="Eth" unicode="&#xd0;" horiz-adv-x="1468" vert-adv-y="2457" 
d="M227 151v560h-217v137h217v476h-145v151h503q348 0 553 -168q237 -196 237 -570t-237 -569q-205 -168 -553 -168h-503v151h145zM407 151h167q271 0 431 130q186 151 186 456t-185 457q-160 130 -432 130h-167v-476h401v-137h-401v-560z" />
    <glyph glyph-name="Ntilde" unicode="&#xd1;" horiz-adv-x="1456" vert-adv-y="2457" 
d="M226 151v1173h-144v151h345l558 -947q17 -30 87 -172q-5 131 -5 195v773h-153v151h465v-151h-144v-1348h-125l-647 1109q-7 13 -75 153q6 -131 6 -157v-930h150v-151h-462v151h144zM538 1648h-113q46 205 200 205q57 0 139 -45q73 -40 97 -40q52 0 87 84h114
q-26 -93 -62 -140q-53 -70 -146 -70q-63 0 -173 62q-41 23 -63 23q-49 0 -80 -79z" />
    <glyph glyph-name="Ograve" unicode="&#xd2;" horiz-adv-x="1714" vert-adv-y="2457" 
d="M867 1506q224 0 413 -124q188 -123 277 -327q64 -148 64 -317q0 -299 -190 -515q-113 -128 -268 -193q-143 -61 -307 -61q-235 0 -423 124q-186 122 -276 328q-65 148 -65 315q0 306 191 516q231 254 584 254zM849 1348q-248 0 -417 -183q-156 -170 -156 -428
q0 -256 156 -427q169 -183 425 -183q255 0 424 183q156 171 156 426q0 263 -156 429q-173 183 -432 183zM869 1596l-254 324h196l182 -324h-124z" />
    <glyph glyph-name="Oacute" unicode="&#xd3;" horiz-adv-x="1714" vert-adv-y="2457" 
d="M867 1506q224 0 413 -124q188 -123 277 -327q64 -148 64 -317q0 -299 -190 -515q-113 -128 -268 -193q-143 -61 -307 -61q-235 0 -423 124q-186 122 -276 328q-65 148 -65 315q0 306 191 516q231 254 584 254zM849 1348q-248 0 -417 -183q-156 -170 -156 -428
q0 -256 156 -427q169 -183 425 -183q255 0 424 183q156 171 156 426q0 263 -156 429q-173 183 -432 183zM719 1596l182 324h196l-254 -324h-124z" />
    <glyph glyph-name="Ocircumflex" unicode="&#xd4;" horiz-adv-x="1714" vert-adv-y="2457" 
d="M867 1506q224 0 413 -124q188 -123 277 -327q64 -148 64 -317q0 -299 -190 -515q-113 -128 -268 -193q-143 -61 -307 -61q-235 0 -423 124q-186 122 -276 328q-65 148 -65 315q0 306 191 516q231 254 584 254zM849 1348q-248 0 -417 -183q-156 -170 -156 -428
q0 -256 156 -427q169 -183 425 -183q255 0 424 183q156 171 156 426q0 263 -156 429q-173 183 -432 183zM856 1809l-162 -213h-124l197 324h178l195 -324h-123z" />
    <glyph glyph-name="Otilde" unicode="&#xd5;" horiz-adv-x="1714" vert-adv-y="2457" 
d="M867 1506q224 0 413 -124q188 -123 277 -327q64 -148 64 -317q0 -299 -190 -515q-113 -128 -268 -193q-143 -61 -307 -61q-235 0 -423 124q-186 122 -276 328q-65 148 -65 315q0 306 191 516q231 254 584 254zM849 1348q-248 0 -417 -183q-156 -170 -156 -428
q0 -256 156 -427q169 -183 425 -183q255 0 424 183q156 171 156 426q0 263 -156 429q-173 183 -432 183zM663 1648h-113q46 205 200 205q57 0 139 -45q73 -40 97 -40q52 0 87 84h114q-26 -93 -62 -140q-53 -70 -146 -70q-63 0 -173 62q-41 23 -63 23q-49 0 -80 -79z" />
    <glyph glyph-name="Odieresis" unicode="&#xd6;" horiz-adv-x="1714" vert-adv-y="2457" 
d="M867 1506q224 0 413 -124q188 -123 277 -327q64 -148 64 -317q0 -299 -190 -515q-113 -128 -268 -193q-143 -61 -307 -61q-235 0 -423 124q-186 122 -276 328q-65 148 -65 315q0 306 191 516q231 254 584 254zM849 1348q-248 0 -417 -183q-156 -170 -156 -428
q0 -256 156 -427q169 -183 425 -183q255 0 424 183q156 171 156 426q0 263 -156 429q-173 183 -432 183zM577 1651v194h177v-194h-177zM958 1651v194h177v-194h-177z" />
    <glyph glyph-name="multiply" unicode="&#xd7;" vert-adv-y="2457" 
d="M466 736l-290 290l108 108l290 -290l290 290l108 -108l-290 -290l290 -290l-108 -107l-290 290l-290 -290l-108 107z" />
    <glyph glyph-name="Oslash" unicode="&#xd8;" horiz-adv-x="1714" vert-adv-y="2457" 
d="M305 184q-226 231 -226 557q0 296 191 512q113 128 268 193q142 61 305 61q239 0 436 -132l144 177h174l-213 -261q224 -236 224 -554q0 -298 -190 -514q-225 -254 -576 -254q-225 0 -431 131l-157 -192h-174zM415 318l759 929q-154 102 -330 102q-256 0 -425 -184
q-156 -170 -156 -428q0 -252 152 -419zM1273 1155l-757 -927q89 -55 163 -78t164 -23q256 0 425 184q156 170 156 427q0 127 -31.5 214t-119.5 203z" />
    <glyph glyph-name="Ugrave" unicode="&#xd9;" horiz-adv-x="1436" vert-adv-y="2457" 
d="M72 1324v151h475v-151h-151v-758q0 -199 49 -295q72 -141 273 -141q200 0 273 141q49 95 49 295v758h-151v151h475v-151h-144v-701q0 -191 -16.5 -288t-60.5 -170q-119 -196 -425 -196q-305 0 -425 196q-44 73 -60.5 170.5t-16.5 287.5v701h-144zM720 1596l-254 324h196
l182 -324h-124z" />
    <glyph glyph-name="Uacute" unicode="&#xda;" horiz-adv-x="1436" vert-adv-y="2457" 
d="M72 1324v151h475v-151h-151v-758q0 -199 49 -295q72 -141 273 -141q200 0 273 141q49 95 49 295v758h-151v151h475v-151h-144v-701q0 -191 -16.5 -288t-60.5 -170q-119 -196 -425 -196q-305 0 -425 196q-44 73 -60.5 170.5t-16.5 287.5v701h-144zM644 1596l182 324h196
l-254 -324h-124z" />
    <glyph glyph-name="Ucircumflex" unicode="&#xdb;" horiz-adv-x="1436" vert-adv-y="2457" 
d="M72 1324v151h475v-151h-151v-758q0 -199 49 -295q72 -141 273 -141q200 0 273 141q49 95 49 295v758h-151v151h475v-151h-144v-701q0 -191 -16.5 -288t-60.5 -170q-119 -196 -425 -196q-305 0 -425 196q-44 73 -60.5 170.5t-16.5 287.5v701h-144zM730 1809l-162 -213
h-124l197 324h178l195 -324h-123z" />
    <glyph glyph-name="Udieresis" unicode="&#xdc;" horiz-adv-x="1436" vert-adv-y="2457" 
d="M72 1324v151h475v-151h-151v-758q0 -199 49 -295q72 -141 273 -141q200 0 273 141q49 95 49 295v758h-151v151h475v-151h-144v-701q0 -191 -16.5 -288t-60.5 -170q-119 -196 -425 -196q-305 0 -425 196q-44 73 -60.5 170.5t-16.5 287.5v701h-144zM439 1651v194h177v-194
h-177zM820 1651v194h177v-194h-177z" />
    <glyph glyph-name="Yacute" unicode="&#xdd;" horiz-adv-x="1153" vert-adv-y="2457" 
d="M484 151v520l-372 653h-128v151h482v-151h-147l264 -489l263 489h-145v151h463v-151h-132l-368 -655v-518h181v-151h-542v151h181zM524 1596l182 324h196l-254 -324h-124z" />
    <glyph glyph-name="Thorn" unicode="&#xde;" horiz-adv-x="1238" vert-adv-y="2457" 
d="M226 151v1173h-144v151h467v-151h-143v-143h168q158 0 251 -16.5t167 -57.5q89 -49 137 -142t48 -215q0 -156 -77 -259q-65 -87 -192 -127.5t-333 -40.5h-169v-172h166v-151h-490v151h144zM406 466h176q207 0 301 65q110 75 110 221q0 147 -111 221q-93 62 -297 62h-179
v-569z" />
    <glyph glyph-name="germandbls" unicode="&#xdf;" horiz-adv-x="1301" vert-adv-y="2457" 
d="M225 151v667h-150v151h150v104q0 214 128 329q114 102 312 102q224 0 340 -125q85 -91 85 -230q0 -107 -46.5 -177t-153.5 -124q148 -43 219 -121q108 -120 108 -299q0 -235 -175 -351q-117 -78 -346 -84v152q153 5 229 52q115 71 115 235q0 156 -94 233t-303 91v143
q134 10 193 47q83 52 83 183q0 108 -67.5 169.5t-186.5 61.5q-129 0 -198 -78q-68 -77 -68 -224v-907h120v-151h-444v151h150z" />
    <glyph glyph-name="agrave" unicode="&#xe0;" horiz-adv-x="1175" vert-adv-y="2457" 
d="M792 582v48q0 119 -41 163q-56 60 -217 60q-122 0 -169 -44q-30 -29 -38 -107h-163q5 160 91 228t282 68q262 0 358 -110q41 -47 57.5 -112.5t16.5 -182.5v-442h148v-151h-311v111q-125 -140 -363 -140q-173 0 -270 74q-98 75 -98 232q0 192 146 268q90 47 300 47
q89 0 271 -10zM795 444q-113 12 -266 12q-155 0 -210 -33q-69 -42 -69 -140q0 -83 50 -122q54 -42 173 -42q192 0 280 101q25 28 33.5 57t8.5 86v81zM590 1118l-279 349h196l207 -349h-124z" />
    <glyph glyph-name="aacute" unicode="&#xe1;" horiz-adv-x="1175" vert-adv-y="2457" 
d="M792 582v48q0 119 -41 163q-56 60 -217 60q-122 0 -169 -44q-30 -29 -38 -107h-163q5 160 91 228t282 68q262 0 358 -110q41 -47 57.5 -112.5t16.5 -182.5v-442h148v-151h-311v111q-125 -140 -363 -140q-173 0 -270 74q-98 75 -98 232q0 192 146 268q90 47 300 47
q89 0 271 -10zM795 444q-113 12 -266 12q-155 0 -210 -33q-69 -42 -69 -140q0 -83 50 -122q54 -42 173 -42q192 0 280 101q25 28 33.5 57t8.5 86v81zM460 1118l208 349h195l-279 -349h-124z" />
    <glyph glyph-name="acircumflex" unicode="&#xe2;" horiz-adv-x="1175" vert-adv-y="2457" 
d="M792 582v48q0 119 -41 163q-56 60 -217 60q-122 0 -169 -44q-30 -29 -38 -107h-163q5 160 91 228t282 68q262 0 358 -110q41 -47 57.5 -112.5t16.5 -182.5v-442h148v-151h-311v111q-125 -140 -363 -140q-173 0 -270 74q-98 75 -98 232q0 192 146 268q90 47 300 47
q89 0 271 -10zM795 444q-113 12 -266 12q-155 0 -210 -33q-69 -42 -69 -140q0 -83 50 -122q54 -42 173 -42q192 0 280 101q25 28 33.5 57t8.5 86v81zM560 1356l-174 -238h-124l210 349h177l209 -349h-124z" />
    <glyph glyph-name="atilde" unicode="&#xe3;" horiz-adv-x="1175" vert-adv-y="2457" 
d="M792 582v48q0 119 -41 163q-56 60 -217 60q-122 0 -169 -44q-30 -29 -38 -107h-163q5 160 91 228t282 68q262 0 358 -110q41 -47 57.5 -112.5t16.5 -182.5v-442h148v-151h-311v111q-125 -140 -363 -140q-173 0 -270 74q-98 75 -98 232q0 192 146 268q90 47 300 47
q89 0 271 -10zM795 444q-113 12 -266 12q-155 0 -210 -33q-69 -42 -69 -140q0 -83 50 -122q54 -42 173 -42q192 0 280 101q25 28 33.5 57t8.5 86v81zM368 1171h-108q44 204 192 204q37 0 64 -10.5t109 -56.5q32 -18 54 -18q50 0 84 84h108q-25 -94 -58 -140
q-51 -69 -142 -69q-59 0 -165 61q-39 23 -61 23q-46 0 -77 -78z" />
    <glyph glyph-name="adieresis" unicode="&#xe4;" horiz-adv-x="1175" vert-adv-y="2457" 
d="M792 582v48q0 119 -41 163q-56 60 -217 60q-122 0 -169 -44q-30 -29 -38 -107h-163q5 160 91 228t282 68q262 0 358 -110q41 -47 57.5 -112.5t16.5 -182.5v-442h148v-151h-311v111q-125 -140 -363 -140q-173 0 -270 74q-98 75 -98 232q0 192 146 268q90 47 300 47
q89 0 271 -10zM795 444q-113 12 -266 12q-155 0 -210 -33q-69 -42 -69 -140q0 -83 50 -122q54 -42 173 -42q192 0 280 101q25 28 33.5 57t8.5 86v81zM311 1174v194h177v-194h-177zM659 1174v194h177v-194h-177z" />
    <glyph glyph-name="aring" unicode="&#xe5;" horiz-adv-x="1175" vert-adv-y="2457" 
d="M792 582v48q0 119 -41 163q-56 60 -217 60q-122 0 -169 -44q-30 -29 -38 -107h-163q5 160 91 228t282 68q262 0 358 -110q41 -47 57.5 -112.5t16.5 -182.5v-442h148v-151h-311v111q-125 -140 -363 -140q-173 0 -270 74q-98 75 -98 232q0 192 146 268q90 47 300 47
q89 0 271 -10zM795 444q-113 12 -266 12q-155 0 -210 -33q-69 -42 -69 -140q0 -83 50 -122q54 -42 173 -42q192 0 280 101q25 28 33.5 57t8.5 86v81zM588 1548q106 0 168 -61.5t62 -167.5t-62.5 -167t-171.5 -61q-115 0 -177 69q-56 62 -56 159q0 108 63 168.5t174 60.5z
M582 1448q-56 0 -87 -33.5t-31 -94.5q0 -129 120 -129q121 0 121 128q0 129 -123 129z" />
    <glyph glyph-name="ae" unicode="&#xe6;" horiz-adv-x="1843" vert-adv-y="2457" 
d="M792 582v46q0 107 -45 156q-63 68 -214 68q-107 0 -151.5 -32.5t-54.5 -117.5h-160q7 158 91.5 227t271.5 69q308 0 375 -190q141 190 383 190q197 0 323 -120q154 -145 156 -443h-799q12 -107 50 -168q91 -145 282 -145q96 0 178.5 27.5t183.5 93.5l87 -130
q-211 -143 -442 -143q-278 0 -408 217q-128 -216 -452 -216q-372 0 -372 306q0 192 145 268q90 48 298 48q75 0 274 -11zM795 444q-109 13 -268 13q-153 0 -208 -33q-69 -42 -69 -141q0 -83 50 -122q54 -42 173 -42q200 0 280 99q42 51 42 141v85zM1583 574q-16 94 -59 156
q-86 121 -246 121q-123 0 -202.5 -71.5t-103.5 -205.5h611z" />
    <glyph glyph-name="ccedilla" unicode="&#xe7;" horiz-adv-x="1027" vert-adv-y="2457" 
d="M896 248l94 -121q-159 -145 -396 -155l-37 -66q86 -7 122 -23q96 -45 96 -159q0 -98 -66.5 -150t-191.5 -52q-108 0 -247 39v139q154 -56 249 -56q111 0 111 79q0 40 -30.5 58t-100.5 18q-8 0 -67 -4v93l45 88q-128 18 -211 76q-186 131 -186 422q0 235 123 380
q123 144 333 144q150 0 260 -84v55h137v-332h-148v30q0 80 -40 117q-68 64 -186 64q-150 0 -229 -108q-73 -98 -73 -262q0 -175 94 -272q81 -84 221 -84q177 0 324 126z" />
    <glyph glyph-name="egrave" unicode="&#xe8;" horiz-adv-x="1136" vert-adv-y="2457" 
d="M1060 435h-800q13 -107 51 -168q90 -145 282 -145q95 0 177.5 27.5t184.5 93.5l86 -130q-215 -143 -450 -143q-236 0 -376 147q-136 142 -136 368t134 368q135 145 361 145q184 0 309 -105q175 -147 177 -458zM875 574q-17 98 -59 157q-86 120 -246 120q-176 0 -259 -143
q-32 -56 -47 -134h611zM591 1118l-279 349h196l207 -349h-124z" />
    <glyph glyph-name="eacute" unicode="&#xe9;" horiz-adv-x="1136" vert-adv-y="2457" 
d="M1060 435h-800q13 -107 51 -168q90 -145 282 -145q95 0 177.5 27.5t184.5 93.5l86 -130q-215 -143 -450 -143q-236 0 -376 147q-136 142 -136 368t134 368q135 145 361 145q184 0 309 -105q175 -147 177 -458zM875 574q-17 98 -59 157q-86 120 -246 120q-176 0 -259 -143
q-32 -56 -47 -134h611zM454 1118l208 349h195l-279 -349h-124z" />
    <glyph glyph-name="ecircumflex" unicode="&#xea;" horiz-adv-x="1136" vert-adv-y="2457" 
d="M1060 435h-800q13 -107 51 -168q90 -145 282 -145q95 0 177.5 27.5t184.5 93.5l86 -130q-215 -143 -450 -143q-236 0 -376 147q-136 142 -136 368t134 368q135 145 361 145q184 0 309 -105q175 -147 177 -458zM875 574q-17 98 -59 157q-86 120 -246 120q-176 0 -259 -143
q-32 -56 -47 -134h611zM573 1356l-174 -238h-124l210 349h177l209 -349h-124z" />
    <glyph glyph-name="edieresis" unicode="&#xeb;" horiz-adv-x="1137" vert-adv-y="2457" 
d="M1060 435h-800q13 -107 51 -168q90 -145 282 -145q95 0 177.5 27.5t184.5 93.5l86 -130q-215 -143 -450 -143q-236 0 -376 147q-136 142 -136 368t134 368q135 145 361 145q184 0 309 -105q175 -147 177 -458zM875 574q-17 98 -59 157q-86 120 -246 120q-176 0 -259 -143
q-32 -56 -47 -134h611zM312 1174v194h177v-194h-177zM660 1174v194h177v-194h-177z" />
    <glyph glyph-name="igrave" unicode="&#xec;" horiz-adv-x="606" vert-adv-y="2457" 
d="M231 151v667h-151v151h325v-818h147v-151h-478v151h157zM309 1118l-279 349h196l207 -349h-124z" />
    <glyph glyph-name="iacute" unicode="&#xed;" horiz-adv-x="606" vert-adv-y="2457" 
d="M230 151v667h-151v151h325v-818h147v-151h-478v151h157zM165 1118l208 349h195l-279 -349h-124z" />
    <glyph glyph-name="icircumflex" unicode="&#xee;" horiz-adv-x="606" vert-adv-y="2457" 
d="M231 151v667h-151v151h325v-818h147v-151h-478v151h157zM281 1356l-174 -238h-124l210 349h177l209 -349h-124z" />
    <glyph glyph-name="idieresis" unicode="&#xef;" horiz-adv-x="606" vert-adv-y="2457" 
d="M231 151v667h-151v151h325v-818h146v-151h-478v151h158zM40 1174v194h177v-194h-177zM388 1174v194h177v-194h-177z" />
    <glyph glyph-name="eth" unicode="&#xf0;" horiz-adv-x="1200" vert-adv-y="2457" 
d="M362 1082l-58 83l216 146q-78 72 -154 137l97 94q121 -96 181 -152l227 152l59 -83l-209 -141q400 -395 400 -826q0 -236 -142 -377q-145 -144 -379 -144t-378 144q-142 140 -142 361t142 364q141 142 356 142q99 0 162.5 -28t135.5 -103q-115 226 -279 388zM595 835
q-160 0 -257 -112q-81 -94 -81 -245q0 -149 81 -244q96 -112 262 -112t262 112q81 95 81 247q0 153 -80 242q-100 112 -268 112z" />
    <glyph glyph-name="ntilde" unicode="&#xf1;" horiz-adv-x="1274" vert-adv-y="2457" 
d="M225 151v667h-150v151h324v-156q97 87 140 114q113 71 232 71q180 0 248 -130q28 -53 38.5 -118.5t10.5 -188.5v-410h148v-151h-457v151h135v419q0 121 -20 177q-33 92 -148 92q-79 0 -151.5 -44.5t-175.5 -155.5v-488h140v-151h-464v151h150zM415 1171h-108
q44 204 192 204q37 0 64 -10.5t109 -56.5q32 -18 54 -18q50 0 84 84h108q-25 -94 -58 -140q-51 -69 -142 -69q-59 0 -165 61q-39 23 -61 23q-46 0 -77 -78z" />
    <glyph glyph-name="ograve" unicode="&#xf2;" horiz-adv-x="1201" vert-adv-y="2457" 
d="M607 998q226 0 372 -146q141 -142 141 -368q0 -225 -141 -367q-145 -146 -379 -146t-378 146q-142 142 -142 366q0 231 142 369q148 146 385 146zM595 847q-160 0 -257 -114q-81 -95 -81 -248t81 -249q96 -114 262 -114t262 114q81 96 81 247q0 156 -81 250
q-99 114 -267 114zM613 1118l-279 349h196l207 -349h-124z" />
    <glyph glyph-name="oacute" unicode="&#xf3;" horiz-adv-x="1201" vert-adv-y="2457" 
d="M607 998q226 0 372 -146q141 -142 141 -368q0 -225 -141 -367q-145 -146 -379 -146t-378 146q-142 142 -142 366q0 231 142 369q148 146 385 146zM595 847q-160 0 -257 -114q-81 -95 -81 -248t81 -249q96 -114 262 -114t262 114q81 96 81 247q0 156 -81 250
q-99 114 -267 114zM463 1118l208 349h195l-279 -349h-124z" />
    <glyph glyph-name="ocircumflex" unicode="&#xf4;" horiz-adv-x="1201" vert-adv-y="2457" 
d="M607 998q226 0 372 -146q141 -142 141 -368q0 -225 -141 -367q-145 -146 -379 -146t-378 146q-142 142 -142 366q0 231 142 369q148 146 385 146zM595 847q-160 0 -257 -114q-81 -95 -81 -248t81 -249q96 -114 262 -114t262 114q81 96 81 247q0 156 -81 250
q-99 114 -267 114zM600 1356l-174 -238h-124l210 349h177l209 -349h-124z" />
    <glyph glyph-name="otilde" unicode="&#xf5;" horiz-adv-x="1201" vert-adv-y="2457" 
d="M607 998q226 0 372 -146q141 -142 141 -368q0 -225 -141 -367q-145 -146 -379 -146t-378 146q-142 142 -142 366q0 231 142 369q148 146 385 146zM595 847q-160 0 -257 -114q-81 -95 -81 -248t81 -249q96 -114 262 -114t262 114q81 96 81 247q0 156 -81 250
q-99 114 -267 114zM402 1171h-108q44 204 192 204q37 0 64 -10.5t109 -56.5q32 -18 54 -18q50 0 84 84h108q-25 -94 -58 -140q-51 -69 -142 -69q-59 0 -165 61q-39 23 -61 23q-46 0 -77 -78z" />
    <glyph glyph-name="odieresis" unicode="&#xf6;" horiz-adv-x="1201" vert-adv-y="2457" 
d="M607 998q226 0 372 -146q141 -142 141 -368q0 -225 -141 -367q-145 -146 -379 -146t-378 146q-142 142 -142 366q0 231 142 369q148 146 385 146zM595 847q-160 0 -257 -114q-81 -95 -81 -248t81 -249q96 -114 262 -114t262 114q81 96 81 247q0 156 -81 250
q-99 114 -267 114zM338 1174v194h177v-194h-177zM686 1174v194h177v-194h-177z" />
    <glyph glyph-name="divide" unicode="&#xf7;" vert-adv-y="2457" 
d="M142 661v152h864v-152h-864zM478 994v208h191v-208h-191zM478 275v208h191v-208h-191z" />
    <glyph glyph-name="oslash" unicode="&#xf8;" horiz-adv-x="1201" vert-adv-y="2457" 
d="M219 110q-148 153 -148 377q0 223 142 365q144 146 377 146q156 0 279 -69l79 99h153l-135 -171q146 -150 146 -373q0 -225 -142 -367q-144 -146 -379 -146q-142 0 -274 67l-95 -120h-154zM327 246l441 556q-88 45 -176 45q-166 0 -263 -114q-81 -96 -81 -245
q0 -136 79 -242zM858 721l-441 -555q67 -29 96.5 -36.5t77.5 -7.5q166 0 263 114q81 96 81 245q0 129 -77 240z" />
    <glyph glyph-name="ugrave" unicode="&#xf9;" horiz-adv-x="1215" vert-adv-y="2457" 
d="M206 818h-148v151h322v-570q0 -118 15 -168q27 -88 128 -88q74 0 141 40.5t168 146.5v488h-140v151h314v-818h150v-151h-324v156q-95 -83 -133 -106q-108 -66 -221 -66q-165 0 -227 126q-26 52 -35.5 114.5t-9.5 183.5v410zM598 1118l-279 349h196l207 -349h-124z" />
    <glyph glyph-name="uacute" unicode="&#xfa;" horiz-adv-x="1215" vert-adv-y="2457" 
d="M206 818h-148v151h322v-570q0 -118 15 -168q27 -88 128 -88q74 0 141 40.5t168 146.5v488h-140v151h314v-818h150v-151h-324v156q-95 -83 -133 -106q-108 -66 -221 -66q-165 0 -227 126q-26 52 -35.5 114.5t-9.5 183.5v410zM470 1118l208 349h195l-279 -349h-124z" />
    <glyph glyph-name="ucircumflex" unicode="&#xfb;" horiz-adv-x="1215" vert-adv-y="2457" 
d="M206 818h-148v151h322v-570q0 -118 15 -168q27 -88 128 -88q74 0 141 40.5t168 146.5v488h-140v151h314v-818h150v-151h-324v156q-95 -83 -133 -106q-108 -66 -221 -66q-165 0 -227 126q-26 52 -35.5 114.5t-9.5 183.5v410zM584 1356l-174 -238h-124l210 349h177
l209 -349h-124z" />
    <glyph glyph-name="udieresis" unicode="&#xfc;" horiz-adv-x="1215" vert-adv-y="2457" 
d="M206 818h-148v151h322v-570q0 -118 15 -168q27 -88 128 -88q74 0 141 40.5t168 146.5v488h-140v151h314v-818h150v-151h-324v156q-95 -83 -133 -106q-108 -66 -221 -66q-165 0 -227 126q-26 52 -35.5 114.5t-9.5 183.5v410zM327 1174v194h177v-194h-177zM675 1174v194
h177v-194h-177z" />
    <glyph glyph-name="yacute" unicode="&#xfd;" horiz-adv-x="1076" vert-adv-y="2457" 
d="M111 818h-103v151h460v-151h-175l210 -461q3 -7 48 -119q25 69 54 137l185 443h-169v151h455v-151h-109l-421 -965q-72 -163 -142 -216q-44 -33 -97 -45.5t-152 -13.5v151q104 1 148.5 31t85.5 128l73 173zM470 1118l208 349h195l-279 -349h-124z" />
    <glyph glyph-name="thorn" unicode="&#xfe;" horiz-adv-x="1295" vert-adv-y="2457" 
d="M207 -271l1 1595h-151v151h325v-647l23 23q76 77 129 102q93 45 207 45q213 0 345 -146q128 -140 128 -367q0 -228 -128 -368q-132 -146 -347 -146q-111 0 -185.5 35.5t-172.5 134.5v-412h165v-151h-487v151h148zM709 847q-150 0 -245 -114q-83 -100 -83 -249
q0 -147 83 -248q94 -114 249 -114q156 0 247 113q77 96 77 249q0 165 -88 262q-91 101 -240 101z" />
    <glyph glyph-name="ydieresis" unicode="&#xff;" horiz-adv-x="1076" vert-adv-y="2457" 
d="M111 818h-103v151h460v-151h-175l210 -461q3 -7 48 -119q25 69 54 137l185 443h-169v151h455v-151h-109l-421 -965q-72 -163 -142 -216q-44 -33 -97 -45.5t-152 -13.5v151q104 1 148.5 31t85.5 128l73 173zM294 1174v194h177v-194h-177zM642 1174v194h177v-194h-177z" />
    <glyph glyph-name="Amacron" unicode="&#x100;" horiz-adv-x="1460" vert-adv-y="2457" 
d="M1043 434h-633l-104 -283h161v-151h-467v151h122l504 1324h198l510 -1324h126v-151h-473v151h162zM987 582l-264 714l-258 -714h522zM454 1680v138h530v-138h-530z" />
    <glyph glyph-name="amacron" unicode="&#x101;" horiz-adv-x="1175" vert-adv-y="2457" 
d="M792 582v48q0 119 -41 163q-56 60 -217 60q-122 0 -169 -44q-30 -29 -38 -107h-163q5 160 91 228t282 68q262 0 358 -110q41 -47 57.5 -112.5t16.5 -182.5v-442h148v-151h-311v111q-125 -140 -363 -140q-173 0 -270 74q-98 75 -98 232q0 192 146 268q90 47 300 47
q89 0 271 -10zM795 444q-113 12 -266 12q-155 0 -210 -33q-69 -42 -69 -140q0 -83 50 -122q54 -42 173 -42q192 0 280 101q25 28 33.5 57t8.5 86v81zM323 1203v138h530v-138h-530z" />
    <glyph glyph-name="Abreve" unicode="&#x102;" horiz-adv-x="1460" vert-adv-y="2457" 
d="M1043 434h-633l-104 -283h161v-151h-467v151h122l504 1324h198l510 -1324h126v-151h-473v151h162zM987 582l-264 714l-258 -714h522zM442 1904h103q6 -75 40 -108q46 -46 144 -46q91 0 133 35t49 119h104q-13 -137 -69 -204q-68 -81 -216 -81q-166 0 -233 99
q-45 66 -55 186z" />
    <glyph glyph-name="abreve" unicode="&#x103;" horiz-adv-x="1175" vert-adv-y="2457" 
d="M792 582v48q0 119 -41 163q-56 60 -217 60q-122 0 -169 -44q-30 -29 -38 -107h-163q5 160 91 228t282 68q262 0 358 -110q41 -47 57.5 -112.5t16.5 -182.5v-442h148v-151h-311v111q-125 -140 -363 -140q-173 0 -270 74q-98 75 -98 232q0 192 146 268q90 47 300 47
q89 0 271 -10zM795 444q-113 12 -266 12q-155 0 -210 -33q-69 -42 -69 -140q0 -83 50 -122q54 -42 173 -42q192 0 280 101q25 28 33.5 57t8.5 86v81zM289 1427h103q6 -75 40 -108q46 -46 144 -46q91 0 133 35.5t49 118.5h104q-13 -137 -69 -203q-68 -81 -216 -81
q-166 0 -233 99q-45 65 -55 185z" />
    <glyph glyph-name="Aogonek" unicode="&#x104;" horiz-adv-x="1460" vert-adv-y="2457" 
d="M1043 434h-633l-104 -283h161v-151h-467v151h122l504 1324h198l510 -1324h126v-151q-99 -76 -138 -128t-39 -107q0 -82 92 -82h84v-122h-83q-238 0 -238 174q0 69 40.5 124.5t150.5 140.5h-342v151h162zM987 582l-264 714l-258 -714h522z" />
    <glyph glyph-name="aogonek" unicode="&#x105;" horiz-adv-x="1175" vert-adv-y="2457" 
d="M792 582v48q0 119 -41 163q-56 60 -217 60q-122 0 -169 -44q-30 -29 -38 -107h-163q5 160 91 228t282 68q262 0 358 -110q41 -47 57.5 -112.5t16.5 -182.5v-442h148v-151q-97 -76 -136 -128t-39 -107q0 -82 91 -82h83v-122h-82q-122 0 -179.5 42.5t-57.5 131.5
q0 69 40 125t150 140h-181v111q-125 -140 -363 -140q-368 0 -368 306q0 192 146 268q90 47 300 47q89 0 271 -10zM795 444q-113 12 -266 12q-155 0 -210 -33q-69 -42 -69 -140q0 -83 50 -122q54 -42 173 -42q192 0 280 101q25 28 33.5 57t8.5 86v81z" />
    <glyph glyph-name="Cacute" unicode="&#x106;" horiz-adv-x="1476" vert-adv-y="2457" 
d="M1263 348l114 -121q-96 -116 -204 -173q-160 -85 -374 -85q-361 0 -542 221q-165 200 -165 532q0 359 194 575q186 209 503 209q240 0 396 -115v84h148v-431h-156v27q0 101 -49 157t-138 87.5t-198 31.5q-254 0 -391 -186q-125 -170 -125 -438q0 -272 141 -437
q132 -156 386 -156q179 0 316 86q51 33 144 132zM692 1596l182 324h196l-254 -324h-124z" />
    <glyph glyph-name="cacute" unicode="&#x107;" horiz-adv-x="1027" vert-adv-y="2457" 
d="M897 248l93 -121q-170 -156 -431 -156q-218 0 -344 124q-135 134 -135 379q0 237 123 380q124 144 333 144q150 0 260 -84v55h137v-332h-148v30q0 80 -40 117q-67 64 -186 64q-150 0 -229 -107q-73 -99 -73 -262q0 -176 94 -272q81 -84 221 -84q177 0 325 125zM452 1118
l208 349h195l-279 -349h-124z" />
    <glyph glyph-name="Ccircumflex" unicode="&#x108;" horiz-adv-x="1476" vert-adv-y="2457" 
d="M1263 348l114 -121q-96 -116 -204 -173q-160 -85 -374 -85q-361 0 -542 221q-165 200 -165 532q0 359 194 575q186 209 503 209q240 0 396 -115v84h148v-431h-156v27q0 101 -49 157t-138 87.5t-198 31.5q-254 0 -391 -186q-125 -170 -125 -438q0 -272 141 -437
q132 -156 386 -156q179 0 316 86q51 33 144 132zM790 1809l-162 -213h-124l197 324h178l195 -324h-123z" />
    <glyph glyph-name="ccircumflex" unicode="&#x109;" horiz-adv-x="1027" vert-adv-y="2457" 
d="M897 248l93 -121q-170 -156 -431 -156q-218 0 -344 124q-135 134 -135 379q0 237 123 380q124 144 333 144q150 0 260 -84v55h137v-332h-148v30q0 80 -40 117q-67 64 -186 64q-150 0 -229 -107q-73 -99 -73 -262q0 -176 94 -272q81 -84 221 -84q177 0 325 125zM557 1356
l-174 -238h-124l210 349h177l209 -349h-124z" />
    <glyph glyph-name="Cdotaccent" unicode="&#x10a;" horiz-adv-x="1476" vert-adv-y="2457" 
d="M1263 348l114 -121q-96 -116 -204 -173q-160 -85 -374 -85q-361 0 -542 221q-165 200 -165 532q0 359 194 575q186 209 503 209q240 0 396 -115v84h148v-431h-156v27q0 101 -49 157t-138 87.5t-198 31.5q-254 0 -391 -186q-125 -170 -125 -438q0 -272 141 -437
q132 -156 386 -156q179 0 316 86q51 33 144 132zM703 1646v204h199v-204h-199z" />
    <glyph glyph-name="cdotaccent" unicode="&#x10b;" horiz-adv-x="1027" vert-adv-y="2457" 
d="M897 248l93 -121q-170 -156 -431 -156q-218 0 -344 124q-135 134 -135 379q0 237 123 380q124 144 333 144q150 0 260 -84v55h137v-332h-148v30q0 80 -40 117q-67 64 -186 64q-150 0 -229 -107q-73 -99 -73 -262q0 -176 94 -272q81 -84 221 -84q177 0 325 125zM457 1168
v204h199v-204h-199z" />
    <glyph glyph-name="Ccaron" unicode="&#x10c;" horiz-adv-x="1476" vert-adv-y="2457" 
d="M1263 348l114 -121q-96 -116 -204 -173q-160 -85 -374 -85q-361 0 -542 221q-165 200 -165 532q0 359 194 575q186 209 503 209q240 0 396 -115v84h148v-431h-156v27q0 101 -49 157t-138 87.5t-198 31.5q-254 0 -391 -186q-125 -170 -125 -438q0 -272 141 -437
q132 -156 386 -156q179 0 316 86q51 33 144 132zM809 1707l161 213h124l-197 -324h-177l-196 324h122z" />
    <glyph glyph-name="ccaron" unicode="&#x10d;" horiz-adv-x="1027" vert-adv-y="2457" 
d="M897 248l93 -121q-170 -156 -431 -156q-218 0 -344 124q-135 134 -135 379q0 237 123 380q124 144 333 144q150 0 260 -84v55h137v-332h-148v30q0 80 -40 117q-67 64 -186 64q-150 0 -229 -107q-73 -99 -73 -262q0 -176 94 -272q81 -84 221 -84q177 0 325 125zM567 1229
l174 238h124l-209 -349h-177l-210 349h124z" />
    <glyph glyph-name="Dcaron" unicode="&#x10e;" horiz-adv-x="1496" vert-adv-y="2457" 
d="M226 151v1173h-144v151h531q348 0 553 -168q237 -195 237 -569q0 -375 -237 -570q-205 -168 -553 -168h-531v151h144zM406 151h195q272 0 432 130q186 151 186 456t-185 457q-160 130 -433 130h-195v-1173zM641 1707l161 213h124l-197 -324h-177l-196 324h122z" />
    <glyph glyph-name="dcaron" unicode="&#x10f;" horiz-adv-x="1497" vert-adv-y="2457" 
d="M900 0v151q-50 -58 -79 -83q-113 -97 -280 -97q-208 0 -337 146q-124 141 -124 368t124 367q129 146 337 146q111 0 192.5 -40t154.5 -130v496h-170v151h344v-1324h148v-151h-310zM563 847q-135 0 -222 -101q-84 -98 -84 -261q0 -153 74 -250q87 -113 237 -113
q151 0 240 114q80 102 80 247q0 163 -90 263.5t-235 100.5zM1233 1030l110 445h195l-173 -445h-132z" />
    <glyph glyph-name="Dcroat" unicode="&#x110;" horiz-adv-x="1468" vert-adv-y="2457" 
d="M227 151v560h-217v137h217v476h-145v151h503q348 0 553 -168q237 -196 237 -570t-237 -569q-205 -168 -553 -168h-503v151h145zM407 151h167q271 0 431 130q186 151 186 456t-185 457q-160 130 -432 130h-167v-476h401v-137h-401v-560z" />
    <glyph glyph-name="dcroat" unicode="&#x111;" horiz-adv-x="1274" vert-adv-y="2457" 
d="M888 1115h-314v103h314v122h-170v135h344v-257h148v-103h-148v-964h148v-151h-310v151q-51 -59 -79 -83q-113 -97 -280 -97q-208 0 -337 146q-124 141 -124 368t124 367q129 146 337 146q112 0 192.5 -39.5t154.5 -130.5v287zM563 847q-135 0 -222 -101q-84 -98 -84 -261
q0 -153 74 -250q87 -113 237 -113q151 0 240 114q80 102 80 247q0 163 -90 263.5t-235 100.5z" />
    <glyph glyph-name="Emacron" unicode="&#x112;" horiz-adv-x="1211" vert-adv-y="2457" 
d="M226 151v1173h-144v151h1022v-359h-156v208h-542v-482h486v-151h-486v-540h552v249h156v-400h-1032v151h144zM354 1680v138h530v-138h-530z" />
    <glyph glyph-name="emacron" unicode="&#x113;" horiz-adv-x="1136" vert-adv-y="2457" 
d="M1060 435h-800q13 -107 51 -168q90 -145 282 -145q95 0 177.5 27.5t184.5 93.5l86 -130q-215 -143 -450 -143q-236 0 -376 147q-136 142 -136 368t134 368q135 145 361 145q184 0 309 -105q175 -147 177 -458zM875 574q-17 98 -59 157q-86 120 -246 120q-176 0 -259 -143
q-32 -56 -47 -134h611zM315 1203v138h530v-138h-530z" />
    <glyph glyph-name="Ebreve" unicode="&#x114;" horiz-adv-x="1211" vert-adv-y="2457" 
d="M226 151v1173h-144v151h1022v-359h-156v208h-542v-482h486v-151h-486v-540h552v249h156v-400h-1032v151h144zM348 1904h103q6 -75 40 -108q46 -46 144 -46q91 0 133 35t49 119h104q-13 -137 -69 -204q-68 -81 -216 -81q-166 0 -233 99q-45 66 -55 186z" />
    <glyph glyph-name="ebreve" unicode="&#x115;" horiz-adv-x="1136" vert-adv-y="2457" 
d="M1060 435h-800q13 -107 51 -168q90 -145 282 -145q95 0 177.5 27.5t184.5 93.5l86 -130q-215 -143 -450 -143q-236 0 -376 147q-136 142 -136 368t134 368q135 145 361 145q184 0 309 -105q175 -147 177 -458zM875 574q-17 98 -59 157q-86 120 -246 120q-176 0 -259 -143
q-32 -56 -47 -134h611zM292 1427h103q6 -75 40 -108q46 -46 144 -46q91 0 133 35.5t49 118.5h104q-13 -137 -69 -203q-68 -81 -216 -81q-166 0 -233 99q-45 65 -55 185z" />
    <glyph glyph-name="Edotaccent" unicode="&#x116;" horiz-adv-x="1211" vert-adv-y="2457" 
d="M226 151v1173h-144v151h1022v-359h-156v208h-542v-482h486v-151h-486v-540h552v249h156v-400h-1032v151h144zM553 1646v204h199v-204h-199z" />
    <glyph glyph-name="edotaccent" unicode="&#x117;" horiz-adv-x="1136" vert-adv-y="2457" 
d="M1060 435h-800q13 -107 51 -168q90 -145 282 -145q95 0 177.5 27.5t184.5 93.5l86 -130q-215 -143 -450 -143q-236 0 -376 147q-136 142 -136 368t134 368q135 145 361 145q184 0 309 -105q175 -147 177 -458zM875 574q-17 98 -59 157q-86 120 -246 120q-176 0 -259 -143
q-32 -56 -47 -134h611zM476 1168v204h199v-204h-199z" />
    <glyph glyph-name="Eogonek" unicode="&#x118;" horiz-adv-x="1211" vert-adv-y="2457" 
d="M226 151v1173h-144v151h1022v-359h-156v208h-542v-482h486v-151h-486v-540h552v249h156v-400q-103 -81 -139.5 -130t-36.5 -106q0 -81 91 -81h84v-122h-83q-237 0 -237 174q0 67 43 127.5t147 137.5h-901v151h144z" />
    <glyph glyph-name="eogonek" unicode="&#x119;" horiz-adv-x="1136" vert-adv-y="2457" 
d="M1060 435h-799q12 -107 50 -168q90 -145 282 -145q96 0 178.5 27.5t183.5 93.5l87 -130q-166 -114 -372 -138q-78 -63 -111 -111t-33 -99q0 -43 21.5 -62.5t70.5 -19.5h83v-122h-82q-238 0 -238 174q0 114 154 238q-149 12 -258 90q-198 143 -198 422q0 226 134 368
q135 145 361 145q185 0 310 -105q175 -147 176 -458zM876 574q-17 98 -60 157q-86 120 -245 120q-176 0 -260 -143q-32 -56 -46 -134h611z" />
    <glyph glyph-name="Ecaron" unicode="&#x11a;" horiz-adv-x="1211" vert-adv-y="2457" 
d="M226 151v1173h-144v151h1022v-359h-156v208h-542v-482h486v-151h-486v-540h552v249h156v-400h-1032v151h144zM639 1707l161 213h124l-197 -324h-177l-196 324h122z" />
    <glyph glyph-name="ecaron" unicode="&#x11b;" horiz-adv-x="1136" vert-adv-y="2457" 
d="M1060 435h-800q13 -107 51 -168q90 -145 282 -145q95 0 177.5 27.5t184.5 93.5l86 -130q-215 -143 -450 -143q-236 0 -376 147q-136 142 -136 368t134 368q135 145 361 145q184 0 309 -105q175 -147 177 -458zM875 574q-17 98 -59 157q-86 120 -246 120q-176 0 -259 -143
q-32 -56 -47 -134h611zM575 1229l174 238h124l-209 -349h-177l-210 349h124z" />
    <glyph glyph-name="Gcircumflex" unicode="&#x11c;" horiz-adv-x="1663" vert-adv-y="2457" 
d="M806 571v151h676v-663q-262 -90 -594 -90q-263 0 -437 94q-178 97 -270 275q-89 170 -89 392q0 376 254 599q199 176 515 176q260 0 423 -114v84h148v-431h-156v27q0 99 -50 155q-51 58 -144 89.5t-211 31.5q-275 0 -434 -170q-161 -171 -161 -445q0 -281 171 -450
q157 -155 453 -155q205 0 414 66v378h-508zM876 1809l-162 -213h-124l197 324h178l195 -324h-123z" />
    <glyph glyph-name="gcircumflex" unicode="&#x11d;" horiz-adv-x="1273" vert-adv-y="2457" 
d="M888 154q-46 -52 -77 -77q-109 -88 -269 -88q-209 0 -338 142q-124 137 -124 358t121 361q129 148 342 148q116 0 197.5 -41t159.5 -139v151h324v-151h-162v-723q0 -252 -72 -367q-112 -180 -415 -180q-214 0 -312 73.5t-105 239.5h164q8 -75 44 -111q57 -56 213 -56
q193 0 261 120q27 47 37.5 105t10.5 162v73zM563 847q-135 0 -222 -100q-84 -96 -84 -257q0 -148 74 -241q87 -109 237 -109t240 108q80 96 80 238q0 161 -90.5 261t-234.5 100zM621 1356l-174 -238h-124l210 349h177l209 -349h-124z" />
    <glyph glyph-name="Gbreve" unicode="&#x11e;" horiz-adv-x="1663" vert-adv-y="2457" 
d="M806 571v151h676v-663q-262 -90 -594 -90q-263 0 -437 94q-178 97 -270 275q-89 170 -89 392q0 376 254 599q199 176 515 176q260 0 423 -114v84h148v-431h-156v27q0 99 -50 155q-51 58 -144 89.5t-211 31.5q-275 0 -434 -170q-161 -171 -161 -445q0 -281 171 -450
q157 -155 453 -155q205 0 414 66v378h-508zM579 1904h103q6 -75 40 -108q46 -46 144 -46q91 0 133 35t49 119h104q-13 -137 -69 -204q-68 -81 -216 -81q-166 0 -233 99q-45 66 -55 186z" />
    <glyph glyph-name="gbreve" unicode="&#x11f;" horiz-adv-x="1273" vert-adv-y="2457" 
d="M888 154q-46 -52 -77 -77q-109 -88 -269 -88q-209 0 -338 142q-124 137 -124 358t121 361q129 148 342 148q116 0 197.5 -41t159.5 -139v151h324v-151h-162v-723q0 -252 -72 -367q-112 -180 -415 -180q-214 0 -312 73.5t-105 239.5h164q8 -75 44 -111q57 -56 213 -56
q193 0 261 120q27 47 37.5 105t10.5 162v73zM563 847q-135 0 -222 -100q-84 -96 -84 -257q0 -148 74 -241q87 -109 237 -109t240 108q80 96 80 238q0 161 -90.5 261t-234.5 100zM356 1427h103q6 -75 40 -108q46 -46 144 -46q91 0 133 35.5t49 118.5h104q-13 -137 -69 -203
q-68 -81 -216 -81q-166 0 -233 99q-45 65 -55 185z" />
    <glyph glyph-name="Gdotaccent" unicode="&#x120;" horiz-adv-x="1663" vert-adv-y="2457" 
d="M806 571v151h676v-663q-262 -90 -594 -90q-263 0 -437 94q-178 97 -270 275q-89 170 -89 392q0 376 254 599q199 176 515 176q260 0 423 -114v84h148v-431h-156v27q0 99 -50 155q-51 58 -144 89.5t-211 31.5q-275 0 -434 -170q-161 -171 -161 -445q0 -281 171 -450
q157 -155 453 -155q205 0 414 66v378h-508zM767 1646v204h199v-204h-199z" />
    <glyph glyph-name="gdotaccent" unicode="&#x121;" horiz-adv-x="1273" vert-adv-y="2457" 
d="M888 154q-46 -52 -77 -77q-109 -88 -269 -88q-209 0 -338 142q-124 137 -124 358t121 361q129 148 342 148q116 0 197.5 -41t159.5 -139v151h324v-151h-162v-723q0 -252 -72 -367q-112 -180 -415 -180q-214 0 -312 73.5t-105 239.5h164q8 -75 44 -111q57 -56 213 -56
q193 0 261 120q27 47 37.5 105t10.5 162v73zM563 847q-135 0 -222 -100q-84 -96 -84 -257q0 -148 74 -241q87 -109 237 -109t240 108q80 96 80 238q0 161 -90.5 261t-234.5 100zM539 1168v204h199v-204h-199z" />
    <glyph glyph-name="Gcommaaccent" unicode="&#x122;" horiz-adv-x="1663" vert-adv-y="2457" 
d="M806 571v151h676v-663q-262 -90 -594 -90q-263 0 -437 94q-178 97 -270 275q-89 170 -89 392q0 376 254 599q199 176 515 176q260 0 423 -114v84h148v-431h-156v27q0 99 -50 155q-51 58 -144 89.5t-211 31.5q-275 0 -434 -170q-161 -171 -161 -445q0 -281 171 -450
q157 -155 453 -155q205 0 414 66v378h-508zM619 -476l165 349h195l-236 -349h-124z" />
    <glyph glyph-name="gcommaaccent" unicode="&#x123;" horiz-adv-x="1273" vert-adv-y="2457" 
d="M888 154q-46 -52 -77 -77q-109 -88 -269 -88q-209 0 -338 142q-124 137 -124 358t121 361q129 148 342 148q116 0 197.5 -41t159.5 -139v151h324v-151h-162v-723q0 -252 -72 -367q-112 -180 -415 -180q-214 0 -312 73.5t-105 239.5h164q8 -75 44 -111q57 -56 213 -56
q193 0 261 120q27 47 37.5 105t10.5 162v73zM563 847q-135 0 -222 -100q-84 -96 -84 -257q0 -148 74 -241q87 -109 237 -109t240 108q80 96 80 238q0 161 -90.5 261t-234.5 100zM893 1467l-207 -349h-196l279 349h124z" />
    <glyph glyph-name="Hcircumflex" unicode="&#x124;" horiz-adv-x="1473" vert-adv-y="2457" 
d="M226 151v1173h-144v151h475v-151h-151v-473h660v473h-151v151h475v-151h-144v-1173h144v-151h-475v151h151v549h-660v-549h151v-151h-475v151h144zM736 1809l-162 -213h-124l197 324h178l195 -324h-123z" />
    <glyph glyph-name="hcircumflex" unicode="&#x125;" horiz-adv-x="1267" vert-adv-y="2457" 
d="M219 151v1173h-150v151h324v-659q109 102 190.5 142t180.5 40q179 0 248 -130q28 -52 38.5 -118t10.5 -189v-410h148v-151h-457v151h135v419q0 121 -20 177q-33 92 -148 92q-79 0 -148.5 -42.5t-177.5 -156.5v-489h140v-151h-464v151h150zM293 1809l-162 -213h-124
l197 324h178l195 -324h-123z" />
    <glyph glyph-name="Hbar" unicode="&#x126;" horiz-adv-x="1473" vert-adv-y="2457" 
d="M82 0v151h144v871h-144v110h144v192h-144v151h475v-151h-151v-192h660v192h-151v151h475v-151h-144v-192h144v-110h-144v-871h144v-151h-475v151h151v550h-660v-550h151v-151h-475zM406 840h660v182h-660v-182z" />
    <glyph glyph-name="hbar" unicode="&#x127;" horiz-adv-x="1267" vert-adv-y="2457" 
d="M218 1115h-150v103h150v122h-150v135h324v-257h312v-103h-312v-299q110 102 191 142t180 40q179 0 248 -130q28 -52 38.5 -118t10.5 -189v-410h148v-151h-457v151h135v419q0 121 -20 177q-32 92 -148 92q-79 0 -148.5 -42.5t-177.5 -156.5v-489h140v-151h-464v151h150
v964z" />
    <glyph glyph-name="Itilde" unicode="&#x128;" horiz-adv-x="639" vert-adv-y="2457" 
d="M229 151v1173h-144v151h469v-151h-145v-1173h145v-151h-469v151h144zM126 1648h-113q46 205 200 205q57 0 139 -45q73 -40 97 -40q52 0 87 84h114q-26 -93 -62 -140q-53 -70 -146 -70q-63 0 -173 62q-41 23 -63 23q-49 0 -80 -79z" />
    <glyph glyph-name="itilde" unicode="&#x129;" horiz-adv-x="606" vert-adv-y="2457" 
d="M230 151v667h-151v151h325v-818h147v-151h-478v151h157zM104 1171h-108q44 204 192 204q37 0 64 -10.5t109 -56.5q32 -18 54 -18q50 0 84 84h108q-25 -94 -58 -140q-51 -69 -142 -69q-59 0 -165 61q-39 23 -61 23q-46 0 -77 -78z" />
    <glyph glyph-name="Imacron" unicode="&#x12a;" horiz-adv-x="639" vert-adv-y="2457" 
d="M229 151v1173h-144v151h469v-151h-145v-1173h145v-151h-469v151h144zM54 1680v138h530v-138h-530z" />
    <glyph glyph-name="imacron" unicode="&#x12b;" horiz-adv-x="606" vert-adv-y="2457" 
d="M231 151v667h-151v151h325v-818h147v-151h-478v151h157zM13 1203v138h530v-138h-530z" />
    <glyph glyph-name="Ibreve" unicode="&#x12c;" horiz-adv-x="639" vert-adv-y="2457" 
d="M229 151v1173h-144v151h469v-151h-145v-1173h145v-151h-469v151h144zM33 1904h103q6 -75 40 -108q46 -46 144 -46q91 0 133 35t49 119h104q-13 -137 -69 -204q-68 -81 -216 -81q-166 0 -233 99q-45 66 -55 186z" />
    <glyph glyph-name="ibreve" unicode="&#x12d;" horiz-adv-x="606" vert-adv-y="2457" 
d="M230 151v667h-151v151h325v-818h147v-151h-478v151h157zM2 1427h103q6 -75 40 -108q46 -46 144 -46q91 0 133 35.5t49 118.5h104q-13 -137 -69 -203q-68 -81 -216 -81q-166 0 -233 99q-45 65 -55 185z" />
    <glyph glyph-name="Iogonek" unicode="&#x12e;" horiz-adv-x="639" vert-adv-y="2457" 
d="M229 151v1173h-144v151h469v-151h-145v-1173h145v-151q-101 -78 -139 -128.5t-38 -106.5q0 -43 22 -62.5t70 -19.5h84v-122h-83q-238 0 -238 174q0 69 40.5 125t150.5 140h-338v151h144z" />
    <glyph glyph-name="iogonek" unicode="&#x12f;" horiz-adv-x="606" vert-adv-y="2457" 
d="M230 151v667h-151v151h325v-818h147v-151q-100 -77 -138.5 -128t-38.5 -108q0 -81 92 -81h84v-122h-83q-238 0 -238 174q0 69 40.5 125.5t150.5 139.5h-347v151h157zM216 1168v204h199v-204h-199z" />
    <glyph glyph-name="Idotaccent" unicode="&#x130;" horiz-adv-x="639" vert-adv-y="2457" 
d="M229 151v1173h-144v151h469v-151h-145v-1173h145v-151h-469v151h144zM220 1646v204h199v-204h-199z" />
    <glyph glyph-name="dotlessi" unicode="&#x131;" horiz-adv-x="606" vert-adv-y="2457" 
d="M230 151v667h-151v151h325v-818h147v-151h-478v151h157z" />
    <glyph glyph-name="IJ" unicode="&#x132;" horiz-adv-x="1272" vert-adv-y="2457" 
d="M229 151v1173h-144v151h469v-151h-145v-1173h145v-151h-469v151h144zM869 1324h-151v151h475v-151h-144v-1189q0 -136 -19.5 -211t-69.5 -128q-82 -88 -278 -96v151q109 9 146 58q24 33 32.5 78t8.5 137v1200z" />
    <glyph glyph-name="ij" unicode="&#x133;" horiz-adv-x="1187" vert-adv-y="2457" 
d="M230 151v667h-151v151h325v-818h147v-151h-478v151h157zM216 1164v204h199v-204h-199zM674 818v151h327v-1002q0 -122 -19 -189t-66 -114q-79 -78 -260 -86v151q99 8 134 52q22 28 29.5 65t7.5 116v856h-153zM814 1164v204h199v-204h-199z" />
    <glyph glyph-name="Jcircumflex" unicode="&#x134;" horiz-adv-x="634" vert-adv-y="2457" 
d="M228 1324h-151v151h475v-151h-144v-1189q0 -136 -19.5 -211t-69.5 -128q-82 -88 -278 -96v151q109 9 146 58q24 33 32.5 78t8.5 137v1200zM315 1809l-162 -213h-124l197 324h178l195 -324h-123z" />
    <glyph glyph-name="jcircumflex" unicode="&#x135;" horiz-adv-x="581" vert-adv-y="2457" 
d="M68 818v151h327v-1002q0 -122 -19 -189t-66 -114q-79 -78 -260 -86v151q99 8 134 52q22 28 29.5 65t7.5 116v856h-153zM266 1356l-174 -238h-124l210 349h177l209 -349h-124z" />
    <glyph glyph-name="Kcommaaccent" unicode="&#x136;" horiz-adv-x="1264" vert-adv-y="2457" 
d="M226 151v1173h-144v151h461v-151h-137v-533l490 533h-129v151h444v-151h-107l-501 -540l528 -633h139v-151h-485v151h131l-510 610v-610h131v-151h-455v151h144zM407 -476l165 349h195l-236 -349h-124z" />
    <glyph glyph-name="kcommaaccent" unicode="&#x137;" horiz-adv-x="1085" vert-adv-y="2457" 
d="M216 151v1173h-151v151h325v-913l320 267h-122v140h437v-149h-113l-320 -272l397 -397h109v-151h-424v143h111l-395 401v-401h127v-143h-452v151h151zM341 -476l165 349h195l-236 -349h-124z" />
    <glyph glyph-name="kgreenlandic" unicode="&#x138;" horiz-adv-x="1085" vert-adv-y="2457" 
d="M216 151v667h-151v151h325v-408l320 268h-122v140h437v-149h-113l-320 -272l397 -397h109v-151h-424v143h111l-395 401v-401h127v-143h-452v151h151z" />
    <glyph glyph-name="Lacute" unicode="&#x139;" horiz-adv-x="1151" vert-adv-y="2457" 
d="M226 151v1173h-144v151h484v-151h-160v-1173h516v261h156v-412h-996v151h144zM282 1596l182 324h196l-254 -324h-124z" />
    <glyph glyph-name="lacute" unicode="&#x13a;" horiz-adv-x="603" vert-adv-y="2457" 
d="M226 151v1173h-151v151h325v-1324h147v-151h-478v151h157zM193 1596l183 324h195l-254 -324h-124z" />
    <glyph glyph-name="Lcommaaccent" unicode="&#x13b;" horiz-adv-x="1151" vert-adv-y="2457" 
d="M226 151v1173h-144v151h484v-151h-160v-1173h516v261h156v-412h-996v151h144zM351 -476l165 349h195l-236 -349h-124z" />
    <glyph glyph-name="lcommaaccent" unicode="&#x13c;" horiz-adv-x="603" vert-adv-y="2457" 
d="M220 151v1173h-151v151h325v-1324h147v-151h-478v151h157zM62 -476l165 349h195l-236 -349h-124z" />
    <glyph glyph-name="Lcaron" unicode="&#x13d;" horiz-adv-x="1151" vert-adv-y="2457" 
d="M226 151v1173h-144v151h484v-151h-160v-1173h516v261h156v-412h-996v151h144zM661 1030l110 445h195l-173 -445h-132z" />
    <glyph glyph-name="lcaron" unicode="&#x13e;" horiz-adv-x="826" vert-adv-y="2457" 
d="M226 151v1173h-151v151h325v-1324h147v-151h-478v151h157zM562 1030l110 445h195l-173 -445h-132z" />
    <glyph glyph-name="Ldot" unicode="&#x13f;" horiz-adv-x="1151" vert-adv-y="2457" 
d="M226 151v1173h-144v151h484v-151h-160v-1173h516v261h156v-412h-996v151h144zM785 676v221h204v-221h-204z" />
    <glyph glyph-name="ldot" unicode="&#x140;" horiz-adv-x="822" vert-adv-y="2457" 
d="M226 151v1173h-151v151h325v-1324h147v-151h-478v151h157zM622 500v221h204v-221h-204z" />
    <glyph glyph-name="Lslash" unicode="&#x141;" horiz-adv-x="1151" vert-adv-y="2457" 
d="M226 151v420l-206 -135v164l206 135v589h-144v151h484v-151h-160v-474l291 189v-164l-291 -189v-535h517v261h156v-412h-997v151h144z" />
    <glyph glyph-name="lslash" unicode="&#x142;" horiz-adv-x="647" vert-adv-y="2457" 
d="M232 151v472l-209 -136v158l209 136v543h-151v151h325v-584l209 135v-158l-209 -135v-582h146v-151h-478v151h158z" />
    <glyph glyph-name="Nacute" unicode="&#x143;" horiz-adv-x="1456" vert-adv-y="2457" 
d="M226 151v1173h-144v151h345l558 -947q17 -30 87 -172q-5 131 -5 195v773h-153v151h465v-151h-144v-1348h-125l-647 1109q-7 13 -75 153q6 -131 6 -157v-930h150v-151h-462v151h144zM637 1596l182 324h196l-254 -324h-124z" />
    <glyph glyph-name="nacute" unicode="&#x144;" horiz-adv-x="1274" vert-adv-y="2457" 
d="M225 151v667h-150v151h324v-156q97 87 140 114q113 71 232 71q180 0 248 -130q28 -53 38.5 -118.5t10.5 -188.5v-410h148v-151h-457v151h135v419q0 121 -20 177q-33 92 -148 92q-79 0 -151.5 -44.5t-175.5 -155.5v-488h140v-151h-464v151h150zM546 1118l208 349h195
l-279 -349h-124z" />
    <glyph glyph-name="Ncommaaccent" unicode="&#x145;" horiz-adv-x="1456" vert-adv-y="2457" 
d="M226 151v1173h-144v151h345l558 -947q17 -30 87 -172q-5 131 -5 195v773h-153v151h465v-151h-144v-1348h-125l-647 1109q-7 13 -75 153q6 -131 6 -157v-930h150v-151h-462v151h144zM515 -476l165 349h195l-236 -349h-124z" />
    <glyph glyph-name="ncommaaccent" unicode="&#x146;" horiz-adv-x="1274" vert-adv-y="2457" 
d="M225 151v667h-150v151h324v-156q97 87 140 114q113 71 232 71q180 0 248 -130q28 -53 38.5 -118.5t10.5 -188.5v-410h148v-151h-457v151h135v419q0 121 -20 177q-33 92 -148 92q-79 0 -151.5 -44.5t-175.5 -155.5v-488h140v-151h-464v151h150zM403 -476l165 349h195
l-236 -349h-124z" />
    <glyph glyph-name="Ncaron" unicode="&#x147;" horiz-adv-x="1456" vert-adv-y="2457" 
d="M226 151v1173h-144v151h345l558 -947q17 -30 87 -172q-5 131 -5 195v773h-153v151h465v-151h-144v-1348h-125l-647 1109q-7 13 -75 153q6 -131 6 -157v-930h150v-151h-462v151h144zM713 1707l161 213h124l-197 -324h-177l-196 324h122z" />
    <glyph glyph-name="ncaron" unicode="&#x148;" horiz-adv-x="1274" vert-adv-y="2457" 
d="M225 151v667h-150v151h324v-156q97 87 140 114q113 71 232 71q180 0 248 -130q28 -53 38.5 -118.5t10.5 -188.5v-410h148v-151h-457v151h135v419q0 121 -20 177q-33 92 -148 92q-79 0 -151.5 -44.5t-175.5 -155.5v-488h140v-151h-464v151h150zM629 1229l174 238h124
l-209 -349h-177l-210 349h124z" />
    <glyph glyph-name="napostrophe" unicode="&#x149;" horiz-adv-x="1297" vert-adv-y="2457" 
d="M-22 1088l91 387h195l-154 -387h-132zM247 151v667h-150v151h324v-156q98 87 140 114q113 71 232 71q179 0 248 -130q28 -52 38.5 -118.5t10.5 -188.5v-410h148v-151h-457v151h135v419q0 120 -20 177q-32 92 -148 92q-79 0 -151.5 -44.5t-175.5 -155.5v-488h140v-151
h-464v151h150z" />
    <glyph glyph-name="Eng" unicode="&#x14a;" horiz-adv-x="1456" vert-adv-y="2457" 
d="M226 151v1173h-144v151h345l558 -947q17 -29 87 -172q-5 131 -5 195v773h-153v151h465v-151h-144v-1357q0 -121 -19 -189t-66 -114q-79 -77 -261 -86v151q100 8 135 53q22 27 29.5 64.5t7.5 115.5v100l-598 1023q-7 13 -75 153q6 -131 6 -157v-930h150v-151h-462v151h144
z" />
    <glyph glyph-name="eng" unicode="&#x14b;" horiz-adv-x="1274" vert-adv-y="2457" 
d="M225 151v667h-150v151h324v-156q97 87 140 114q112 71 232 71q180 0 248 -130q28 -53 38.5 -118.5t10.5 -188.5v-594q0 -122 -19 -189t-66 -114q-79 -77 -261 -86v151q100 8 135 53q22 27 29.5 64.5t7.5 115.5v608q0 120 -20 177q-33 92 -149 92q-78 0 -150.5 -44.5
t-175.5 -155.5v-488h140v-151h-464v151h150z" />
    <glyph glyph-name="Omacron" unicode="&#x14c;" horiz-adv-x="1714" vert-adv-y="2457" 
d="M867 1506q224 0 413 -124q188 -123 277 -327q64 -148 64 -317q0 -299 -190 -515q-113 -128 -268 -193q-143 -61 -307 -61q-235 0 -423 124q-186 122 -276 328q-65 148 -65 315q0 306 191 516q231 254 584 254zM849 1348q-248 0 -417 -183q-156 -170 -156 -428
q0 -256 156 -427q169 -183 425 -183q255 0 424 183q156 171 156 426q0 263 -156 429q-173 183 -432 183zM592 1680v138h530v-138h-530z" />
    <glyph glyph-name="omacron" unicode="&#x14d;" horiz-adv-x="1201" vert-adv-y="2457" 
d="M607 998q226 0 372 -146q141 -142 141 -368q0 -225 -141 -367q-145 -146 -379 -146t-378 146q-142 142 -142 366q0 231 142 369q148 146 385 146zM595 847q-160 0 -257 -114q-81 -95 -81 -248t81 -249q96 -114 262 -114t262 114q81 96 81 247q0 156 -81 250
q-99 114 -267 114zM335 1203v138h530v-138h-530z" />
    <glyph glyph-name="Obreve" unicode="&#x14e;" horiz-adv-x="1714" vert-adv-y="2457" 
d="M867 1506q224 0 413 -124q188 -123 277 -327q64 -148 64 -317q0 -299 -190 -515q-113 -128 -268 -193q-143 -61 -307 -61q-235 0 -423 124q-186 122 -276 328q-65 148 -65 315q0 306 191 516q231 254 584 254zM849 1348q-248 0 -417 -183q-156 -170 -156 -428
q0 -256 156 -427q169 -183 425 -183q255 0 424 183q156 171 156 426q0 263 -156 429q-173 183 -432 183zM569 1904h103q6 -75 40 -108q46 -46 144 -46q91 0 133 35t49 119h104q-13 -137 -69 -204q-68 -81 -216 -81q-166 0 -233 99q-45 66 -55 186z" />
    <glyph glyph-name="obreve" unicode="&#x14f;" horiz-adv-x="1201" vert-adv-y="2457" 
d="M607 998q226 0 372 -146q141 -142 141 -368q0 -225 -141 -367q-145 -146 -379 -146t-378 146q-142 142 -142 366q0 231 142 369q148 146 385 146zM595 847q-160 0 -257 -114q-81 -95 -81 -248t81 -249q96 -114 262 -114t262 114q81 96 81 247q0 156 -81 250
q-99 114 -267 114zM313 1427h103q6 -75 40 -108q46 -46 144 -46q91 0 133 35.5t49 118.5h104q-13 -137 -69 -203q-68 -81 -216 -81q-166 0 -233 99q-45 65 -55 185z" />
    <glyph glyph-name="Ohungarumlaut" unicode="&#x150;" horiz-adv-x="1714" vert-adv-y="2457" 
d="M867 1506q224 0 413 -124q188 -123 277 -327q64 -148 64 -317q0 -299 -190 -515q-113 -128 -268 -193q-143 -61 -307 -61q-235 0 -423 124q-186 122 -276 328q-65 148 -65 315q0 306 191 516q231 254 584 254zM849 1348q-248 0 -417 -183q-156 -170 -156 -428
q0 -256 156 -427q169 -183 425 -183q255 0 424 183q156 171 156 426q0 263 -156 429q-173 183 -432 183zM651 1596l122 324h171l-192 -324h-101zM913 1596l147 324h176l-220 -324h-103z" />
    <glyph glyph-name="ohungarumlaut" unicode="&#x151;" horiz-adv-x="1201" vert-adv-y="2457" 
d="M607 998q226 0 372 -146q141 -142 141 -368q0 -225 -141 -367q-145 -146 -379 -146t-378 146q-142 142 -142 366q0 231 142 369q148 146 385 146zM595 847q-160 0 -257 -114q-81 -95 -81 -248t81 -249q96 -114 262 -114t262 114q81 96 81 247q0 156 -81 250
q-99 114 -267 114zM402 1118l147 349h171l-217 -349h-101zM664 1118l172 349h176l-245 -349h-103z" />
    <glyph glyph-name="OE" unicode="&#x152;" horiz-adv-x="2088" vert-adv-y="2457" 
d="M1284 151h552v257h156v-408h-712q-65 0 -178 -7q-159 -10 -225 -10q-359 0 -556 178q-235 211 -235 577q0 369 247 581q104 90 233.5 131.5t304.5 41.5q74 0 226 -10q116 -7 196 -7h689v-367h-156v216h-542v-482h486v-151h-486v-540zM1104 150v1174q-116 15 -224 15
q-283 0 -449 -163q-161 -157 -161 -435q0 -312 200 -474q163 -131 422 -131q84 0 212 14z" />
    <glyph glyph-name="oe" unicode="&#x153;" horiz-adv-x="2001" vert-adv-y="2457" 
d="M1031 229q-46 -82 -90 -126q-130 -132 -350 -132q-229 0 -372 146q-139 143 -139 368t139 367q143 146 372 146q153 0 258.5 -61.5t180.5 -194.5q40 78 85 126q122 130 331 130q185 0 310 -109q166 -146 168 -454h-799q12 -106 50 -168q90 -145 282 -145q96 0 178.5 27.5
t183.5 93.5l86 -130q-210 -143 -442 -143q-302 0 -432 259zM595 847q-160 0 -257 -114q-81 -95 -81 -248t81 -249q96 -114 262 -114t262 114q81 96 81 247q0 156 -81 250q-99 114 -267 114zM1740 574q-17 94 -57 152q-87 125 -248 125q-176 0 -259 -143q-33 -57 -47 -134
h611z" />
    <glyph glyph-name="Racute" unicode="&#x154;" horiz-adv-x="1296" vert-adv-y="2457" 
d="M226 151v1173h-144v151h524q147 0 230 -14t148 -50q86 -48 133 -139t47 -208q0 -186 -122 -291q-38 -32 -146 -80q55 -30 86.5 -76.5t68.5 -153.5l110 -312h138v-151h-290l-121 371q-29 89 -49 127t-55 75q-36 36 -86.5 50t-147.5 14h-144v-486h171v-151h-495v151h144z
M406 785h182q195 0 278 52q114 70 114 219q0 146 -107 216q-80 52 -272 52h-195v-539zM533 1596l182 324h196l-254 -324h-124z" />
    <glyph glyph-name="racute" unicode="&#x155;" horiz-adv-x="817" vert-adv-y="2457" 
d="M225 151v667h-150v151h319v-160q83 103 143 138q85 51 200 51h41v-167h-37q-79 0 -126 -15t-94 -55q-50 -42 -122 -150v-460h155v-151h-479v151h150zM334 1118l208 349h195l-279 -349h-124z" />
    <glyph glyph-name="Rcommaaccent" unicode="&#x156;" horiz-adv-x="1296" vert-adv-y="2457" 
d="M226 151v1173h-144v151h524q147 0 230 -14t148 -50q86 -48 133 -139t47 -208q0 -186 -122 -291q-38 -32 -146 -80q55 -30 86.5 -76.5t68.5 -153.5l110 -312h138v-151h-290l-121 371q-29 89 -49 127t-55 75q-36 36 -86.5 50t-147.5 14h-144v-486h171v-151h-495v151h144z
M406 785h182q195 0 278 52q114 70 114 219q0 146 -107 216q-80 52 -272 52h-195v-539zM469 -476l165 349h195l-236 -349h-124z" />
    <glyph glyph-name="rcommaaccent" unicode="&#x157;" horiz-adv-x="817" vert-adv-y="2457" 
d="M225 151v667h-150v151h319v-160q83 103 143 138q85 51 200 51h41v-167h-37q-79 0 -126 -15t-94 -55q-50 -42 -122 -150v-460h155v-151h-479v151h150zM83 -476l165 349h195l-236 -349h-124z" />
    <glyph glyph-name="Rcaron" unicode="&#x158;" horiz-adv-x="1296" vert-adv-y="2457" 
d="M226 151v1173h-144v151h524q147 0 230 -14t148 -50q86 -48 133 -139t47 -208q0 -186 -122 -291q-38 -32 -146 -80q55 -30 86.5 -76.5t68.5 -153.5l110 -312h138v-151h-290l-121 371q-29 89 -49 127t-55 75q-36 36 -86.5 50t-147.5 14h-144v-486h171v-151h-495v151h144z
M406 785h182q195 0 278 52q114 70 114 219q0 146 -107 216q-80 52 -272 52h-195v-539zM612 1707l161 213h124l-197 -324h-177l-196 324h122z" />
    <glyph glyph-name="rcaron" unicode="&#x159;" horiz-adv-x="817" vert-adv-y="2457" 
d="M225 151v667h-150v151h319v-160q83 103 143 138q85 51 200 51h41v-167h-37q-79 0 -126 -15t-94 -55q-50 -42 -122 -150v-460h155v-151h-479v151h150zM441 1229l174 238h124l-209 -349h-177l-210 349h124z" />
    <glyph glyph-name="Sacute" unicode="&#x15a;" horiz-adv-x="1234" vert-adv-y="2457" 
d="M110 0v440h156v-34q0 -104 50 -164q46 -54 130 -84.5t187 -30.5q172 0 263 79q84 73 84 192q0 114 -89 185q-39 30 -105 54.5t-204 59.5q-170 42 -246 75t-125 85q-85 91 -85 240q0 178 112 288q122 121 340 121q207 0 332 -115v84h148v-431h-156v27q0 101 -39 160
q-35 53 -110.5 85t-165.5 32q-137 0 -213 -70q-71 -66 -71 -166q0 -110 90 -168q64 -41 270 -90q172 -41 253.5 -76.5t138.5 -93.5q105 -107 105 -273q0 -195 -124 -314q-135 -128 -399 -128q-229 0 -379 115v-84h-148zM530 1596l182 324h196l-254 -324h-124z" />
    <glyph glyph-name="sacute" unicode="&#x15b;" horiz-adv-x="983" vert-adv-y="2457" 
d="M89 0v319h148v-34q0 -75 50 -112q80 -60 235 -60q104 0 161 37q61 39 61 118q0 65 -55 102q-24 17 -54.5 24.5t-172.5 31.5q-122 20 -186 42.5t-104 57.5q-77 68 -77 184q0 130 93 210q89 78 247 78q79 0 138 -18.5t123 -63.5v53h137v-297h-148v18q0 69 -44 105
q-74 60 -193 60q-94 0 -140 -40q-42 -37 -42 -95q0 -62 65 -97q37 -20 186 -46q136 -23 198.5 -42.5t102.5 -52.5q93 -73 93 -212q0 -143 -100 -221t-284 -78q-173 0 -301 82v-53h-137zM383 1118l208 349h195l-279 -349h-124z" />
    <glyph glyph-name="Scircumflex" unicode="&#x15c;" horiz-adv-x="1234" vert-adv-y="2457" 
d="M110 0v440h156v-34q0 -104 50 -164q46 -54 130 -84.5t187 -30.5q172 0 263 79q84 73 84 192q0 114 -89 185q-39 30 -105 54.5t-204 59.5q-170 42 -246 75t-125 85q-85 91 -85 240q0 178 112 288q122 121 340 121q207 0 332 -115v84h148v-431h-156v27q0 101 -39 160
q-35 53 -110.5 85t-165.5 32q-137 0 -213 -70q-71 -66 -71 -166q0 -110 90 -168q64 -41 270 -90q172 -41 253.5 -76.5t138.5 -93.5q105 -107 105 -273q0 -195 -124 -314q-135 -128 -399 -128q-229 0 -379 115v-84h-148zM625 1809l-162 -213h-124l197 324h178l195 -324h-123z
" />
    <glyph glyph-name="scircumflex" unicode="&#x15d;" horiz-adv-x="983" vert-adv-y="2457" 
d="M89 0v319h148v-34q0 -75 50 -112q80 -60 235 -60q104 0 161 37q61 39 61 118q0 65 -55 102q-24 17 -54.5 24.5t-172.5 31.5q-122 20 -186 42.5t-104 57.5q-77 68 -77 184q0 130 93 210q89 78 247 78q79 0 138 -18.5t123 -63.5v53h137v-297h-148v18q0 69 -44 105
q-74 60 -193 60q-94 0 -140 -40q-42 -37 -42 -95q0 -62 65 -97q37 -20 186 -46q136 -23 198.5 -42.5t102.5 -52.5q93 -73 93 -212q0 -143 -100 -221t-284 -78q-173 0 -301 82v-53h-137zM482 1356l-174 -238h-124l210 349h177l209 -349h-124z" />
    <glyph glyph-name="Scedilla" unicode="&#x15e;" horiz-adv-x="1234" vert-adv-y="2457" 
d="M110 0v440h156v-34q0 -105 50 -163q47 -55 130 -85t187 -30q173 0 263 78q84 74 84 193q0 114 -89 184q-38 31 -104.5 55.5t-204.5 58.5q-171 43 -246.5 76t-124.5 85q-85 90 -85 239q0 178 112 288q122 121 339 121q207 0 333 -115v84h148v-431h-156v27q0 101 -39 160
q-35 53 -110.5 85t-166.5 32q-135 0 -212 -70q-71 -65 -71 -166q0 -110 90 -168q64 -41 270 -90q172 -41 253.5 -76.5t138.5 -92.5q105 -108 105 -274q0 -147 -77 -258q-119 -171 -413 -183l-36 -64q86 -8 122 -24q96 -44 96 -158q0 -98 -66.5 -150t-191.5 -52
q-107 0 -247 39v138q154 -55 249 -55q111 0 111 79q0 40 -30.5 58t-99.5 18q-10 0 -68 -4v93l45 88q-108 13 -169 35t-127 73v-84h-148z" />
    <glyph glyph-name="scedilla" unicode="&#x15f;" horiz-adv-x="983" vert-adv-y="2457" 
d="M89 0v319h148v-34q0 -75 50 -111q81 -60 235 -60q104 0 161 37q61 39 61 118q0 64 -55 102q-24 16 -54.5 23.5t-173.5 31.5q-120 20 -184.5 42.5t-104.5 58.5q-77 68 -77 183q0 131 93 211q90 77 246 77q80 0 139 -18.5t123 -63.5v53h137v-297h-148v18q0 69 -44 105
q-74 60 -193 60q-94 0 -140 -40q-42 -37 -42 -95q0 -62 65 -97q37 -20 186 -46q136 -23 198.5 -42.5t102.5 -52.5q93 -73 93 -212t-93 -215.5t-270 -82.5l-37 -66q86 -7 122 -24q96 -44 96 -158q0 -98 -66.5 -150t-191.5 -52q-107 0 -247 39v138q157 -55 249 -55
q111 0 111 79q0 40 -30.5 58t-100.5 18q-4 0 -67 -4v93l47 90q-119 18 -207 75v-53h-137z" />
    <glyph glyph-name="Scaron" unicode="&#x160;" horiz-adv-x="1234" vert-adv-y="2457" 
d="M110 0v440h156v-34q0 -104 50 -164q46 -54 130 -84.5t187 -30.5q172 0 263 79q84 73 84 192q0 114 -89 185q-39 30 -105 54.5t-204 59.5q-170 42 -246 75t-125 85q-85 91 -85 240q0 178 112 288q122 121 340 121q207 0 332 -115v84h148v-431h-156v27q0 101 -39 160
q-35 53 -110.5 85t-165.5 32q-137 0 -213 -70q-71 -66 -71 -166q0 -110 90 -168q64 -41 270 -90q172 -41 253.5 -76.5t138.5 -93.5q105 -107 105 -273q0 -195 -124 -314q-135 -128 -399 -128q-229 0 -379 115v-84h-148zM618 1707l161 213h124l-197 -324h-177l-196 324h122z
" />
    <glyph glyph-name="scaron" unicode="&#x161;" horiz-adv-x="983" vert-adv-y="2457" 
d="M89 0v319h148v-34q0 -75 50 -112q80 -60 235 -60q104 0 161 37q61 39 61 118q0 65 -55 102q-24 17 -54.5 24.5t-172.5 31.5q-122 20 -186 42.5t-104 57.5q-77 68 -77 184q0 130 93 210q89 78 247 78q79 0 138 -18.5t123 -63.5v53h137v-297h-148v18q0 69 -44 105
q-74 60 -193 60q-94 0 -140 -40q-42 -37 -42 -95q0 -62 65 -97q37 -20 186 -46q136 -23 198.5 -42.5t102.5 -52.5q93 -73 93 -212q0 -143 -100 -221t-284 -78q-173 0 -301 82v-53h-137zM494 1229l174 238h124l-209 -349h-177l-210 349h124z" />
    <glyph glyph-name="Tcommaaccent" unicode="&#x162;" horiz-adv-x="1213" vert-adv-y="2457" 
d="M516 151v1173h-322v-239h-156v390h1136v-390h-156v239h-322v-1173h196v-151h-571v151h195zM369 -476l165 349h195l-236 -349h-124z" />
    <glyph glyph-name="tcommaaccent" unicode="&#x163;" horiz-adv-x="688" vert-adv-y="2457" 
d="M213 818h-154v151h154v357h174v-357h244v-151h-244v-500q0 -93 29.5 -130t105.5 -37h121v-151h-127q-303 0 -303 291v527zM131 -476l165 349h195l-236 -349h-124z" />
    <glyph glyph-name="Tcaron" unicode="&#x164;" horiz-adv-x="1213" vert-adv-y="2457" 
d="M516 151v1173h-322v-239h-156v390h1136v-390h-156v239h-322v-1173h196v-151h-571v151h195zM606 1707l161 213h124l-197 -324h-177l-196 324h122z" />
    <glyph glyph-name="tcaron" unicode="&#x165;" horiz-adv-x="873" vert-adv-y="2457" 
d="M213 818h-154v151h154v357h174v-357h244v-151h-244v-500q0 -93 29.5 -130t105.5 -37h121v-151h-127q-303 0 -303 291v527zM609 1100l110 445h195l-173 -445h-132z" />
    <glyph glyph-name="Tbar" unicode="&#x166;" horiz-adv-x="1213" vert-adv-y="2457" 
d="M516 151v531h-309v137h309v505h-322v-239h-156v390h1136v-390h-156v239h-322v-505h309v-137h-309v-531h196v-151h-571v151h195z" />
    <glyph glyph-name="tbar" unicode="&#x167;" horiz-adv-x="688" vert-adv-y="2457" 
d="M387 612h244v-114h-244v-180q0 -94 30 -130.5t105 -36.5h109v-151h-115q-303 0 -303 290v208h-154v114h154v206h-154v151h154v357h174v-357h244v-151h-244v-206z" />
    <glyph glyph-name="Utilde" unicode="&#x168;" horiz-adv-x="1436" vert-adv-y="2457" 
d="M72 1324v151h475v-151h-151v-758q0 -199 49 -295q72 -141 273 -141q200 0 273 141q49 95 49 295v758h-151v151h475v-151h-144v-701q0 -191 -16.5 -288t-60.5 -170q-119 -196 -425 -196q-305 0 -425 196q-44 73 -60.5 170.5t-16.5 287.5v701h-144zM525 1648h-113
q46 205 200 205q57 0 139 -45q73 -40 97 -40q52 0 87 84h114q-26 -93 -62 -140q-53 -70 -146 -70q-63 0 -173 62q-41 23 -63 23q-49 0 -80 -79z" />
    <glyph glyph-name="utilde" unicode="&#x169;" horiz-adv-x="1215" vert-adv-y="2457" 
d="M206 818h-148v151h322v-570q0 -118 15 -168q27 -88 128 -88q74 0 141 40.5t168 146.5v488h-140v151h314v-818h150v-151h-324v156q-95 -83 -133 -106q-108 -66 -221 -66q-165 0 -227 126q-26 52 -35.5 114.5t-9.5 183.5v410zM409 1171h-108q44 204 192 204q37 0 64 -10.5
t109 -56.5q32 -18 54 -18q50 0 84 84h108q-25 -94 -58 -140q-51 -69 -142 -69q-59 0 -165 61q-39 23 -61 23q-46 0 -77 -78z" />
    <glyph glyph-name="Umacron" unicode="&#x16a;" horiz-adv-x="1436" vert-adv-y="2457" 
d="M72 1324v151h475v-151h-151v-758q0 -199 49 -295q72 -141 273 -141q200 0 273 141q49 95 49 295v758h-151v151h475v-151h-144v-701q0 -191 -16.5 -288t-60.5 -170q-119 -196 -425 -196q-305 0 -425 196q-44 73 -60.5 170.5t-16.5 287.5v701h-144zM453 1680v138h530v-138
h-530z" />
    <glyph glyph-name="umacron" unicode="&#x16b;" horiz-adv-x="1215" vert-adv-y="2457" 
d="M206 818h-148v151h322v-570q0 -118 15 -168q27 -88 128 -88q74 0 141 40.5t168 146.5v488h-140v151h314v-818h150v-151h-324v156q-95 -83 -133 -106q-108 -66 -221 -66q-165 0 -227 126q-26 52 -35.5 114.5t-9.5 183.5v410zM322 1203v138h530v-138h-530z" />
    <glyph glyph-name="Ubreve" unicode="&#x16c;" horiz-adv-x="1436" vert-adv-y="2457" 
d="M72 1324v151h475v-151h-151v-758q0 -199 49 -295q72 -141 273 -141q200 0 273 141q49 95 49 295v758h-151v151h475v-151h-144v-701q0 -191 -16.5 -288t-60.5 -170q-119 -196 -425 -196q-305 0 -425 196q-44 73 -60.5 170.5t-16.5 287.5v701h-144zM431 1904h103
q6 -75 40 -108q46 -46 144 -46q91 0 133 35t49 119h104q-13 -137 -69 -204q-68 -81 -216 -81q-166 0 -233 99q-45 66 -55 186z" />
    <glyph glyph-name="ubreve" unicode="&#x16d;" horiz-adv-x="1215" vert-adv-y="2457" 
d="M206 818h-148v151h322v-570q0 -118 15 -168q27 -88 128 -88q74 0 141 40.5t168 146.5v488h-140v151h314v-818h150v-151h-324v156q-95 -83 -133 -106q-108 -66 -221 -66q-165 0 -227 126q-26 52 -35.5 114.5t-9.5 183.5v410zM309 1427h103q6 -75 40 -108q46 -46 144 -46
q91 0 133 35.5t49 118.5h104q-13 -137 -69 -203q-68 -81 -216 -81q-166 0 -233 99q-45 65 -55 185z" />
    <glyph glyph-name="Uring" unicode="&#x16e;" horiz-adv-x="1436" vert-adv-y="2457" 
d="M72 1324v151h475v-151h-151v-758q0 -199 49 -295q72 -141 273 -141q200 0 273 141q49 95 49 295v758h-151v151h475v-151h-144v-701q0 -191 -16.5 -288t-60.5 -170q-119 -196 -425 -196q-305 0 -425 196q-44 73 -60.5 170.5t-16.5 287.5v701h-144zM722 2018q106 0 168 -62
t62 -167q0 -107 -62.5 -168t-171.5 -61q-115 0 -177 69q-56 63 -56 159q0 108 63 169t174 61zM716 1918q-56 0 -87 -34t-31 -95q0 -129 120 -129q121 0 121 129t-123 129z" />
    <glyph glyph-name="uring" unicode="&#x16f;" horiz-adv-x="1215" vert-adv-y="2457" 
d="M206 818h-148v151h322v-570q0 -118 15 -168q27 -88 128 -88q74 0 141 40.5t168 146.5v488h-140v151h314v-818h150v-151h-324v156q-95 -83 -133 -106q-108 -66 -221 -66q-165 0 -227 126q-26 52 -35.5 114.5t-9.5 183.5v410zM593 1548q106 0 168 -61.5t62 -167.5
t-62.5 -167t-171.5 -61q-115 0 -177 69q-56 62 -56 159q0 108 63 168.5t174 60.5zM587 1448q-56 0 -87 -33.5t-31 -94.5q0 -129 120 -129q121 0 121 128q0 129 -123 129z" />
    <glyph glyph-name="Uhungarumlaut" unicode="&#x170;" horiz-adv-x="1436" vert-adv-y="2457" 
d="M72 1324v151h475v-151h-151v-758q0 -199 49 -295q72 -141 273 -141q200 0 273 141q49 95 49 295v758h-151v151h475v-151h-144v-701q0 -191 -16.5 -288t-60.5 -170q-119 -196 -425 -196q-305 0 -425 196q-44 73 -60.5 170.5t-16.5 287.5v701h-144zM538 1596l122 324h171
l-192 -324h-101zM800 1596l147 324h176l-220 -324h-103z" />
    <glyph glyph-name="uhungarumlaut" unicode="&#x171;" horiz-adv-x="1215" vert-adv-y="2457" 
d="M206 818h-148v151h322v-570q0 -118 15 -168q27 -88 128 -88q74 0 141 40.5t168 146.5v488h-140v151h314v-818h150v-151h-324v156q-95 -83 -133 -106q-108 -66 -221 -66q-165 0 -227 126q-26 52 -35.5 114.5t-9.5 183.5v410zM368 1105l147 349h171l-217 -349h-101z
M630 1105l172 349h176l-245 -349h-103z" />
    <glyph glyph-name="Uogonek" unicode="&#x172;" horiz-adv-x="1436" vert-adv-y="2457" 
d="M72 1324v151h475v-151h-151v-758q0 -199 49 -295q72 -140 272 -140q201 0 274 140q49 96 49 295v758h-151v151h475v-151h-144v-701q0 -267 -40 -379q-76 -215 -332 -263q-82 -66 -116.5 -115.5t-34.5 -100.5q0 -82 92 -82h83v-122h-83q-237 0 -237 174q0 119 151 235
q-257 11 -374 146q-79 92 -101 250q-12 87 -12 257v701h-144z" />
    <glyph glyph-name="uogonek" unicode="&#x173;" horiz-adv-x="1215" vert-adv-y="2457" 
d="M206 818h-148v151h322v-570q0 -118 15 -168q27 -88 128 -88q74 0 141 40.5t168 146.5v488h-140v151h314v-818h150v-151q-92 -68 -134 -124t-42 -112q0 -81 91 -81h83v-122h-82q-238 0 -238 174q0 69 40 124.5t151 140.5h-193v156q-95 -83 -133 -106q-108 -66 -221 -66
q-165 0 -227 126q-26 52 -35.5 114.5t-9.5 183.5v410z" />
    <glyph glyph-name="Wcircumflex" unicode="&#x174;" horiz-adv-x="1907" vert-adv-y="2457" 
d="M5 1324v151h490v-151h-173l218 -766q24 -86 57 -224q38 157 57 222l263 939h93l265 -941q26 -94 53 -220q30 130 60 238l212 752h-163v151h466v-151h-131l-392 -1356h-108l-264 942q-23 82 -46 202q-26 -119 -48 -197l-269 -947h-111l-396 1356h-133zM954 1809l-162 -213
h-124l197 324h178l195 -324h-123z" />
    <glyph glyph-name="wcircumflex" unicode="&#x175;" horiz-adv-x="1610" vert-adv-y="2457" 
d="M131 818h-115v151h437v-151h-149l155 -433q24 -67 46 -150q26 90 51 157l215 577h71l212 -582q25 -69 48 -152q28 94 47 145l161 438h-154v151h435v-151h-112l-321 -842h-108l-208 580q-22 63 -39 131q-16 -67 -38 -128l-211 -583h-106zM804 1356l-174 -238h-124l210 349
h177l209 -349h-124z" />
    <glyph glyph-name="Ycircumflex" unicode="&#x176;" horiz-adv-x="1153" vert-adv-y="2457" 
d="M484 151v520l-372 653h-128v151h482v-151h-147l264 -489l263 489h-145v151h463v-151h-132l-368 -655v-518h181v-151h-542v151h181zM598 1809l-162 -213h-124l197 324h178l195 -324h-123z" />
    <glyph glyph-name="ycircumflex" unicode="&#x177;" horiz-adv-x="1076" vert-adv-y="2457" 
d="M111 818h-103v151h460v-151h-175l210 -461q3 -7 48 -119q25 69 54 137l185 443h-169v151h455v-151h-109l-421 -965q-72 -163 -142 -216q-44 -33 -97 -45.5t-152 -13.5v151q104 1 148.5 31t85.5 128l73 173zM537 1356l-174 -238h-124l210 349h177l209 -349h-124z" />
    <glyph glyph-name="Ydieresis" unicode="&#x178;" horiz-adv-x="1153" vert-adv-y="2457" 
d="M484 151v520l-372 653h-128v151h482v-151h-147l264 -489l263 489h-145v151h463v-151h-132l-368 -655v-518h181v-151h-542v151h181zM313 1651v194h177v-194h-177zM694 1651v194h177v-194h-177z" />
    <glyph glyph-name="Zacute" unicode="&#x179;" horiz-adv-x="1143" vert-adv-y="2457" 
d="M49 0v143l771 1181h-573v-239h-156v390h960v-116l-786 -1208h632v255h156v-406h-1004zM490 1596l182 324h196l-254 -324h-124z" />
    <glyph glyph-name="zacute" unicode="&#x17a;" horiz-adv-x="957" vert-adv-y="2457" 
d="M47 0v149l585 669h-384v-158h-151v309h760v-128l-599 -690h464v174h151v-325h-826zM393 1118l208 349h195l-279 -349h-124z" />
    <glyph glyph-name="Zdotaccent" unicode="&#x17b;" horiz-adv-x="1143" vert-adv-y="2457" 
d="M49 0v143l771 1181h-573v-239h-156v390h960v-116l-786 -1208h632v255h156v-406h-1004zM515 1646v204h199v-204h-199z" />
    <glyph glyph-name="zdotaccent" unicode="&#x17c;" horiz-adv-x="957" vert-adv-y="2457" 
d="M47 0v149l585 669h-384v-158h-151v309h760v-128l-599 -690h464v174h151v-325h-826zM395 1168v204h199v-204h-199z" />
    <glyph glyph-name="Zcaron" unicode="&#x17d;" horiz-adv-x="1143" vert-adv-y="2457" 
d="M49 0v143l771 1181h-573v-239h-156v390h960v-116l-786 -1208h632v255h156v-406h-1004zM602 1707l161 213h124l-197 -324h-177l-196 324h122z" />
    <glyph glyph-name="zcaron" unicode="&#x17e;" horiz-adv-x="957" vert-adv-y="2457" 
d="M47 0v149l585 669h-384v-158h-151v309h760v-128l-599 -690h464v174h151v-325h-826zM497 1229l174 238h124l-209 -349h-177l-210 349h124z" />
    <glyph glyph-name="uni018F" unicode="&#x18f;" horiz-adv-x="1675" vert-adv-y="2457" 
d="M102 843h1277q-22 154 -96 264q-161 238 -458 238q-181 0 -329 -87q-58 -34 -155 -131l-115 120q102 117 217 175q169 84 380 84q357 0 569 -253q180 -214 180 -517q0 -299 -176 -514q-207 -253 -544 -253q-342 0 -562 253q-181 207 -187 515q-1 31 -1 106zM291 697
q14 -129 34 -195t64 -130q81 -118 200 -181q119 -64 262 -64q228 0 372.5 154.5t161.5 415.5h-1094z" />
    <glyph glyph-name="florin" unicode="&#x192;" vert-adv-y="2457" 
d="M278 729v142h220l56 295q19 101 36.5 151t48.5 91q72 98 210 98q93 0 190 -47l-40 -136q-89 36 -132 36q-61 0 -91.5 -42t-52.5 -157l-56 -289h184v-142h-207l-111 -655q-29 -173 -75 -260q-78 -145 -237 -145q-77 0 -185 40l39 144q70 -31 118 -31q72 0 112.5 65
t66.5 220l103 622h-197z" />
    <glyph glyph-name="uni01CD" unicode="&#x1cd;" horiz-adv-x="1460" vert-adv-y="2457" 
d="M1043 434h-633l-104 -283h161v-151h-467v151h122l504 1324h198l510 -1324h126v-151h-473v151h162zM987 582l-264 714l-258 -714h522zM730 1707l161 213h124l-197 -324h-177l-196 324h122z" />
    <glyph glyph-name="uni01CE" unicode="&#x1ce;" horiz-adv-x="1175" vert-adv-y="2457" 
d="M792 582v48q0 119 -41 163q-56 60 -217 60q-122 0 -169 -44q-30 -29 -38 -107h-163q5 160 91 228t282 68q262 0 358 -110q41 -47 57.5 -112.5t16.5 -182.5v-442h148v-151h-311v111q-125 -140 -363 -140q-173 0 -270 74q-98 75 -98 232q0 192 146 268q90 47 300 47
q89 0 271 -10zM795 444q-113 12 -266 12q-155 0 -210 -33q-69 -42 -69 -140q0 -83 50 -122q54 -42 173 -42q192 0 280 101q25 28 33.5 57t8.5 86v81zM584 1229l174 238h124l-209 -349h-177l-210 349h124z" />
    <glyph glyph-name="uni01D3" unicode="&#x1d3;" horiz-adv-x="1436" vert-adv-y="2457" 
d="M72 1324v151h475v-151h-151v-758q0 -199 49 -295q72 -141 273 -141q200 0 273 141q49 95 49 295v758h-151v151h475v-151h-144v-701q0 -191 -16.5 -288t-60.5 -170q-119 -196 -425 -196q-305 0 -425 196q-44 73 -60.5 170.5t-16.5 287.5v701h-144zM733 1707l161 213h124
l-197 -324h-177l-196 324h122z" />
    <glyph glyph-name="uni01D4" unicode="&#x1d4;" horiz-adv-x="1215" vert-adv-y="2457" 
d="M206 818h-148v151h322v-570q0 -118 15 -168q27 -88 128 -88q74 0 141 40.5t168 146.5v488h-140v151h314v-818h150v-151h-324v156q-95 -83 -133 -106q-108 -66 -221 -66q-165 0 -227 126q-26 52 -35.5 114.5t-9.5 183.5v410zM607 1229l174 238h124l-209 -349h-177
l-210 349h124z" />
    <glyph glyph-name="uni01DD" unicode="&#x1dd;" horiz-adv-x="1161" vert-adv-y="2457" 
d="M80 566h817q-18 96 -62 157q-91 124 -261 124q-98 0 -183.5 -28t-188.5 -93l-87 130q215 142 456 142q234 0 373 -146q137 -142 137 -367t-137 -368q-139 -146 -365 -146q-224 0 -364 146q-137 142 -137 375q0 28 2 74zM261 435q11 -77 20 -106.5t31 -62.5
q95 -144 267 -144q116 0 197 64q57 45 83.5 98.5t40.5 150.5h-639z" />
    <glyph glyph-name="Gcaron" unicode="&#x1e6;" horiz-adv-x="1663" vert-adv-y="2457" 
d="M806 571v151h676v-663q-262 -90 -594 -90q-263 0 -437 94q-178 97 -270 275q-89 170 -89 392q0 376 254 599q199 176 515 176q260 0 423 -114v84h148v-431h-156v27q0 99 -50 155q-51 58 -144 89.5t-211 31.5q-275 0 -434 -170q-161 -171 -161 -445q0 -281 171 -450
q157 -155 453 -155q205 0 414 66v378h-508zM860 1707l161 213h124l-197 -324h-177l-196 324h122z" />
    <glyph glyph-name="gcaron" unicode="&#x1e7;" horiz-adv-x="1273" vert-adv-y="2457" 
d="M888 154q-46 -52 -77 -77q-109 -88 -269 -88q-209 0 -338 142q-124 137 -124 358t121 361q129 148 342 148q116 0 197.5 -41t159.5 -139v151h324v-151h-162v-723q0 -252 -72 -367q-112 -180 -415 -180q-214 0 -312 73.5t-105 239.5h164q8 -75 44 -111q57 -56 213 -56
q193 0 261 120q27 47 37.5 105t10.5 162v73zM563 847q-135 0 -222 -100q-84 -96 -84 -257q0 -148 74 -241q87 -109 237 -109t240 108q80 96 80 238q0 161 -90.5 261t-234.5 100zM630 1229l174 238h124l-209 -349h-177l-210 349h124z" />
    <glyph glyph-name="uni01F4" unicode="&#x1f4;" horiz-adv-x="1663" vert-adv-y="2457" 
d="M806 571v151h676v-663q-262 -90 -594 -90q-263 0 -437 94q-178 97 -270 275q-89 170 -89 392q0 376 254 599q199 176 515 176q260 0 423 -114v84h148v-431h-156v27q0 99 -50 155q-51 58 -144 89.5t-211 31.5q-275 0 -434 -170q-161 -171 -161 -445q0 -281 171 -450
q157 -155 453 -155q205 0 414 66v378h-508zM738 1596l182 324h196l-254 -324h-124z" />
    <glyph glyph-name="uni01F5" unicode="&#x1f5;" horiz-adv-x="1273" vert-adv-y="2457" 
d="M888 154q-46 -52 -77 -77q-109 -88 -269 -88q-209 0 -338 142q-124 137 -124 358t121 361q129 148 342 148q116 0 197.5 -41t159.5 -139v151h324v-151h-162v-723q0 -252 -72 -367q-112 -180 -415 -180q-214 0 -312 73.5t-105 239.5h164q8 -75 44 -111q57 -56 213 -56
q193 0 261 120q27 47 37.5 105t10.5 162v73zM563 847q-135 0 -222 -100q-84 -96 -84 -257q0 -148 74 -241q87 -109 237 -109t240 108q80 96 80 238q0 161 -90.5 261t-234.5 100zM499 1118l208 349h195l-279 -349h-124z" />
    <glyph glyph-name="Scommaaccent" unicode="&#x218;" horiz-adv-x="1234" vert-adv-y="2457" 
d="M110 0v440h156v-34q0 -104 50 -164q46 -54 130 -84.5t187 -30.5q172 0 263 79q84 73 84 192q0 114 -89 185q-39 30 -105 54.5t-204 59.5q-170 42 -246 75t-125 85q-85 91 -85 240q0 178 112 288q122 121 340 121q207 0 332 -115v84h148v-431h-156v27q0 101 -39 160
q-35 53 -110.5 85t-165.5 32q-137 0 -213 -70q-71 -66 -71 -166q0 -110 90 -168q64 -41 270 -90q172 -41 253.5 -76.5t138.5 -93.5q105 -107 105 -273q0 -195 -124 -314q-135 -128 -399 -128q-229 0 -379 115v-84h-148zM387 -476l165 349h195l-236 -349h-124z" />
    <glyph glyph-name="scommaaccent" unicode="&#x219;" horiz-adv-x="983" vert-adv-y="2457" 
d="M89 0v319h148v-34q0 -75 50 -112q80 -60 235 -60q104 0 161 37q61 39 61 118q0 65 -55 102q-24 17 -54.5 24.5t-172.5 31.5q-122 20 -186 42.5t-104 57.5q-77 68 -77 184q0 130 93 210q89 78 247 78q79 0 138 -18.5t123 -63.5v53h137v-297h-148v18q0 69 -44 105
q-74 60 -193 60q-94 0 -140 -40q-42 -37 -42 -95q0 -62 65 -97q37 -20 186 -46q136 -23 198.5 -42.5t102.5 -52.5q93 -73 93 -212q0 -143 -100 -221t-284 -78q-173 0 -301 82v-53h-137zM249 -476l165 349h195l-236 -349h-124z" />
    <glyph glyph-name="uni021A" unicode="&#x21a;" horiz-adv-x="1213" vert-adv-y="2457" 
d="M516 151v1173h-322v-239h-156v390h1136v-390h-156v239h-322v-1173h196v-151h-571v151h195zM369 -476l165 349h195l-236 -349h-124z" />
    <glyph glyph-name="uni021B" unicode="&#x21b;" horiz-adv-x="688" vert-adv-y="2457" 
d="M213 818h-154v151h154v357h174v-357h244v-151h-244v-500q0 -93 29.5 -130t105.5 -37h121v-151h-127q-303 0 -303 291v527zM131 -476l165 349h195l-236 -349h-124z" />
    <glyph glyph-name="uni0226" unicode="&#x226;" horiz-adv-x="1460" vert-adv-y="2457" 
d="M1043 434h-633l-104 -283h161v-151h-467v151h122l504 1324h198l510 -1324h126v-151h-473v151h162zM987 582l-264 714l-258 -714h522zM630 1646v204h199v-204h-199z" />
    <glyph glyph-name="uni0227" unicode="&#x227;" horiz-adv-x="1175" vert-adv-y="2457" 
d="M792 582v48q0 119 -41 163q-56 60 -217 60q-122 0 -169 -44q-30 -29 -38 -107h-163q5 160 91 228t282 68q262 0 358 -110q41 -47 57.5 -112.5t16.5 -182.5v-442h148v-151h-311v111q-125 -140 -363 -140q-173 0 -270 74q-98 75 -98 232q0 192 146 268q90 47 300 47
q89 0 271 -10zM795 444q-113 12 -266 12q-155 0 -210 -33q-69 -42 -69 -140q0 -83 50 -122q54 -42 173 -42q192 0 280 101q25 28 33.5 57t8.5 86v81zM488 1168v204h199v-204h-199z" />
    <glyph glyph-name="uni0237" unicode="&#x237;" horiz-adv-x="581" vert-adv-y="2457" 
d="M69 818v151h327v-1002q0 -122 -19 -189t-66 -114q-79 -78 -260 -86v151q99 8 134 52q22 28 29.5 65t7.5 116v856h-153z" />
    <glyph glyph-name="uni0259" unicode="&#x259;" horiz-adv-x="1161" vert-adv-y="2457" 
d="M80 566h817q-18 96 -62 157q-91 124 -261 124q-98 0 -183.5 -28t-188.5 -93l-87 130q215 142 456 142q234 0 373 -146q137 -142 137 -367t-137 -368q-139 -146 -365 -146q-224 0 -364 146q-137 142 -137 375q0 28 2 74zM261 435q11 -77 20 -106.5t31 -62.5
q95 -144 267 -144q116 0 197 64q57 45 83.5 98.5t40.5 150.5h-639z" />
    <glyph glyph-name="circumflex" unicode="&#x2c6;" horiz-adv-x="1024" vert-adv-y="2457" 
d="M512 1356l-174 -238h-124l210 349h177l209 -349h-124z" />
    <glyph glyph-name="caron" unicode="&#x2c7;" horiz-adv-x="1024" vert-adv-y="2457" 
d="M512 1229l174 238h124l-209 -349h-177l-210 349h124z" />
    <glyph glyph-name="uni02C9" unicode="&#x2c9;" horiz-adv-x="1024" vert-adv-y="2457" 
d="M247 1203v138h530v-138h-530z" />
    <glyph glyph-name="breve" unicode="&#x2d8;" horiz-adv-x="1024" vert-adv-y="2457" 
d="M225 1427h103q6 -75 40 -108q46 -46 144 -46q91 0 133 35.5t49 118.5h104q-13 -137 -69 -203q-68 -81 -216 -81q-166 0 -233 99q-45 65 -55 185z" />
    <glyph glyph-name="dotaccent" unicode="&#x2d9;" horiz-adv-x="1024" vert-adv-y="2457" 
d="M412 1168v204h199v-204h-199z" />
    <glyph glyph-name="ring" unicode="&#x2da;" horiz-adv-x="1024" vert-adv-y="2457" 
d="M516 1548q106 0 168 -61.5t62 -167.5t-62.5 -167t-171.5 -61q-115 0 -177 69q-56 62 -56 159q0 108 63 168.5t174 60.5zM510 1448q-56 0 -87 -33.5t-31 -94.5q0 -129 120 -129q121 0 121 128q0 129 -123 129z" />
    <glyph glyph-name="ogonek" unicode="&#x2db;" horiz-adv-x="1024" vert-adv-y="2457" 
d="M559 0h131q-101 -78 -138.5 -128.5t-37.5 -107.5q0 -81 92 -81h83v-122h-82q-238 0 -238 174q0 69 40.5 125t149.5 140z" />
    <glyph glyph-name="tilde" unicode="&#x2dc;" horiz-adv-x="1024" vert-adv-y="2457" 
d="M314 1171h-108q44 204 192 204q37 0 64 -10.5t109 -56.5q32 -18 54 -18q50 0 84 84h108q-25 -94 -58 -140q-51 -69 -142 -69q-59 0 -165 61q-39 23 -61 23q-46 0 -77 -78z" />
    <glyph glyph-name="hungarumlaut" unicode="&#x2dd;" horiz-adv-x="1024" vert-adv-y="2457" 
d="M310 1118l147 349h171l-217 -349h-101zM572 1118l172 349h176l-245 -349h-103z" />
    <glyph glyph-name="uni0312" unicode="&#x312;" horiz-adv-x="1024" vert-adv-y="2457" 
d="M757 1467l-207 -349h-196l279 349h124z" />
    <glyph glyph-name="uni0313" unicode="&#x313;" horiz-adv-x="223" vert-adv-y="2457" 
d="M-41 1030l110 445h195l-173 -445h-132z" />
    <glyph glyph-name="uni031B" unicode="&#x31b;" horiz-adv-x="223" vert-adv-y="2457" 
d="M-41 1030l110 445h195l-173 -445h-132z" />
    <glyph glyph-name="commaaccent" unicode="&#x326;" horiz-adv-x="1024" vert-adv-y="2457" 
d="M299 -476l165 349h195l-236 -349h-124z" />
    <glyph glyph-name="uni037E" unicode="&#x37e;" horiz-adv-x="574" vert-adv-y="2457" 
d="M194 636v221h204v-221h-204zM53 -273l141 494h209l-177 -494h-173z" />
    <glyph glyph-name="uni0387" unicode="&#x387;" horiz-adv-x="574" vert-adv-y="2457" 
d="M186 443v221h204v-221h-204z" />
    <glyph glyph-name="uni0400" unicode="&#x400;" horiz-adv-x="1259" vert-adv-y="2457" 
d="M237 151v1173h-144v151h1022v-359h-156v208h-542v-482h486v-151h-486v-540h552v249h156v-400h-1032v151h144zM648 1596l-254 324h196l182 -324h-124z" />
    <glyph glyph-name="afii10023" unicode="&#x401;" horiz-adv-x="1259" vert-adv-y="2457" 
d="M237 151v1173h-144v151h1049v-359h-156v208h-569v-482h512v-151h-512v-540h579v249h156v-400h-1059v151h144zM357 1651v194h177v-194h-177zM738 1651v194h177v-194h-177z" />
    <glyph glyph-name="afii10051" unicode="&#x402;" horiz-adv-x="1586" vert-adv-y="2457" 
d="M479 151v1173h-278v-239h-156v390h1101v-375h-156v224h-331v-578q91 70 142 98q123 66 256 66q199 0 279 -130q31 -50 43 -116t12 -190v-518q0 -121 -19 -188t-66 -114q-79 -77 -260 -86v151q99 8 134 52q22 28 29.5 65t7.5 116v531q0 121 -23 177q-39 91 -182 91
q-84 0 -161.5 -39t-191.5 -140v-421h196v-151h-571v151h195z" />
    <glyph glyph-name="afii10052" unicode="&#x403;" horiz-adv-x="1146" vert-adv-y="2457" 
d="M237 151v1173h-144v151h1013v-390h-156v239h-533v-1173h205v-151h-529v151h144zM505 1596l182 324h224l-273 -324h-133z" />
    <glyph glyph-name="afii10053" unicode="&#x404;" horiz-adv-x="1445" vert-adv-y="2457" 
d="M899 848v-146h-612q8 -115 24.5 -185.5t51.5 -141.5q67 -134 172 -193q94 -52 232 -52q175 0 311 86q51 33 144 131l114 -120q-94 -116 -204 -174q-159 -84 -370 -84q-339 0 -508 230q-153 208 -153 547q0 351 183 559q176 201 475 201q234 0 385 -115v84h148v-431h-155
v27q0 101 -48 157t-134 87.5t-191 31.5q-268 0 -394 -227q-62 -111 -79 -272h608z" />
    <glyph glyph-name="afii10054" unicode="&#x405;" horiz-adv-x="1256" vert-adv-y="2457" 
d="M120 0v440h155v-34q0 -104 51 -164q46 -54 129.5 -84.5t187.5 -30.5q173 0 263 79q84 73 84 192q0 115 -89 185q-38 30 -105 55t-204 59q-171 42 -246.5 75t-124.5 85q-85 90 -85 240q0 178 111 288q122 121 340 121q110 0 187.5 -27t145.5 -88v84h148v-431h-155v27
q0 101 -40 160q-35 53 -110.5 85t-165.5 32q-136 0 -213 -70q-71 -65 -71 -166q0 -110 90 -168q64 -41 270 -90q172 -41 253.5 -76.5t138.5 -93.5q105 -107 105 -273q0 -195 -124 -314q-135 -128 -399 -128q-229 0 -379 115v-84h-148z" />
    <glyph glyph-name="afii10055" unicode="&#x406;" horiz-adv-x="660" vert-adv-y="2457" 
d="M240 151v1173h-144v151h469v-151h-145v-1173h145v-151h-469v151h144z" />
    <glyph glyph-name="afii10056" unicode="&#x407;" horiz-adv-x="660" vert-adv-y="2457" 
d="M240 151v1173h-144v151h469v-151h-145v-1173h145v-151h-469v151h144zM51 1651v194h177v-194h-177zM432 1651v194h177v-194h-177z" />
    <glyph glyph-name="afii10057" unicode="&#x408;" horiz-adv-x="655" vert-adv-y="2457" 
d="M241 1324h-151v151h475v-151h-144v-1189q0 -136 -19.5 -211t-69.5 -128q-82 -88 -278 -96v151q109 9 146 58q24 33 32.5 77.5t8.5 137.5v1200z" />
    <glyph glyph-name="afii10058" unicode="&#x409;" horiz-adv-x="2056" vert-adv-y="2457" 
d="M983 151v1173h-520v-77q0 -313 -23.5 -598t-59.5 -402q-41 -134 -115 -190.5t-208 -56.5h-74l7 151h47q76 0 118 48.5t66 163.5q28 139 46.5 385.5t18.5 494.5v81h-144v151h1171v-151h-154v-441h297q240 0 365 -87q165 -115 165 -355q0 -239 -165 -354q-125 -87 -365 -87
h-617v151h144zM1159 151h257q188 0 277 60q109 74 109 233q0 172 -128 243q-86 49 -258 49h-257v-585z" />
    <glyph glyph-name="afii10059" unicode="&#x40a;" horiz-adv-x="2135" vert-adv-y="2457" 
d="M237 151v1173h-144v151h475v-151h-151v-473h631v473h-145v151h475v-151h-154v-471h310q240 0 365 -84q165 -111 165 -343q0 -231 -165 -342q-124 -84 -365 -84h-631v151h145v549h-631v-549h151v-151h-475v151h144zM1224 151h271q188 0 276 57q109 70 109 221
q0 164 -128 231q-86 46 -257 46h-271v-555z" />
    <glyph glyph-name="afii10060" unicode="&#x40b;" horiz-adv-x="1602" vert-adv-y="2457" 
d="M479 151v1173h-278v-239h-156v390h1101v-375h-156v224h-331v-578q90 70 141 98q123 66 257 66q199 0 279 -130q31 -50 43 -116t12 -190v-323h150v-151h-460v151h136v332q0 121 -23 177q-39 91 -182 91q-85 0 -161.5 -39t-191.5 -140v-421h159v-151h-534v151h195z" />
    <glyph glyph-name="afii10061" unicode="&#x40c;" horiz-adv-x="1366" vert-adv-y="2457" 
d="M237 151v1173h-144v151h475v-151h-151v-476h257l326 476h-143v151h460v-151h-119l-371 -534q69 -43 116 -113q36 -53 93 -170l178 -356h144v-151h-289l-200 435q-75 163 -134.5 215t-172.5 52h-145v-551h151v-151h-475v151h144zM602 1596l182 324h223l-273 -324h-132z
" />
    <glyph glyph-name="uni040D" unicode="&#x40d;" horiz-adv-x="1494" vert-adv-y="2457" 
d="M237 151v1173h-144v151h470v-151h-150v-1047l655 1198h333v-151h-144v-1173h144v-151h-471v151h151v1060l-664 -1211h-324v151h144zM715 1596l-254 324h196l182 -324h-124z" />
    <glyph glyph-name="afii10062" unicode="&#x40e;" horiz-adv-x="1250" vert-adv-y="2457" 
d="M565 436l-427 888h-127v151h459v-151h-140l321 -699l322 699h-139v151h440v-151h-117l-611 -1324h-283v151h171zM454 1911q7 -85 50 -121q47 -39 153 -39t153 36t56 124h132q-3 -87 -19 -131q-60 -161 -319 -161q-198 0 -276 86q-33 36 -46.5 80.5t-16.5 125.5h133z" />
    <glyph glyph-name="afii10145" unicode="&#x40f;" horiz-adv-x="1450" vert-adv-y="2457" 
d="M237 151v1173h-144v151h467v-151h-143v-1173h616v1173h-143v151h467v-151h-144v-1173h144v-151h-537l-23 -360h-144l-23 360h-537v151h144z" />
    <glyph glyph-name="afii10017" unicode="&#x410;" horiz-adv-x="1481" vert-adv-y="2457" 
d="M1054 434h-633l-104 -283h161v-151h-467v151h122l504 1324h198l510 -1324h126v-151h-473v151h162zM998 582l-264 714l-258 -714h522z" />
    <glyph glyph-name="afii10018" unicode="&#x411;" horiz-adv-x="1342" vert-adv-y="2457" 
d="M237 151v1173h-144v151h1049v-390h-156v239h-573v-441h297q240 0 365 -87q165 -115 165 -355t-165 -354q-125 -87 -365 -87h-617v151h144zM413 151h257q188 0 277 60q108 74 108 233q0 172 -127 243q-86 49 -258 49h-257v-585z" />
    <glyph glyph-name="afii10019" unicode="&#x412;" horiz-adv-x="1342" vert-adv-y="2457" 
d="M237 151v1173h-144v151h584q236 0 357 -91q125 -94 125 -275q0 -111 -49 -183.5t-156 -121.5q119 -27 190 -105q96 -106 96 -268q0 -229 -178 -344q-134 -87 -393 -87h-576v151h144zM413 867h260q143 0 220 54q86 59 86 172q0 112 -79.5 171.5t-228.5 59.5h-258v-457z
M413 151h217q207 0 305 60q121 73 121 223q0 136 -95 211.5t-266 75.5h-282v-570z" />
    <glyph glyph-name="afii10020" unicode="&#x413;" horiz-adv-x="1146" vert-adv-y="2457" 
d="M237 151v1173h-144v151h1013v-390h-156v239h-533v-1173h205v-151h-529v151h144z" />
    <glyph glyph-name="afii10021" unicode="&#x414;" horiz-adv-x="1395" vert-adv-y="2457" 
d="M1151 0h-985l-24 -360h-149v511h148q63 108 101 405t38 686v82h-144v151h1165v-151h-144v-1173h167v-511h-148zM977 151v1173h-524v-118q-7 -425 -36 -662q-27 -228 -87 -393h647z" />
    <glyph glyph-name="afii10022" unicode="&#x415;" horiz-adv-x="1259" vert-adv-y="2457" 
d="M237 151v1173h-144v151h1049v-359h-156v208h-569v-482h512v-151h-512v-540h579v249h156v-400h-1059v151h144z" />
    <glyph glyph-name="afii10024" unicode="&#x416;" horiz-adv-x="1949" vert-adv-y="2457" 
d="M887 151v551h-63q-67 0 -107.5 -13t-77.5 -48q-66 -62 -140 -214l-207 -427h-284v151h144l190 356q69 130 114 188t106 96l-394 533h-112v151h447v-143h-142l355 -484h171v484h-127v143h428v-143h-127v-484h171l354 484h-141v143h447v-151h-112l-394 -533
q61 -38 106 -95.5t114 -188.5l190 -356h144v-151h-284l-207 427q-79 163 -145.5 219t-179.5 56h-63v-551h150v-151h-474v151h150z" />
    <glyph glyph-name="afii10025" unicode="&#x417;" horiz-adv-x="1307" vert-adv-y="2457" 
d="M177 303q97 -97 203.5 -140t248.5 -43q168 0 272 60q129 75 129 246q0 123 -73 187q-87 77 -293 77h-250v146h206q142 0 233 51q121 69 121 220q0 138 -107 200q-79 45 -198 45q-98 0 -182 -32t-129 -86q-47 -58 -47 -157v-27h-155v425h148v-84q88 62 177 88.5t210 26.5
q260 0 379 -129q87 -95 87 -255q0 -118 -41 -194t-138 -140q106 -37 159 -101q77 -92 77 -253q0 -216 -134 -334q-149 -131 -450 -131q-350 0 -542 200z" />
    <glyph glyph-name="afii10026" unicode="&#x418;" horiz-adv-x="1494" vert-adv-y="2457" 
d="M237 151v1173h-144v151h470v-151h-150v-1047l655 1198h333v-151h-144v-1173h144v-151h-471v151h151v1060l-664 -1211h-324v151h144z" />
    <glyph glyph-name="afii10027" unicode="&#x419;" horiz-adv-x="1494" vert-adv-y="2457" 
d="M540 1911q8 -85 51 -121q46 -39 153 -39q105 0 152 36t56 124h133q-3 -87 -20 -131q-59 -161 -319 -161q-197 0 -275 86q-33 36 -46.5 80.5t-16.5 125.5h132zM237 151v1173h-144v151h470v-151h-150v-1047l655 1198h333v-151h-144v-1173h144v-151h-471v151h151v1060
l-664 -1211h-324v151h144z" />
    <glyph glyph-name="afii10028" unicode="&#x41a;" horiz-adv-x="1366" vert-adv-y="2457" 
d="M237 151v1173h-144v151h475v-151h-151v-476h257l326 476h-143v151h460v-151h-119l-371 -534q69 -43 116 -113q36 -53 93 -170l178 -356h144v-151h-289l-200 435q-75 163 -134.5 215t-172.5 52h-145v-551h151v-151h-475v151h144z" />
    <glyph glyph-name="afii10029" unicode="&#x41b;" horiz-adv-x="1400" vert-adv-y="2457" 
d="M141 1324v151h1166v-151h-144v-1173h144v-151h-476v151h152v1173h-521v-77q0 -315 -23.5 -598.5t-59.5 -401.5q-40 -134 -114 -190.5t-209 -56.5h-67v151h47q77 0 119 48.5t65 163.5q29 140 47 386t18 493v82h-144z" />
    <glyph glyph-name="afii10030" unicode="&#x41c;" horiz-adv-x="1831" vert-adv-y="2457" 
d="M202 151l82 1173h-145v151h379l346 -1007q25 -71 53 -199q24 117 50 193l349 1013h375v-151h-145l82 -1173h129v-151h-443v151h138l-53 872q-1 24 -7 223q-48 -178 -62 -218l-352 -1028h-125l-352 1026l-64 220q-5 -197 -6 -222l-54 -873h140v-151h-444v151h129z" />
    <glyph glyph-name="afii10031" unicode="&#x41d;" horiz-adv-x="1494" vert-adv-y="2457" 
d="M237 151v1173h-144v151h475v-151h-151v-473h660v473h-151v151h475v-151h-144v-1173h144v-151h-475v151h151v549h-660v-549h151v-151h-475v151h144z" />
    <glyph glyph-name="afii10032" unicode="&#x41e;" horiz-adv-x="1735" vert-adv-y="2457" 
d="M878 1506q224 0 413 -124q188 -123 277 -327q64 -148 64 -317q0 -299 -190 -515q-113 -128 -268 -193q-143 -61 -307 -61q-235 0 -423 124q-186 122 -276 328q-65 148 -65 315q0 306 191 516q231 254 584 254zM860 1348q-248 0 -417 -183q-156 -170 -156 -428
q0 -256 156 -427q169 -183 425 -183q255 0 424 183q156 171 156 426q0 263 -156 429q-173 183 -432 183z" />
    <glyph glyph-name="afii10033" unicode="&#x41f;" horiz-adv-x="1452" vert-adv-y="2457" 
d="M237 151v1173h-144v151h1266v-151h-144v-1173h144v-151h-469v151h145v1173h-618v-1173h144v-151h-468v151h144z" />
    <glyph glyph-name="afii10034" unicode="&#x420;" horiz-adv-x="1260" vert-adv-y="2457" 
d="M237 151v1173h-144v151h492q156 0 250 -17.5t165 -61.5q188 -113 188 -376q0 -230 -146.5 -339.5t-455.5 -109.5h-169v-420h183v-151h-507v151h144zM417 719h174q203 0 296 65q117 80 117 240q0 154 -109 233q-93 67 -299 67h-179v-605z" />
    <glyph glyph-name="afii10035" unicode="&#x421;" horiz-adv-x="1497" vert-adv-y="2457" 
d="M1274 348l114 -121q-96 -117 -204 -173q-160 -85 -374 -85q-360 0 -542 221q-165 200 -165 532q0 359 194 575q187 209 503 209q240 0 396 -115v84h148v-431h-155v27q0 100 -49 157q-49 56 -138.5 87.5t-197.5 31.5q-255 0 -392 -186q-125 -171 -125 -438
q0 -272 141 -437q132 -156 386 -156q180 0 316 86q53 34 144 132z" />
    <glyph glyph-name="afii10036" unicode="&#x422;" horiz-adv-x="1234" vert-adv-y="2457" 
d="M527 151v1173h-322v-239h-156v390h1136v-390h-156v239h-322v-1173h196v-151h-571v151h195z" />
    <glyph glyph-name="afii10037" unicode="&#x423;" horiz-adv-x="1260" vert-adv-y="2457" 
d="M565 436l-427 888h-127v151h459v-151h-140l321 -699l322 699h-139v151h440v-151h-117l-611 -1324h-283v151h171z" />
    <glyph glyph-name="afii10038" unicode="&#x424;" horiz-adv-x="1834" vert-adv-y="2457" 
d="M822 44v106q-255 15 -418 96q-308 153 -308 492q0 214 131 361q144 162 426 208q73 12 169 18v106h-145v136h458v-136h-144v-106q293 -21 440 -95q307 -156 307 -492q0 -214 -131 -361q-94 -105 -242 -159.5t-374 -67.5v-106h144v-136h-458v136h145zM822 298v879
q-195 -9 -320 -71q-222 -111 -222 -368q0 -405 542 -440zM991 298q563 27 563 440q0 279 -262 385q-107 44 -301 54v-879z" />
    <glyph glyph-name="afii10039" unicode="&#x425;" horiz-adv-x="1314" vert-adv-y="2457" 
d="M182 151l374 609l-345 564h-156v151h500v-151h-139l253 -431l246 431h-141v151h483v-151h-146l-349 -565l370 -608h166v-151h-515v151h145l-278 477l-272 -477h146v-151h-515v151h173z" />
    <glyph glyph-name="afii10040" unicode="&#x426;" horiz-adv-x="1450" vert-adv-y="2457" 
d="M237 151v1173h-144v151h467v-151h-143v-1173h616v1173h-144v151h468v-151h-144v-1173h167v-511h-147l-26 360h-1114v151h144z" />
    <glyph glyph-name="afii10041" unicode="&#x427;" horiz-adv-x="1394" vert-adv-y="2457" 
d="M977 151v524q-115 -78 -205 -108.5t-208 -30.5q-269 0 -347 181q-43 99 -43 307v300h-125v151h442v-151h-137v-305q0 -173 39 -236q58 -91 219 -91q102 0 182.5 34t182.5 119v479h-136v151h461v-151h-145v-1173h145v-151h-529v151h204z" />
    <glyph glyph-name="afii10042" unicode="&#x428;" horiz-adv-x="2062" vert-adv-y="2457" 
d="M237 151v1173h-144v151h458v-151h-134v-1173h524v1173h-134v151h448v-151h-134v-1173h524v1173h-134v151h458v-151h-144v-1173h144v-151h-1876v151h144z" />
    <glyph glyph-name="afii10043" unicode="&#x429;" horiz-adv-x="2062" vert-adv-y="2457" 
d="M237 151v1173h-144v151h458v-151h-134v-1173h524v1173h-134v151h448v-151h-134v-1173h524v1173h-134v151h458v-151h-144v-1173h167v-511h-148l-25 360h-1726v151h144z" />
    <glyph glyph-name="afii10044" unicode="&#x42a;" horiz-adv-x="1694" vert-adv-y="2457" 
d="M621 151v1173h-394v-239h-156v390h879v-151h-153v-441h297q240 0 364 -87q165 -115 165 -355t-165 -354q-124 -87 -364 -87h-617v151h144zM797 151h257q188 0 277 60q108 74 108 233q0 172 -127 243q-86 49 -258 49h-257v-585z" />
    <glyph glyph-name="afii10045" unicode="&#x42b;" horiz-adv-x="1850" vert-adv-y="2457" 
d="M237 151v1173h-144v151h474v-151h-154v-441h298q240 0 364 -87q165 -115 165 -355t-165 -354q-124 -87 -364 -87h-618v151h144zM413 151h258q188 0 277 60q108 74 108 233q0 172 -127 243q-86 49 -258 49h-258v-585zM1430 151v1173h-145v151h469v-151h-144v-1173h144
v-151h-469v151h145z" />
    <glyph glyph-name="afii10046" unicode="&#x42c;" horiz-adv-x="1311" vert-adv-y="2457" 
d="M237 151v1173h-144v151h474v-151h-154v-441h298q240 0 364 -87q165 -115 165 -355t-165 -354q-124 -87 -364 -87h-618v151h144zM413 151h258q188 0 277 60q108 74 108 233q0 172 -127 243q-86 49 -258 49h-258v-585z" />
    <glyph glyph-name="afii10047" unicode="&#x42d;" horiz-adv-x="1427" vert-adv-y="2457" 
d="M509 835h644q-22 159 -61 244q-123 268 -414 268q-103 0 -191.5 -32.5t-132.5 -86.5q-48 -59 -48 -157v-27h-155v431h148v-84q161 115 381 115q305 0 483 -202q180 -205 180 -559q0 -338 -156 -546q-174 -230 -521 -230q-184 0 -313 59.5t-246 199.5l114 120
q118 -125 213 -171.5t234 -46.5q160 0 264 68t168 215q42 97 56 276h-647v146z" />
    <glyph glyph-name="afii10048" unicode="&#x42e;" horiz-adv-x="2331" vert-adv-y="2457" 
d="M237 151v1173h-144v151h475v-151h-151v-473h350q27 182 110 313q102 164 265 254q159 88 354 88q341 0 556 -253q182 -216 182 -516q0 -299 -182 -514q-215 -254 -555 -254q-267 0 -463 162q-252 209 -273 569h-344v-549h151v-151h-475v151h144zM1489 1348
q-239 0 -398 -182q-148 -170 -148 -429q0 -258 148 -428q158 -182 405 -182q248 0 406 182q148 170 148 427q0 263 -148 430q-161 182 -413 182z" />
    <glyph glyph-name="afii10049" unicode="&#x42f;" horiz-adv-x="1326" vert-adv-y="2457" 
d="M909 637h-169q-97 0 -147 -13.5t-86 -50.5q-36 -36 -55.5 -74t-48.5 -127l-122 -372h-290v151h138l110 313q37 106 68.5 152.5t86.5 76.5q-120 53 -164 97q-104 104 -104 274q0 155 79 258q66 86 170.5 119.5t308.5 33.5h549v-151h-144v-1173h144v-151h-495v151h171v486z
M909 785v539h-220q-210 0 -290 -65q-89 -72 -89 -203q0 -165 135 -231q80 -40 257 -40h207z" />
    <glyph glyph-name="afii10065" unicode="&#x430;" horiz-adv-x="1149" vert-adv-y="2457" 
d="M792 582v48q0 119 -41 163q-56 60 -217 60q-122 0 -169 -44q-30 -29 -38 -107h-163q5 160 91 228t282 68q263 0 359 -110q40 -46 56.5 -112t16.5 -183v-442h138v-151h-300v111q-134 -140 -364 -140q-174 0 -270 74q-98 76 -98 232q0 192 146 268q91 47 300 47
q89 0 271 -10zM795 444q-113 12 -266 12q-155 0 -210 -33q-69 -42 -69 -140q0 -83 50 -122q54 -42 173 -42q192 0 280 101q25 28 33.5 57.5t8.5 86.5v80z" />
    <glyph glyph-name="afii10066" unicode="&#x431;" horiz-adv-x="1176" vert-adv-y="2457" 
d="M270 779q42 92 107 136q90 61 236 61q212 0 343 -130q135 -135 135 -362q0 -236 -141 -378q-134 -135 -349 -135q-285 0 -411 219q-90 157 -90 445q0 274 62 429t205 240q104 61 298 101q86 18 114.5 39.5t32.5 71.5h151q-2 -141 -72 -195q-33 -23 -66 -34.5t-136 -33.5
q-229 -49 -312 -143t-107 -331zM587 832q-142 0 -225.5 -94t-83.5 -254q0 -179 99 -277q84 -85 219 -85q134 0 218 84q100 100 100 279q0 177 -101 269q-85 78 -226 78z" />
    <glyph glyph-name="afii10067" unicode="&#x432;" horiz-adv-x="1187" vert-adv-y="2457" 
d="M226 151v667h-147v151h604q201 0 283 -46q103 -57 103 -198q0 -152 -143 -215q97 -27 140.5 -82.5t43.5 -149.5q0 -165 -129 -231q-91 -47 -292 -47h-610v151h147zM400 567h212q151 0 202 23q78 35 78 120q0 67 -51.5 92.5t-186.5 25.5h-254v-261zM400 142h242
q148 0 207 25q77 32 77 117q0 86 -67 118t-247 32h-212v-292z" />
    <glyph glyph-name="afii10068" unicode="&#x433;" horiz-adv-x="966" vert-adv-y="2457" 
d="M226 151v667h-147v151h857v-319h-151v168h-385v-667h201v-151h-522v151h147z" />
    <glyph glyph-name="afii10069" unicode="&#x434;" horiz-adv-x="1239" vert-adv-y="2457" 
d="M1012 0h-848l-27 -314h-137v465h123q91 82 134 229t43 376v62h-147v151h999v-151h-146v-667h170v-465h-137zM832 151v667h-363v-46q0 -235 -33.5 -375.5t-113.5 -245.5h510z" />
    <glyph glyph-name="afii10070" unicode="&#x435;" horiz-adv-x="1136" vert-adv-y="2457" 
d="M1060 435h-800q13 -107 51 -168q90 -145 282 -145q95 0 177.5 27.5t184.5 93.5l86 -130q-215 -143 -450 -143q-236 0 -376 147q-136 142 -136 368t134 368q135 145 361 145q184 0 309 -105q175 -147 177 -458zM875 574q-17 98 -59 157q-86 120 -246 120q-176 0 -259 -143
q-32 -56 -47 -134h611z" />
    <glyph glyph-name="afii10072" unicode="&#x436;" horiz-adv-x="1659" vert-adv-y="2457" 
d="M746 151v283h-25q-62 0 -98.5 -18.5t-83.5 -74.5l-292 -341h-232v151h127l271 299q32 36 59 56l-288 312h-121v151h419v-143h-102l226 -260h140v260h-103v143h373v-143h-103v-260h141l226 260h-102v143h419v-151h-121l-288 -312q27 -20 59 -56l272 -299h126v-151h-232
l-292 341q-47 56 -83.5 74.5t-99.5 18.5h-25v-283h137v-151h-440v151h136z" />
    <glyph glyph-name="afii10073" unicode="&#x437;" horiz-adv-x="1021" vert-adv-y="2457" 
d="M137 226q85 -60 163 -84.5t188 -24.5q293 0 293 167q0 75 -52.5 110t-165.5 35h-224v136h205q87 0 138.5 40t51.5 109q0 139 -221 139q-131 0 -210 -50q-44 -28 -44 -91v-30h-147v287h137v-42q122 71 292 71q370 0 370 -275q0 -140 -117 -203q91 -35 127.5 -85t36.5 -142
q0 -174 -141 -254q-121 -69 -326 -69q-265 0 -436 132z" />
    <glyph glyph-name="afii10074" unicode="&#x438;" horiz-adv-x="1309" vert-adv-y="2457" 
d="M226 151v667h-147v151h460v-151h-142v-560l516 711h318v-151h-147v-667h147v-151h-460v151h142v558l-516 -709h-318v151h147z" />
    <glyph glyph-name="afii10075" unicode="&#x439;" horiz-adv-x="1309" vert-adv-y="2457" 
d="M439 1434q8 -85 50 -120q48 -40 153 -40q106 0 153 36t56 124h132q-3 -87 -19 -131q-59 -161 -319 -161q-197 0 -276 86q-32 36 -46 80.5t-17 125.5h133zM226 151v667h-147v151h460v-151h-142v-560l516 711h318v-151h-147v-667h147v-151h-460v151h142v558l-516 -709h-318
v151h147z" />
    <glyph glyph-name="afii10076" unicode="&#x43a;" horiz-adv-x="1189" vert-adv-y="2457" 
d="M226 151v667h-147v151h453v-151h-132v-248h172l244 248h-94v151h423v-151h-121l-310 -308q28 -20 63 -58l272 -301h126v-151h-240l-289 338q-50 58 -86.5 76.5t-99.5 18.5h-60v-282h142v-151h-463v151h147z" />
    <glyph glyph-name="afii10077" unicode="&#x43b;" horiz-adv-x="1182" vert-adv-y="2457" 
d="M100 818v151h1004v-151h-147v-667h147v-151h-463v151h142v667h-368v-58q0 -434 -80.5 -597t-294.5 -163h-66l7 151h50q73 0 112.5 32t62.5 111q40 135 40 468v56h-146z" />
    <glyph glyph-name="afii10078" unicode="&#x43c;" horiz-adv-x="1504" vert-adv-y="2457" 
d="M182 151l71 667h-137v151h374l263 -711l262 711h375v-151h-138l72 -667h151v-151h-445v151h126l-60 607l-282 -758h-123l-281 758l-60 -607h125v-151h-445v151h152z" />
    <glyph glyph-name="afii10079" unicode="&#x43d;" horiz-adv-x="1304" vert-adv-y="2457" 
d="M226 151v667h-147v151h463v-151h-142v-246h506v246h-143v151h463v-151h-146v-667h146v-151h-463v151h143v280h-506v-280h142v-151h-463v151h147z" />
    <glyph glyph-name="afii10080" unicode="&#x43e;" horiz-adv-x="1201" vert-adv-y="2457" 
d="M607 998q226 0 372 -146q141 -142 141 -368q0 -225 -141 -367q-145 -146 -379 -146t-378 146q-142 142 -142 366q0 231 142 369q148 146 385 146zM595 847q-160 0 -257 -114q-81 -95 -81 -248t81 -249q96 -114 262 -114t262 114q81 96 81 247q0 156 -81 250
q-99 114 -267 114z" />
    <glyph glyph-name="afii10081" unicode="&#x43f;" horiz-adv-x="1274" vert-adv-y="2457" 
d="M226 151v667h-147v151h1117v-151h-146v-667h146v-151h-457v151h136v667h-475v-667h136v-151h-457v151h147z" />
    <glyph glyph-name="afii10082" unicode="&#x440;" horiz-adv-x="1275" vert-adv-y="2457" 
d="M214 -271v1089h-149v151h310v-152q48 60 87 91q111 90 272 90q209 0 338 -146q124 -141 124 -368q0 -226 -124 -367q-129 -146 -336 -146q-109 0 -191 40t-157 130v-412h176v-151h-499v151h149zM703 847q-145 0 -235 -114q-80 -101 -80 -249q0 -146 80 -248
q89 -114 240 -114q150 0 237 113q74 97 74 248q0 166 -84 263q-88 101 -232 101z" />
    <glyph glyph-name="afii10083" unicode="&#x441;" horiz-adv-x="1027" vert-adv-y="2457" 
d="M897 248l93 -121q-170 -156 -431 -156q-218 0 -344 124q-135 134 -135 379q0 235 123 380q123 144 333 144q149 0 259 -84v55h138v-332h-147v30q0 79 -40 117q-68 64 -187 64q-150 0 -229 -107q-73 -99 -73 -262q0 -176 94 -272q81 -84 221 -84q177 0 325 125z" />
    <glyph glyph-name="afii10084" unicode="&#x442;" horiz-adv-x="1041" vert-adv-y="2457" 
d="M433 151v670h-240v-171h-151v319h956v-319h-150v171h-241v-670h203v-151h-579v151h202z" />
    <glyph glyph-name="afii10085" unicode="&#x443;" horiz-adv-x="1076" vert-adv-y="2457" 
d="M111 818h-103v151h460v-151h-175l210 -461q3 -7 48 -119q25 69 54 137l185 443h-169v151h455v-151h-109l-421 -965q-72 -163 -142 -216q-44 -33 -97 -45.5t-152 -13.5v151q99 1 137 23q53 31 97 136l73 173z" />
    <glyph glyph-name="afii10086" unicode="&#x444;" horiz-adv-x="1598" vert-adv-y="2457" 
d="M718 91q-58 -67 -111.5 -93.5t-130.5 -26.5q-192 0 -283 157q-75 132 -75 355q0 224 76 356q90 159 278 159q144 0 246 -122v448h-119v151h281v-599q102 122 248 122q188 0 278 -159q76 -132 76 -356q0 -223 -75 -355q-91 -157 -287 -157q-74 0 -128.5 27.5t-111.5 92.5
v-387h208v-151h-577v151h207v387zM718 460v69q0 318 -204 318q-219 0 -219 -372q0 -353 203 -353q114 0 167 81.5t53 256.5zM880 528v-61q0 -144 32 -223q50 -122 189 -122q104 0 153 85q51 87 51 276q0 147 -38 235q-56 129 -182 129q-100 0 -152.5 -81.5t-52.5 -237.5z
" />
    <glyph glyph-name="afii10087" unicode="&#x445;" horiz-adv-x="1136" vert-adv-y="2457" 
d="M460 517l-254 301h-149v151h461v-136h-125l194 -238l193 238h-126v136h445v-151h-142l-280 -317l294 -350h146v-151h-483v143h146l-228 279l-226 -279h144v-143h-460v151h139z" />
    <glyph glyph-name="afii10088" unicode="&#x446;" horiz-adv-x="1286" vert-adv-y="2457" 
d="M226 151v667h-147v151h460v-151h-139v-667h479v667h-138v151h459v-151h-146v-667h170v-465h-137l-27 314h-981v151h147z" />
    <glyph glyph-name="afii10089" unicode="&#x447;" horiz-adv-x="1192" vert-adv-y="2457" 
d="M792 151v251q-138 -84 -321 -84q-244 0 -319 148q-37 72 -37 250v102h-128v151h448v-151h-145v-141q0 -114 50 -161t174 -47q162 0 278 95v254h-136v151h458v-151h-147v-667h147v-151h-473v151h151z" />
    <glyph glyph-name="afii10090" unicode="&#x448;" horiz-adv-x="1800" vert-adv-y="2457" 
d="M226 151v667h-147v151h457v-151h-136v-667h413v667h-135v151h445v-151h-135v-667h413v667h-136v151h457v-151h-147v-667h147v-151h-1643v151h147z" />
    <glyph glyph-name="afii10091" unicode="&#x449;" horiz-adv-x="1808" vert-adv-y="2457" 
d="M226 151v667h-147v151h457v-151h-136v-667h413v667h-135v151h445v-151h-135v-667h413v667h-136v151h457v-151h-147v-667h170v-465h-137l-27 314h-1502v151h147z" />
    <glyph glyph-name="afii10092" unicode="&#x44a;" horiz-adv-x="1365" vert-adv-y="2457" 
d="M447 151v667h-270v-158h-151v309h778v-151h-183v-196h264q231 0 320 -61q109 -76 109 -249q0 -189 -130 -262q-90 -50 -299 -50h-584v151h146zM621 143h239q143 0 203 28q74 35 74 142q0 99 -58.5 134.5t-218.5 35.5h-239v-340z" />
    <glyph glyph-name="afii10093" unicode="&#x44b;" horiz-adv-x="1699" vert-adv-y="2457" 
d="M226 151v667h-147v151h503v-151h-182v-196h263q231 0 320 -61q109 -76 109 -249q0 -189 -130 -262q-89 -50 -299 -50h-584v151h147zM400 143h238q144 0 203 28q74 35 74 142q0 99 -58 134.5t-219 35.5h-238v-340zM1290 151v667h-143v151h463v-151h-146v-667h146v-151
h-463v151h143z" />
    <glyph glyph-name="afii10094" unicode="&#x44c;" horiz-adv-x="1142" vert-adv-y="2457" 
d="M226 151v667h-147v151h503v-151h-182v-196h263q231 0 320 -61q109 -76 109 -249q0 -189 -130 -262q-89 -50 -299 -50h-584v151h147zM400 143h238q144 0 203 28q74 35 74 142q0 99 -58 134.5t-219 35.5h-238v-340z" />
    <glyph glyph-name="afii10095" unicode="&#x44d;" horiz-adv-x="1053" vert-adv-y="2457" 
d="M325 562h464q-18 90 -42 137q-76 148 -252 148q-121 0 -195 -59q-42 -35 -42 -106v-30h-147v317h137v-55q66 46 126 65t141 19q193 0 314 -120q144 -143 144 -403q0 -254 -148 -388q-128 -117 -344 -117q-235 0 -400 170l93 122q76 -77 145 -109t156 -32q182 0 265 134
q34 55 49 171h-464v136z" />
    <glyph glyph-name="afii10096" unicode="&#x44e;" horiz-adv-x="1684" vert-adv-y="2457" 
d="M226 151v667h-147v151h321v-397h204q19 129 84 224q139 202 412 202q227 0 366 -145q137 -143 137 -369q0 -225 -137 -367q-139 -146 -366 -146q-178 0 -304 91q-173 126 -196 369h-200v-280h139v-151h-460v151h147zM1095 847q-152 0 -244 -113q-77 -96 -77 -250
q0 -153 77 -249q92 -113 249 -113q158 0 249 113q77 96 77 248q0 155 -77 251q-92 113 -254 113z" />
    <glyph glyph-name="afii10097" unicode="&#x44f;" horiz-adv-x="1225" vert-adv-y="2457" 
d="M826 390h-229q-66 0 -93.5 -25.5t-97.5 -149.5l-120 -215h-258v151h147l102 170q44 74 77 100q-217 59 -217 263q0 163 122 236q82 49 263 49h625v-151h-146v-667h146v-151h-456v151h135v239zM826 526v301h-273q-138 0 -188 -36q-51 -36 -51 -111q0 -154 224 -154h288z
" />
    <glyph glyph-name="uni0450" unicode="&#x450;" horiz-adv-x="1136" vert-adv-y="2457" 
d="M1060 435h-800q13 -107 51 -168q90 -145 282 -145q95 0 177.5 27.5t184.5 93.5l86 -130q-215 -143 -450 -143q-236 0 -376 147q-136 142 -136 368t134 368q135 145 361 145q184 0 309 -105q175 -147 177 -458zM875 574q-17 98 -59 157q-86 120 -246 120q-176 0 -259 -143
q-32 -56 -47 -134h611zM585 1118l-279 349h196l207 -349h-124z" />
    <glyph glyph-name="afii10071" unicode="&#x451;" horiz-adv-x="1137" vert-adv-y="2457" 
d="M1060 435h-800q13 -107 51 -168q90 -145 282 -145q95 0 177.5 27.5t184.5 93.5l86 -130q-215 -143 -450 -143q-236 0 -376 147q-136 142 -136 368t134 368q135 145 361 145q184 0 309 -105q175 -147 177 -458zM875 574q-17 98 -59 157q-86 120 -246 120q-176 0 -259 -143
q-32 -56 -47 -134h611zM312 1174v194h177v-194h-177zM660 1174v194h177v-194h-177z" />
    <glyph glyph-name="afii10099" unicode="&#x452;" horiz-adv-x="1242" vert-adv-y="2457" 
d="M218 151v964h-150v103h150v122h-150v135h324v-257h312v-103h-312v-299q112 103 191.5 142.5t178.5 39.5q180 0 249 -130q28 -52 38.5 -118t10.5 -189v-560q0 -132 -19 -205t-66 -123q-80 -85 -261 -95v151q100 9 135 61q22 33 29.5 74.5t7.5 131.5v574q0 121 -20 177
q-33 92 -148 92q-79 0 -147.5 -42t-178.5 -157v-489h140v-151h-464v151h150z" />
    <glyph glyph-name="afii10100" unicode="&#x453;" horiz-adv-x="966" vert-adv-y="2457" 
d="M226 151v667h-147v151h857v-319h-151v168h-385v-667h201v-151h-522v151h147zM414 1118l208 349h223l-298 -349h-133z" />
    <glyph glyph-name="afii10101" unicode="&#x454;" horiz-adv-x="1035" vert-adv-y="2457" 
d="M740 562v-136h-477q15 -126 64 -191q85 -112 251 -112q178 0 328 125l93 -121q-170 -156 -435 -156q-221 0 -348 124q-136 134 -136 379q0 234 121 379q120 145 332 145q156 0 271 -84v55h138v-317h-148v30q0 71 -42 105q-73 60 -195 60q-247 0 -293 -285h476z" />
    <glyph glyph-name="afii10102" unicode="&#x455;" horiz-adv-x="983" vert-adv-y="2457" 
d="M89 0v319h147v-34q0 -75 50 -112q81 -60 236 -60q104 0 161 37q61 39 61 118q0 65 -55 102q-24 17 -54.5 24.5t-172.5 31.5q-122 20 -186 42.5t-104 57.5q-77 68 -77 184q0 130 93 211q90 77 247 77q79 0 137 -18.5t123 -63.5v53h138v-297h-147v18q0 69 -45 105
q-73 60 -193 60q-94 0 -140 -40q-42 -37 -42 -95q0 -62 65 -97q37 -20 186 -46q136 -23 198.5 -42.5t102.5 -52.5q93 -73 93 -212q0 -143 -100 -221t-284 -78q-173 0 -301 82v-53h-137z" />
    <glyph glyph-name="afii10103" unicode="&#x456;" horiz-adv-x="606" vert-adv-y="2457" 
d="M231 151v667h-151v151h325v-818h147v-151h-478v151h157zM217 1164v204h199v-204h-199z" />
    <glyph glyph-name="afii10104" unicode="&#x457;" horiz-adv-x="606" vert-adv-y="2457" 
d="M231 151v667h-151v151h325v-818h146v-151h-478v151h158zM40 1174v194h177v-194h-177zM388 1174v194h177v-194h-177z" />
    <glyph glyph-name="afii10105" unicode="&#x458;" horiz-adv-x="581" vert-adv-y="2457" 
d="M69 818v151h327v-1002q0 -122 -19 -189t-66 -114q-79 -78 -260 -86v151q97 7 134 52q22 27 29.5 64.5t7.5 116.5v856h-153zM208 1164v204h199v-204h-199z" />
    <glyph glyph-name="afii10106" unicode="&#x459;" horiz-adv-x="1700" vert-adv-y="2457" 
d="M783 151v667h-368v-58q0 -434 -80.5 -597t-294.5 -163h-66l7 151h50q73 0 112.5 32t62.5 111q40 136 40 468v56h-146v151h1039v-151h-181v-196h262q231 0 320 -61q109 -76 109 -249q0 -189 -130 -262q-89 -50 -299 -50h-579v151h142zM958 143h237q144 0 203 28
q74 35 74 142q0 99 -58.5 134.5t-218.5 35.5h-237v-340z" />
    <glyph glyph-name="afii10107" unicode="&#x45a;" horiz-adv-x="1822" vert-adv-y="2457" 
d="M226 151v667h-147v151h463v-151h-142v-230h505v230h-142v151h499v-151h-183v-222h264q231 0 319 -57q110 -70 110 -232q0 -185 -130 -257q-89 -50 -299 -50h-580v151h142v296h-505v-296h142v-151h-463v151h147zM1079 143h239q143 0 203 28q74 34 74 137q0 88 -57.5 119
t-219.5 31h-239v-315z" />
    <glyph glyph-name="afii10108" unicode="&#x45b;" horiz-adv-x="1230" vert-adv-y="2457" 
d="M218 1115h-150v103h150v122h-150v135h324v-257h312v-103h-312v-299q110 102 191 142t180 40q179 0 248 -130q28 -52 38.5 -118t10.5 -189v-410h148v-151h-457v151h135v419q0 121 -20 177q-32 92 -148 92q-79 0 -148.5 -42.5t-177.5 -156.5v-489h140v-151h-464v151h150
v964z" />
    <glyph glyph-name="afii10109" unicode="&#x45c;" horiz-adv-x="1189" vert-adv-y="2457" 
d="M226 151v667h-147v151h453v-151h-132v-248h172l244 248h-94v151h423v-151h-121l-310 -308q28 -20 63 -58l272 -301h126v-151h-240l-289 338q-50 58 -86.5 76.5t-99.5 18.5h-60v-282h142v-151h-463v151h147zM514 1118l207 349h223l-298 -349h-132z" />
    <glyph glyph-name="uni045D" unicode="&#x45d;" horiz-adv-x="1309" vert-adv-y="2457" 
d="M226 151v667h-147v151h460v-151h-142v-560l516 711h318v-151h-147v-667h147v-151h-460v151h142v558l-516 -709h-318v151h147zM649 1118l-279 349h196l207 -349h-124z" />
    <glyph glyph-name="afii10110" unicode="&#x45e;" horiz-adv-x="1076" vert-adv-y="2457" 
d="M111 818h-103v151h460v-151h-175l210 -461q3 -7 48 -119q25 69 54 137l185 443h-169v151h455v-151h-109l-421 -965q-72 -163 -142 -216q-44 -33 -97 -45.5t-152 -13.5v151q99 1 137 23q53 31 97 136l73 173zM332 1434q8 -85 51 -120q47 -40 153 -40q105 0 152 36t56 124
h133q-3 -87 -20 -131q-59 -161 -319 -161q-197 0 -275 86q-33 36 -46.5 80.5t-16.5 125.5h132z" />
    <glyph glyph-name="afii10193" unicode="&#x45f;" horiz-adv-x="1278" vert-adv-y="2457" 
d="M226 151v667h-147v151h460v-151h-139v-667h480v667h-139v151h459v-151h-146v-667h146v-151h-468l-28 -314h-128l-28 314h-469v151h147z" />
    <glyph glyph-name="uni0462" unicode="&#x462;" horiz-adv-x="1559" vert-adv-y="2457" 
d="M482 1168h-243v-210h-156v346h399v139h-157v140h474v-140h-137v-139h484v-318h-156v182h-328v-332h297q530 0 530 -421q0 -415 -530 -415h-622v151h145v1017zM662 151h257q182 0 276 53q110 63 110 216q0 123 -75 189q-91 80 -311 80h-257v-538z" />
    <glyph glyph-name="uni0463" unicode="&#x463;" horiz-adv-x="1249" vert-adv-y="2457" 
d="M302 845h-165v-123h-151v247h316v261h-146v151l320 -1v-411h429v-247h-151v123h-278v-223h263q231 0 320 -61q109 -76 109 -250q0 -189 -130 -261q-90 -50 -299 -50h-583v151h146v694zM476 143h238q157 0 217 37t60 134q0 98 -58.5 133.5t-218.5 35.5h-238v-340z" />
    <glyph glyph-name="afii10050" unicode="&#x490;" horiz-adv-x="1146" vert-adv-y="2457" 
d="M237 151v1173h-144v151h826l38 360h149v-750h-156v239h-533v-1173h205v-151h-529v151h144z" />
    <glyph glyph-name="afii10098" unicode="&#x491;" horiz-adv-x="966" vert-adv-y="2457" 
d="M226 151v667h-147v151h685l33 309h139v-628h-151v168h-385v-667h201v-151h-522v151h147z" />
    <glyph glyph-name="uni0492" unicode="&#x492;" horiz-adv-x="1146" vert-adv-y="2457" 
d="M238 151v560h-218v137h218v476h-145v151h1014v-390h-156v239h-533v-476h383v-137h-383v-560h204v-151h-529v151h145z" />
    <glyph glyph-name="uni0493" unicode="&#x493;" horiz-adv-x="966" vert-adv-y="2457" 
d="M225 151v239h-174v123h174v305h-147v151h857v-309h-151v158h-384v-305h237v-123h-237v-239h200v-151h-522v151h147z" />
    <glyph glyph-name="uni0496" unicode="&#x496;" horiz-adv-x="1949" vert-adv-y="2457" 
d="M887 151v551h-63q-67 0 -107.5 -13t-77.5 -48q-66 -62 -140 -214l-207 -427h-284v151h144l190 356q69 130 114 188t106 96l-394 533h-112v151h447v-143h-142l355 -484h171v484h-127v143h428v-143h-127v-484h171l354 484h-141v143h447v-151h-112l-394 -533
q61 -38 106 -95.5t114 -188.5l190 -356h144v-511h-148l-25 360h-111l-207 427q-79 163 -145.5 219t-179.5 56h-63v-551h150v-151h-474v151h150z" />
    <glyph glyph-name="uni0497" unicode="&#x497;" horiz-adv-x="1659" vert-adv-y="2457" 
d="M746 151v283h-25q-62 0 -98.5 -18.5t-83.5 -74.5l-292 -341h-232v151h127l271 299q32 36 59 56l-288 312h-121v151h419v-143h-102l226 -260h140v260h-103v143h373v-143h-103v-260h141l226 260h-102v143h419v-151h-121l-288 -312q27 -20 59 -56l272 -299h136v-465h-137
l-27 314h-78l-292 341q-47 56 -83.5 74.5t-99.5 18.5h-25v-283h137v-151h-440v151h136z" />
    <glyph glyph-name="uni0498" unicode="&#x498;" horiz-adv-x="1307" vert-adv-y="2457" 
d="M614 -31q-341 7 -526 200l89 134q97 -97 203.5 -140t248.5 -43q168 0 272 60q129 75 129 246q0 123 -73 187q-87 77 -293 77h-250v146h206q142 0 233 51q121 69 121 220q0 138 -107 200q-79 45 -198 45q-99 0 -182.5 -32t-128.5 -86q-47 -58 -47 -157v-27h-155v425h148
v-84q88 62 177 88.5t210 26.5q260 0 379 -129q87 -95 87 -255q0 -118 -41 -194t-138 -140q106 -37 159 -101q77 -92 77 -253q0 -412 -479 -460l-38 -68q86 -7 121 -24q97 -44 97 -158q0 -98 -66.5 -150t-191.5 -52q-106 0 -247 39v138q158 -55 249 -55q111 0 111 79
q0 76 -128 76q-14 0 -63 -3l-21 64z" />
    <glyph glyph-name="uni0499" unicode="&#x499;" horiz-adv-x="1053" vert-adv-y="2457" 
d="M603 -24l-38 -70q86 -7 121 -24q97 -44 97 -158q0 -98 -66.5 -150t-191.5 -52q-107 0 -247 39v138q157 -55 249 -55q111 0 111 79q0 76 -128 76q-14 0 -63 -3l-21 64l56 110q-267 3 -427 132l82 124q85 -60 163 -84.5t188 -24.5q293 0 293 167q0 75 -52.5 110t-165.5 35
h-224v136h205q87 0 138.5 40t51.5 109q0 139 -221 139q-131 0 -210 -50q-44 -28 -44 -91v-30h-147v287h137v-42q121 71 292 71q370 0 370 -275q0 -140 -117 -203q92 -35 127 -84q37 -52 37 -143q0 -274 -355 -317z" />
    <glyph glyph-name="uni049A" unicode="&#x49a;" horiz-adv-x="1366" vert-adv-y="2457" 
d="M237 151v1173h-144v151h475v-151h-151v-476h257l326 476h-143v151h460v-151h-119l-371 -534q57 -35 100.5 -94.5t108.5 -188.5l178 -356h154v-511h-148l-25 360h-126l-200 435q-72 157 -135 212t-172 55h-145v-551h151v-151h-475v151h144z" />
    <glyph glyph-name="uni049B" unicode="&#x49b;" horiz-adv-x="1189" vert-adv-y="2457" 
d="M226 151v667h-147v151h453v-151h-132v-248h172l244 248h-94v151h423v-151h-121l-310 -308q28 -20 63 -58l272 -301h136v-465h-136l-28 314h-86l-289 338q-50 58 -86.5 76.5t-99.5 18.5h-60v-282h142v-151h-463v151h147z" />
    <glyph glyph-name="uni049C" unicode="&#x49c;" horiz-adv-x="1387" vert-adv-y="2457" 
d="M559 848v253h122v-251l19 1l323 473h-144v151h460v-151h-119l-371 -534q57 -35 100.5 -94.5t108.5 -188.5l178 -356h144v-151h-285l-199 434q-111 241 -215 264v-278h-122v282h-142v-551h151v-151h-475v151h144v1173h-144v151h475v-151h-151v-476h142z" />
    <glyph glyph-name="uni049D" unicode="&#x49d;" horiz-adv-x="1214" vert-adv-y="2457" 
d="M495 570v171h104v-174q19 14 30 25l212 226h-94v151h423v-151h-121l-309 -308q21 -15 88 -90l246 -269h126v-151h-240l-324 400q-23 29 -37 36v-205h-104v202h-95v-282h121v-151h-442v151h147v667h-147v151h442v-151h-121v-248h95z" />
    <glyph glyph-name="uni04A2" unicode="&#x4a2;" horiz-adv-x="1494" vert-adv-y="2457" 
d="M237 151v1173h-144v151h475v-151h-151v-473h660v473h-151v151h475v-151h-144v-1173h168v-511h-150l-25 360h-324v151h151v549h-660v-549h151v-151h-475v151h144z" />
    <glyph glyph-name="uni04A3" unicode="&#x4a3;" horiz-adv-x="1312" vert-adv-y="2457" 
d="M226 151v667h-147v151h463v-151h-142v-246h506v246h-143v151h463v-151h-146v-667h170v-465h-137l-27 314h-323v151h143v280h-506v-280h142v-151h-463v151h147z" />
    <glyph glyph-name="uni04AA" unicode="&#x4aa;" horiz-adv-x="1497" vert-adv-y="2457" 
d="M1274 347l114 -120q-196 -251 -560 -257l-35 -64q86 -7 122 -24q96 -44 96 -158q0 -98 -66.5 -150t-191.5 -52q-107 0 -247 39v138q154 -55 250 -55q110 0 110 78q0 76 -128 76q-14 0 -63 -2l-21 64l59 114q-220 21 -358 129q-252 200 -252 619q0 359 194 575
q187 209 503 209q240 0 396 -115v84h148v-431h-156v27q0 101 -49 157q-48 56 -137.5 87.5t-198.5 31.5q-254 0 -391 -186q-125 -171 -125 -438q0 -272 141 -437q132 -156 386 -156q179 0 316 86q51 33 144 131z" />
    <glyph glyph-name="uni04AB" unicode="&#x4ab;" horiz-adv-x="1027" vert-adv-y="2457" 
d="M896 248l94 -121q-157 -144 -397 -155l-36 -66q86 -7 121 -23q96 -45 96 -159q0 -98 -66.5 -150t-191.5 -52q-107 0 -247 39v139q154 -56 249 -56q111 0 111 79q0 76 -127 76q-17 0 -64 -3l-21 64l60 116q-128 18 -210 75q-187 131 -187 423q0 235 123 380
q123 144 333 144q150 0 260 -84v55h137v-332h-148v30q0 80 -40 117q-67 64 -186 64q-150 0 -229 -108q-73 -98 -73 -262q0 -176 94 -272q81 -84 221 -84q177 0 324 126z" />
    <glyph glyph-name="uni04AE" unicode="&#x4ae;" horiz-adv-x="1174" vert-adv-y="2457" 
d="M495 151v520l-372 653h-128v151h482v-151h-147l264 -489l263 489h-145v151h463v-151h-132l-368 -655v-518h181v-151h-542v151h181z" />
    <glyph glyph-name="uni04AF" unicode="&#x4af;" horiz-adv-x="1087" vert-adv-y="2457" 
d="M465 -271v283l-355 806h-116v151h467v-151h-170l259 -621l233 621h-161v151h459v-151h-118l-324 -806v-283h166v-151h-489v151h149z" />
    <glyph glyph-name="uni04B0" unicode="&#x4b0;" horiz-adv-x="1174" vert-adv-y="2457" 
d="M495 151v381h-239v139h239l-372 653h-128v151h482v-151h-147l264 -489l264 489h-146v151h464v-151h-132l-367 -653h237v-139h-239v-381h182v-151h-543v151h181z" />
    <glyph glyph-name="uni04B1" unicode="&#x4b1;" horiz-adv-x="1087" vert-adv-y="2457" 
d="M465 -271v271h-221v115h175l-309 703h-116v151h467v-151h-170l259 -621l233 621h-161v151h459v-151h-119l-280 -703h178v-115h-221v-271h166v-151h-489v151h149z" />
    <glyph glyph-name="uni04B2" unicode="&#x4b2;" horiz-adv-x="1314" vert-adv-y="2457" 
d="M556 760l-345 564h-156v151h500v-151h-139l253 -431l246 431h-141v151h483v-151h-146l-349 -565l370 -608h176v-511h-148l-25 360h-352v151h145l-278 477l-272 -477h146v-151h-515v151h173z" />
    <glyph glyph-name="uni04B3" unicode="&#x4b3;" horiz-adv-x="1136" vert-adv-y="2457" 
d="M460 517l-254 301h-149v151h461v-136h-125l194 -238l193 238h-126v136h445v-151h-142l-280 -317l294 -350h170v-465h-137l-27 314h-343v143h146l-228 279l-226 -279h144v-143h-460v151h139z" />
    <glyph glyph-name="uni04B6" unicode="&#x4b6;" horiz-adv-x="1394" vert-adv-y="2457" 
d="M1325 151v-511h-149l-25 360h-378v151h204v524q-115 -78 -205 -108.5t-208 -30.5q-269 0 -347 181q-43 99 -43 307v300h-125v151h442v-151h-137v-305q0 -173 39 -236q58 -91 219 -91q102 0 182.5 34t182.5 119v479h-136v151h461v-151h-145v-1173h168z" />
    <glyph glyph-name="uni04B7" unicode="&#x4b7;" horiz-adv-x="1192" vert-adv-y="2457" 
d="M792 151v251q-138 -84 -321 -84q-244 0 -319 148q-37 72 -37 250v102h-128v151h448v-151h-145v-141q0 -115 50.5 -161.5t173.5 -46.5q167 0 278 95v254h-136v151h458v-151h-147v-667h170v-465h-137l-27 314h-332v151h151z" />
    <glyph glyph-name="uni04B8" unicode="&#x4b8;" horiz-adv-x="1394" vert-adv-y="2457" 
d="M719 702q113 22 258 143v479h-136v151h461v-151h-145v-1173h145v-151h-529v151h204v524q-143 -98 -258 -123v-217h-122v201h-31q-271 0 -349 181q-43 98 -43 307v300h-125v151h442v-151h-137v-306q0 -116 14.5 -174.5t51.5 -93.5q61 -56 177 -58v314h122v-304z" />
    <glyph glyph-name="uni04B9" unicode="&#x4b9;" horiz-adv-x="1192" vert-adv-y="2457" 
d="M589 326v-166h-104v158h-4h-19q-235 0 -310 148q-37 72 -37 250v102h-128v151h448v-151h-145v-141q0 -108 42.5 -153.5t152.5 -52.5v189h104v-186q113 13 203 90v254h-136v151h458v-151h-147v-667h147v-151h-447v151h125v251q-93 -60 -203 -76z" />
    <glyph glyph-name="uni04BA" unicode="&#x4ba;" horiz-adv-x="1363" vert-adv-y="2457" 
d="M235 151v1173h-143v151h463v-151h-144v-493q122 93 215 130t205 37q214 0 301 -130q33 -49 46 -116t13 -191v-410h148v-151h-457v151h135v419q0 125 -27 178q-47 91 -202 91q-92 0 -177 -40.5t-200 -139.5v-508h161v-151h-503v151h166z" />
    <glyph glyph-name="uni04BB" unicode="&#x4bb;" horiz-adv-x="1267" vert-adv-y="2457" 
d="M218 151v1173h-150v151h324v-659q111 103 191.5 142.5t179.5 39.5q179 0 248 -130q28 -52 38.5 -118t10.5 -189v-410h148v-151h-457v151h135v419q0 121 -20 177q-32 92 -148 92q-79 0 -147.5 -42t-178.5 -157v-489h140v-151h-464v151h150z" />
    <glyph glyph-name="uni04C0" unicode="&#x4c0;" horiz-adv-x="660" vert-adv-y="2457" 
d="M240 151v1173h-144v151h469v-151h-145v-1173h145v-151h-469v151h144z" />
    <glyph glyph-name="uni04C1" unicode="&#x4c1;" horiz-adv-x="1949" vert-adv-y="2457" 
d="M887 151v551h-63q-67 0 -107.5 -13t-77.5 -48q-66 -62 -140 -214l-207 -427h-284v151h144l190 356q69 130 114 188t106 96l-394 533h-112v151h447v-143h-142l355 -484h171v484h-127v143h428v-143h-127v-484h171l354 484h-141v143h447v-151h-112l-394 -533
q61 -38 106 -95.5t114 -188.5l190 -356h144v-151h-284l-207 427q-79 163 -145.5 219t-179.5 56h-63v-551h150v-151h-474v151h150zM765 1911q8 -85 50 -121q47 -39 153 -39t153 36t56 124h132q-3 -87 -19 -131q-59 -161 -319 -161q-197 0 -276 86q-32 36 -46 80.5t-16 125.5
h132z" />
    <glyph glyph-name="uni04C2" unicode="&#x4c2;" horiz-adv-x="1659" vert-adv-y="2457" 
d="M746 151v283h-25q-62 0 -98.5 -18.5t-83.5 -74.5l-292 -341h-232v151h127l271 299q32 36 59 56l-288 312h-121v151h419v-143h-102l226 -260h140v260h-103v143h373v-143h-103v-260h141l226 260h-102v143h419v-151h-121l-288 -312q27 -20 59 -56l272 -299h126v-151h-232
l-292 341q-47 56 -83.5 74.5t-99.5 18.5h-25v-283h137v-151h-440v151h136zM618 1434q11 -88 52 -123q46 -37 151 -37q107 0 152 34.5t57 125.5h132q-5 -132 -50 -190q-80 -102 -288 -102q-204 0 -283 94q-49 58 -56 198h133z" />
    <glyph glyph-name="uni04CF" unicode="&#x4cf;" horiz-adv-x="660" vert-adv-y="2457" 
d="M240 151v1173h-144v151h469v-151h-145v-1173h145v-151h-469v151h144z" />
    <glyph glyph-name="uni04D4" unicode="&#x4d4;" horiz-adv-x="1958" vert-adv-y="2457" 
d="M973 479h-530l-196 -328h183v-151h-515v151h145l675 1173h-136v151h1252v-367h-156v216h-542v-482h486v-151h-486v-540h552v257h156v-408h-1069v151h181v328zM973 625v699h-60l-395 -699h455z" />
    <glyph glyph-name="uni04D5" unicode="&#x4d5;" horiz-adv-x="1843" vert-adv-y="2457" 
d="M792 582v46q0 107 -45 156q-63 68 -214 68q-107 0 -151.5 -32.5t-54.5 -117.5h-160q7 158 91.5 227t271.5 69q308 0 375 -190q141 190 383 190q197 0 323 -120q154 -145 156 -443h-799q12 -107 50 -168q91 -145 282 -145q96 0 178.5 27.5t183.5 93.5l87 -130
q-211 -143 -442 -143q-278 0 -408 217q-128 -216 -452 -216q-372 0 -372 306q0 192 145 268q90 48 298 48q75 0 274 -11zM795 444q-109 13 -268 13q-153 0 -208 -33q-69 -42 -69 -141q0 -83 50 -122q54 -42 173 -42q200 0 280 99q42 51 42 141v85zM1583 574q-16 94 -59 156
q-86 121 -246 121q-123 0 -202.5 -71.5t-103.5 -205.5h611z" />
    <glyph glyph-name="uni04D8" unicode="&#x4d8;" horiz-adv-x="1675" vert-adv-y="2457" 
d="M102 843h1277q-22 154 -96 264q-161 238 -458 238q-181 0 -329 -87q-58 -34 -155 -131l-115 120q102 117 217 175q169 84 380 84q357 0 569 -253q180 -214 180 -517q0 -299 -176 -514q-207 -253 -544 -253q-342 0 -562 253q-181 207 -187 515q-1 31 -1 106zM291 697
q14 -129 34 -195t64 -130q81 -118 200 -181q119 -64 262 -64q228 0 372.5 154.5t161.5 415.5h-1094z" />
    <glyph glyph-name="afii10846" unicode="&#x4d9;" horiz-adv-x="1161" vert-adv-y="2457" 
d="M80 566h817q-18 96 -62 157q-91 124 -261 124q-98 0 -183.5 -28t-188.5 -93l-87 130q215 142 456 142q234 0 373 -146q137 -142 137 -367t-137 -368q-139 -146 -365 -146q-224 0 -364 146q-137 142 -137 375q0 28 2 74zM261 435q11 -77 20 -106.5t31 -62.5
q95 -144 267 -144q116 0 197 64q57 45 83.5 98.5t40.5 150.5h-639z" />
    <glyph glyph-name="uni04E2" unicode="&#x4e2;" horiz-adv-x="1494" vert-adv-y="2457" 
d="M441 1680v138h612v-138h-612zM237 151v1173h-144v151h470v-151h-150v-1047l655 1198h333v-151h-144v-1173h144v-151h-471v151h151v1060l-664 -1211h-324v151h144z" />
    <glyph glyph-name="uni04E3" unicode="&#x4e3;" horiz-adv-x="1309" vert-adv-y="2457" 
d="M226 151v667h-147v151h460v-151h-142v-560l516 711h318v-151h-147v-667h147v-151h-460v151h142v558l-516 -709h-318v151h147zM390 1203v138h530v-138h-530z" />
    <glyph glyph-name="uni04E8" unicode="&#x4e8;" horiz-adv-x="1715" vert-adv-y="2457" 
d="M868 1506q225 0 408 -122q185 -124 273 -329q63 -148 63 -318q0 -299 -187 -515q-220 -253 -567 -253q-348 0 -568 253q-187 216 -187 514q0 307 187 517q226 253 578 253zM290 697q14 -190 92 -312q80 -125 205 -193q121 -65 271 -65q201 0 349 117q202 161 218 453
h-1135zM295 843h1125q-22 149 -93 257q-78 117 -199 182q-121 66 -270 66q-222 0 -375.5 -138t-187.5 -367z" />
    <glyph glyph-name="uni04E9" unicode="&#x4e9;" horiz-adv-x="1201" vert-adv-y="2457" 
d="M607 998q226 0 372 -146q141 -142 141 -367t-141 -368q-145 -146 -379 -146t-378 146q-142 143 -142 366q0 231 142 369q149 146 385 146zM265 566h671q-17 85 -58 144q-97 137 -277 137q-135 0 -223 -74t-113 -207zM261 435q17 -111 51 -163q96 -150 289 -150
q120 0 206 63q111 83 132 250h-678z" />
    <glyph glyph-name="uni04EE" unicode="&#x4ee;" horiz-adv-x="1250" vert-adv-y="2457" 
d="M565 436l-427 888h-127v151h459v-151h-140l321 -699l322 699h-139v151h440v-151h-117l-611 -1324h-283v151h171zM358 1680v138h612v-138h-612z" />
    <glyph glyph-name="uni04EF" unicode="&#x4ef;" horiz-adv-x="1076" vert-adv-y="2457" 
d="M111 818h-103v151h460v-151h-175l210 -461q3 -7 48 -119q25 69 54 137l185 443h-169v151h455v-151h-109l-421 -965q-72 -163 -142 -216q-44 -33 -97 -45.5t-152 -13.5v151q99 1 137 23q53 31 97 136l73 173zM264 1203v138h530v-138h-530z" />
    <glyph glyph-name="uni1E1E" unicode="&#x1e1e;" horiz-adv-x="1141" vert-adv-y="2457" 
d="M226 151v1173h-144v151h1021v-359h-156v208h-541v-493h486v-151h-486v-529h183v-151h-507v151h144zM550 1646v204h199v-204h-199z" />
    <glyph glyph-name="Wdieresis" unicode="&#x1e84;" horiz-adv-x="1907" vert-adv-y="2457" 
d="M5 1324v151h490v-151h-173l218 -766q24 -86 57 -224q38 157 57 222l263 939h93l265 -941q26 -94 53 -220q30 130 60 238l212 752h-163v151h466v-151h-131l-392 -1356h-108l-264 942q-23 82 -46 202q-26 -119 -48 -197l-269 -947h-111l-396 1356h-133zM674 1651v194h177
v-194h-177zM1055 1651v194h177v-194h-177z" />
    <glyph glyph-name="wdieresis" unicode="&#x1e85;" horiz-adv-x="1610" vert-adv-y="2457" 
d="M131 818h-115v151h437v-151h-149l155 -433q24 -67 46 -150q26 90 51 157l215 577h71l212 -582q25 -69 48 -152q28 94 47 145l161 438h-154v151h435v-151h-112l-321 -842h-108l-208 580q-22 63 -39 131q-16 -67 -38 -128l-211 -583h-106zM542 1174v194h177v-194h-177z
M890 1174v194h177v-194h-177z" />
    <glyph glyph-name="uni2007" unicode="&#x2007;" vert-adv-y="2457" 
 />
    <glyph glyph-name="uni2011" unicode="&#x2011;" horiz-adv-x="716" vert-adv-y="2457" 
d="M88 478v151h540v-151h-540z" />
    <glyph glyph-name="figuredash" unicode="&#x2012;" horiz-adv-x="1024" vert-adv-y="2457" 
d="M82 478v151h860v-151h-860z" />
    <glyph glyph-name="endash" unicode="&#x2013;" horiz-adv-x="1024" vert-adv-y="2457" 
d="M82 478v151h860v-151h-860z" />
    <glyph glyph-name="emdash" unicode="&#x2014;" horiz-adv-x="1024" vert-adv-y="2457" 
d="M-123 478v151h1270v-151h-1270z" />
    <glyph glyph-name="afii00208" unicode="&#x2015;" horiz-adv-x="1024" vert-adv-y="2457" 
d="M-123 478v151h1270v-151h-1270z" />
    <glyph glyph-name="quoteleft" unicode="&#x2018;" horiz-adv-x="541" vert-adv-y="2457" 
d="M88 1030l173 445h173l-136 -445h-210z" />
    <glyph glyph-name="quoteright" unicode="&#x2019;" horiz-adv-x="541" vert-adv-y="2457" 
d="M75 1030l136 445h210l-173 -445h-173z" />
    <glyph glyph-name="quotesinglbase" unicode="&#x201a;" horiz-adv-x="541" vert-adv-y="2457" 
d="M75 -229l136 445h210l-173 -445h-173z" />
    <glyph glyph-name="quotedblleft" unicode="&#x201c;" horiz-adv-x="873" vert-adv-y="2457" 
d="M93 1030l173 445h172l-135 -445h-210zM416 1030l173 445h173l-137 -445h-209z" />
    <glyph glyph-name="quotedblright" unicode="&#x201d;" horiz-adv-x="873" vert-adv-y="2457" 
d="M80 1030l135 445h210l-172 -445h-173zM404 1030l135 445h210l-173 -445h-172z" />
    <glyph glyph-name="quotedblbase" unicode="&#x201e;" horiz-adv-x="873" vert-adv-y="2457" 
d="M80 -224l135 445h210l-172 -445h-173zM403 -224l136 445h210l-173 -445h-173z" />
    <glyph glyph-name="dagger" unicode="&#x2020;" vert-adv-y="2457" 
d="M496 906h-349v142h349v427h154v-427h351v-142h-351v-1105h-154v1105z" />
    <glyph glyph-name="daggerdbl" unicode="&#x2021;" vert-adv-y="2457" 
d="M496 924h-349v142h349v424h154v-425h351v-142h-351v-539h351v-146h-351v-421h-154v421h-349v146h349v540z" />
    <glyph glyph-name="bullet" unicode="&#x2022;" vert-adv-y="2457" 
d="M295 472v574h557v-574h-557z" />
    <glyph glyph-name="ellipsis" unicode="&#x2026;" horiz-adv-x="1618" vert-adv-y="2457" 
d="M193 0v221h204v-221h-204zM707 0v221h204v-221h-204zM1220 0v221h204v-221h-204z" />
    <glyph glyph-name="perthousand" unicode="&#x2030;" horiz-adv-x="2495" vert-adv-y="2457" 
d="M436 1506q155 0 259 -111q94 -99 94 -240q0 -140 -94 -239q-104 -111 -264 -111q-159 0 -263 111q-94 100 -94 239q0 143 94 240q107 111 268 111zM429 1370q-85 0 -142.5 -62t-57.5 -153t58 -152.5t144 -61.5q92 0 150 68q53 61 53 147q0 93 -58.5 153.5t-146.5 60.5z
M315 0l903 1475h152l-903 -1475h-152zM1258 670q155 0 259 -111q94 -99 94 -240q0 -139 -94 -239q-104 -111 -263 -111q-160 0 -264 111q-94 100 -94 239q0 143 94 240q107 111 268 111zM1251 534q-85 0 -142.5 -62t-57.5 -152q0 -92 58 -153.5t144 -61.5q92 0 150 68
q53 61 53 146q0 93 -58 154t-147 61zM2068 670q155 0 259 -111q94 -99 94 -240q0 -139 -94 -239q-104 -111 -264 -111q-159 0 -263 111q-94 100 -94 239q0 143 94 240q107 111 268 111zM2061 534q-85 0 -142.5 -62t-57.5 -152q0 -92 58 -153.5t144 -61.5q92 0 150 68
q53 61 53 146q0 93 -58.5 154t-146.5 61z" />
    <glyph glyph-name="guilsinglleft" unicode="&#x2039;" horiz-adv-x="495" vert-adv-y="2457" 
d="M235 463l212 -368h-172l-204 368l204 369h172z" />
    <glyph glyph-name="guilsinglright" unicode="&#x203a;" horiz-adv-x="495" vert-adv-y="2457" 
d="M256 463l-212 369h172l204 -369l-204 -368h-172z" />
    <glyph glyph-name="slash.aalt" unicode="&#x2044;" horiz-adv-x="287" vert-adv-y="2457" 
d="M-302 0l739 1475h152l-739 -1475h-152z" />
    <glyph glyph-name="zerosuperior" unicode="&#x2070;" horiz-adv-x="737" vert-adv-y="2457" 
d="M373 1696q186 0 268 -178q50 -108 50 -268q0 -179 -62 -293q-83 -154 -261 -154q-190 0 -272 178q-50 107 -50 269q0 179 61 292q84 154 266 154zM366 1570q-97 0 -140 -118q-29 -81 -29 -202q0 -155 44.5 -238t126.5 -83q83 0 127.5 83t44.5 238q0 320 -174 320z" />
    <glyph glyph-name="foursuperior" unicode="&#x2074;" horiz-adv-x="737" vert-adv-y="2457" 
d="M440 819v190h-393v117l261 553h156l-262 -550h238v287h139v-287h125v-120h-125v-190h-139z" />
    <glyph glyph-name="fivesuperior" unicode="&#x2075;" horiz-adv-x="737" vert-adv-y="2457" 
d="M92 1224l31 455h495v-245h-127v120h-230l-16 -208q64 26 126 26q119 0 195 -58q101 -76 101 -226q0 -131 -81 -206q-86 -79 -239 -79q-155 0 -232 84q-23 25 -34.5 52t-28.5 95l138 34q34 -140 163 -140q71 0 118 47t47 119q0 69 -43.5 111t-115.5 42q-45 0 -75 -13.5
t-94 -62.5z" />
    <glyph glyph-name="sixsuperior" unicode="&#x2076;" horiz-adv-x="737" vert-adv-y="2457" 
d="M231 1330q48 32 78.5 42t80.5 10q117 0 192 -66q88 -77 88 -220q0 -140 -82 -218q-79 -75 -217 -75q-153 0 -227.5 92t-74.5 283q0 228 75 373t247 145q167 0 256 -141l-107 -79q-39 54 -70.5 74.5t-74.5 20.5q-133 0 -164 -241zM368 1257q-63 0 -105 -46.5t-42 -116.5
q0 -72 42.5 -119t107.5 -47t104 45q44 50 44 120q0 72 -42 118t-109 46z" />
    <glyph glyph-name="sevensuperior" unicode="&#x2077;" horiz-adv-x="737" vert-adv-y="2457" 
d="M496 1554h-278v-146h-132v271h573v-107l-307 -753h-171z" />
    <glyph glyph-name="eightsuperior" unicode="&#x2078;" horiz-adv-x="737" vert-adv-y="2457" 
d="M181 1276q-94 59 -94 178q0 115 74 178.5t208 63.5q133 0 207 -63.5t74 -178.5q0 -119 -94 -178q67 -38 96 -87t29 -126q0 -122 -83 -191t-230 -69q-148 0 -230.5 69t-82.5 192q0 76 29 124.5t97 87.5zM366 1572q-59 0 -96 -33.5t-37 -86.5q0 -54 37.5 -87t98.5 -33
q60 0 97.5 33.5t37.5 86.5q0 54 -37.5 87t-100.5 33zM366 1209q-71 0 -115 -39t-44 -101q0 -63 44.5 -101.5t116.5 -38.5t116.5 38.5t44.5 101.5q0 64 -44.5 102t-118.5 38z" />
    <glyph glyph-name="ninesuperior" unicode="&#x2079;" horiz-adv-x="737" vert-adv-y="2457" 
d="M497 1187q-37 -28 -70.5 -38.5t-86.5 -10.5q-120 0 -192 54q-97 73 -97 219q0 136 84 213q79 72 213 72q174 0 251 -114q55 -83 55 -282q0 -213 -46 -333q-64 -164 -275 -164q-104 0 -167 33t-113 112l126 72q36 -47 58 -62q44 -30 99 -30q79 0 114.5 56.5t46.5 202.5z
M349 1571q-65 0 -106 -42.5t-41 -109.5q0 -72 40.5 -114t109.5 -42q67 0 108 41.5t41 110.5q0 72 -41 114t-111 42z" />
    <glyph glyph-name="zeroinferior" unicode="&#x2080;" horiz-adv-x="737" vert-adv-y="2457" 
d="M373 672q186 0 268 -178q50 -108 50 -268q0 -179 -62 -293q-83 -154 -261 -154q-190 0 -272 178q-50 107 -50 269q0 179 61 292q84 154 266 154zM366 546q-97 0 -140 -118q-29 -81 -29 -202q0 -155 44.5 -238t126.5 -83q83 0 127.5 83t44.5 238q0 320 -174 320z" />
    <glyph glyph-name="oneinferior" unicode="&#x2081;" horiz-adv-x="737" vert-adv-y="2457" 
d="M306 -82v590l-149 -62l-46 115l222 94h122v-737h148v-123h-451v123h154z" />
    <glyph glyph-name="twoinferior" unicode="&#x2082;" horiz-adv-x="737" vert-adv-y="2457" 
d="M45 -205q7 73 18.5 107.5t43.5 79.5q34 49 82 96t185 166q110 96 110 182q0 55 -37.5 89t-97.5 34q-68 0 -102.5 -42.5t-54.5 -149.5l-143 18q24 129 62 185q78 112 241 112q134 0 210 -64.5t76 -177.5q0 -93 -43.5 -159t-185.5 -188q-124 -107 -164 -165h295v152h132
v-275h-627z" />
    <glyph glyph-name="threeinferior" unicode="&#x2083;" horiz-adv-x="737" vert-adv-y="2457" 
d="M252 187v116h27q217 0 217 131q0 51 -38 82.5t-99 31.5q-63 0 -98.5 -31t-53.5 -101l-143 16q32 126 102.5 183t197.5 57q132 0 206.5 -62.5t74.5 -173.5q0 -128 -121 -186q150 -63 150 -212q0 -123 -81.5 -191t-229.5 -68q-298 0 -314 265l140 10q8 -72 53 -111t120 -39
q73 0 116 36t43 97q0 107 -128 138q-46 11 -141 12z" />
    <glyph glyph-name="fourinferior" unicode="&#x2084;" horiz-adv-x="737" vert-adv-y="2457" 
d="M440 -205v189h-393v117l261 554h156l-262 -551h238v288h139v-288h125v-120h-125v-189h-139z" />
    <glyph glyph-name="fiveinferior" unicode="&#x2085;" horiz-adv-x="737" vert-adv-y="2457" 
d="M92 200l31 455h495v-245h-127v120h-230l-16 -208q64 26 126 26q119 0 195 -58q101 -76 101 -226q0 -131 -81 -206q-86 -79 -239 -79q-155 0 -232 84q-23 25 -34.5 52t-28.5 95l138 34q34 -140 163 -140q71 0 118 47t47 119q0 69 -43.5 111t-115.5 42q-45 0 -75 -13.5
t-94 -62.5z" />
    <glyph glyph-name="sixinferior" unicode="&#x2086;" horiz-adv-x="737" vert-adv-y="2457" 
d="M231 306q48 32 78.5 42t80.5 10q117 0 192 -66q88 -77 88 -220q0 -140 -82 -218q-79 -75 -217 -75q-153 0 -227.5 92t-74.5 283q0 228 75 373t247 145q167 0 256 -141l-107 -79q-39 54 -70.5 74.5t-74.5 20.5q-133 0 -164 -241zM368 233q-63 0 -105 -46.5t-42 -116.5
q0 -72 42.5 -119t107.5 -47t104 45q44 50 44 120q0 72 -42 118t-109 46z" />
    <glyph glyph-name="seveninferior" unicode="&#x2087;" horiz-adv-x="737" vert-adv-y="2457" 
d="M496 530h-278v-146h-132v271h573v-107l-307 -753h-171z" />
    <glyph glyph-name="eightinferior" unicode="&#x2088;" horiz-adv-x="737" vert-adv-y="2457" 
d="M181 252q-94 59 -94 178q0 115 74 178.5t208 63.5q133 0 207 -63.5t74 -178.5q0 -119 -94 -178q67 -38 96 -87t29 -126q0 -122 -83 -191t-230 -69q-148 0 -230.5 69t-82.5 192q0 76 29 124.5t97 87.5zM366 548q-59 0 -96 -33.5t-37 -86.5q0 -54 37.5 -87t98.5 -33
q60 0 97.5 33.5t37.5 86.5q0 54 -37.5 87t-100.5 33zM366 185q-71 0 -115 -39t-44 -101q0 -63 44.5 -101.5t116.5 -38.5t116.5 38.5t44.5 101.5q0 64 -44.5 102t-118.5 38z" />
    <glyph glyph-name="nineinferior" unicode="&#x2089;" horiz-adv-x="737" vert-adv-y="2457" 
d="M497 163q-37 -28 -70.5 -38.5t-86.5 -10.5q-120 0 -192 54q-97 73 -97 219q0 136 84 213q79 72 213 72q174 0 251 -114q55 -83 55 -282q0 -213 -46 -333q-64 -164 -275 -164q-104 0 -167 33t-113 112l126 72q36 -47 58 -62q44 -30 99 -30q79 0 114.5 56.5t46.5 202.5z
M349 547q-65 0 -106 -42.5t-41 -109.5q0 -72 40.5 -114t109.5 -42q67 0 108 41.5t41 110.5q0 72 -41 114t-111 42z" />
    <glyph glyph-name="Euro" unicode="&#x20ac;" horiz-adv-x="1470" vert-adv-y="2457" 
d="M36 514v119h173q-4 51 -4 91q0 29 2 62h-171v119h183q29 191 128 339q175 262 498 262q213 0 347 -115v84h148v-431h-156v27q0 100 -41 157q-40 55 -118.5 87t-173.5 32q-174 0 -290.5 -115.5t-155.5 -326.5h599v-119h-612q-3 -34 -3 -64q0 -38 4 -89h530v-119h-509
q32 -114 77 -188q122 -196 370 -196q161 0 281 87q47 33 128 131l114 -120q-100 -135 -226 -197t-301 -62q-355 0 -517 250q-87 133 -117 295h-187z" />
    <glyph glyph-name="afii61289" unicode="&#x2113;" horiz-adv-x="983" vert-adv-y="2457" 
d="M465 592q-25 -132 -45 -274t-20 -185q0 -54 38 -54q33 0 67 43.5t54 111.5l70 -31q-85 -243 -234 -243q-74 0 -116.5 53t-42.5 145q0 72 19 275l-122 -108l-37 61q9 6 52 51q75 77 124 133q79 422 178 670q109 270 265 270q66 0 107 -50t41 -132q0 -196 -143 -425
q-77 -125 -255 -311zM485 718q102 112 161 213q55 93 91 205.5t36 189.5q0 36 -15.5 59t-40.5 23q-60 0 -99 -102q-60 -159 -133 -588z" />
    <glyph glyph-name="afii61352" unicode="&#x2116;" horiz-adv-x="2460" vert-adv-y="2457" 
d="M237 151v1173h-144v151h345l558 -947q17 -29 87 -172q-5 131 -5 195v773h-153v151h465v-151h-144v-1348h-125l-647 1109q-8 15 -75 153q6 -125 6 -157v-930h150v-151h-462v151h144zM1880 1261q189 0 305 -137q107 -125 107 -351q0 -225 -107 -352q-116 -137 -311 -137
q-196 0 -312 138q-107 127 -107 350q0 229 107 353q117 136 318 136zM1869 1119q-125 0 -184 -112q-52 -98 -52 -232q0 -137 50 -236q58 -113 190 -113q134 0 191 113q50 100 50 233q0 138 -50 235q-59 112 -195 112zM1475 0v146h811v-146h-811z" />
    <glyph glyph-name="trademark" unicode="&#x2122;" horiz-adv-x="1538" vert-adv-y="2457" 
d="M266 870v504h-121v-115h-113v216h593v-216h-113v115h-121v-504h97v-101h-317v101h95zM693 870l38 504h-70v101h221l163 -448l16 -48l16 47l163 449h219v-101h-69l37 -504h64v-101h-254v101h66l-25 387l-177 -488h-81l-178 488l-25 -387h67v-101h-255v101h64z" />
    <glyph glyph-name="Omega" unicode="&#x2126;" horiz-adv-x="1736" vert-adv-y="2457" 
d="M39 0v318h140v-176h311q-380 206 -380 621q0 292 189 499q223 244 568 244q346 0 569 -244q189 -207 189 -499q0 -415 -380 -621h311v176h140v-318h-676v204q95 30 153 64t113 91q155 162 155 409q0 243 -154 406q-167 174 -419 174q-253 0 -420 -174
q-154 -163 -154 -406q0 -247 156 -409q54 -57 112 -91t153 -64v-204h-676z" />
    <glyph glyph-name="estimated" unicode="&#x212e;" horiz-adv-x="1501" vert-adv-y="2457" 
d="M1336 607h-943v-251q20 -69 40 -105.5t53 -66.5q94 -84 262 -84q152 0 249 62t154 195h136q-106 -381 -539 -381q-281 0 -434 178q-150 173 -150 471q0 317 165 495q160 172 426 172q220 0 372 -113q186 -139 205 -421q2 -30 4 -151zM1114 709v219q-20 57 -54 97
q-65 76 -139 109.5t-177 33.5q-164 0 -257 -99q-43 -46 -88 -141v-219h715z" />
    <glyph glyph-name="onethird" unicode="&#x2153;" horiz-adv-x="1761" vert-adv-y="2457" 
d="M294 738v590l-149 -62l-46 115l222 94h122v-737h148v-123h-451v123h154zM393 0l740 1475h152l-740 -1475h-152zM1235 392v116q25 -1 37 -1q81 0 131 23q76 35 76 109q0 51 -38 82.5t-100 31.5q-119 0 -152 -132l-142 16q31 126 102 183t198 57q132 0 206.5 -62.5
t74.5 -172.5q0 -129 -121 -187q150 -64 150 -212q0 -123 -81.5 -191t-229.5 -68q-299 0 -314 265l140 10q8 -72 52.5 -111t120.5 -39q73 0 116 36t43 97q0 108 -128 138q-47 11 -141 12z" />
    <glyph glyph-name="twothirds" unicode="&#x2154;" horiz-adv-x="1761" vert-adv-y="2457" 
d="M55 615q7 71 18.5 106t43.5 80q33 48 81 95t185 167q110 95 110 181q0 55 -37.5 89t-97.5 34q-67 0 -102.5 -43.5t-53.5 -147.5l-143 18q23 128 62 185q77 112 241 112q133 0 209.5 -64.5t76.5 -177.5q0 -93 -43.5 -159t-185.5 -188q-126 -109 -164 -164h295v151h125
v-274h-620zM434 0l740 1475h152l-739 -1475h-153zM1254 392v116q25 -1 37 -1q98 0 152.5 34.5t54.5 96.5q0 52 -38 83.5t-100 31.5t-98 -31t-54 -101l-142 16q31 126 102 183t198 57q132 0 206.5 -62.5t74.5 -173.5q0 -128 -122 -186q151 -64 151 -212q0 -123 -81.5 -191
t-229.5 -68q-299 0 -314 265l140 10q8 -72 52.5 -111t120.5 -39q73 0 116 36t43 97q0 108 -128 138q-47 11 -141 12z" />
    <glyph glyph-name="uni2155" unicode="&#x2155;" horiz-adv-x="1761" vert-adv-y="2457" 
d="M289 738v590l-149 -62l-46 115l222 94h122v-737h148v-123h-451v123h154zM375 0l739 1475h153l-740 -1475h-152zM1055 405l31 455h496v-246h-127v121h-231l-15 -209q64 26 125 26q120 0 196 -58q101 -76 101 -226q0 -130 -81 -205q-86 -79 -238 -79q-157 0 -233 83
q-23 26 -35 53.5t-28 93.5l137 35q36 -140 163 -140q72 0 119 47t47 119q0 68 -43.5 110t-115.5 42q-45 0 -77 -14.5t-92 -61.5z" />
    <glyph glyph-name="uni2156" unicode="&#x2156;" horiz-adv-x="1761" vert-adv-y="2457" 
d="M55 615q7 71 18.5 106t43.5 80q33 48 81 95t185 167q110 95 110 181q0 55 -37.5 89t-97.5 34q-67 0 -102.5 -43.5t-53.5 -147.5l-143 18q23 128 62 185q77 112 241 112q133 0 209.5 -64.5t76.5 -177.5q0 -93 -43.5 -159t-185.5 -188q-126 -109 -164 -164h295v151h125
v-274h-620zM434 0l740 1475h152l-739 -1475h-153zM1093 405l31 455h496v-246h-127v121h-231l-16 -209q65 26 126 26q119 0 196 -58q101 -76 101 -226q0 -130 -82 -205q-85 -79 -237 -79q-157 0 -233 83q-24 26 -35.5 53.5t-28.5 93.5l138 35q36 -140 163 -140q72 0 119 47
t47 119q0 68 -43.5 110t-115.5 42q-45 0 -77.5 -14.5t-91.5 -61.5z" />
    <glyph glyph-name="uni2157" unicode="&#x2157;" horiz-adv-x="1761" vert-adv-y="2457" 
d="M261 1007v116q24 -1 35 -1q83 0 133 23q76 34 76 108q0 51 -37.5 82.5t-99.5 31.5q-63 0 -99 -31t-53 -100l-143 15q32 127 102.5 183.5t197.5 56.5q133 0 207 -62t74 -174q0 -127 -121 -185q150 -64 150 -213q0 -123 -81.5 -191t-229.5 -68q-298 0 -314 266l140 10
q8 -73 53 -112t120 -39q73 0 116 36t43 98q0 107 -128 138q-46 10 -141 12zM406 0l739 1475h152l-739 -1475h-152zM1082 405l30 455h496v-246h-127v121h-231l-15 -209q64 26 126 26q119 0 195 -58q101 -76 101 -226q0 -130 -81 -205q-85 -79 -238 -79q-157 0 -233 83
q-38 42 -63 147l138 35q34 -140 163 -140q71 0 118 47t47 119q0 68 -43.5 110t-114.5 42q-45 0 -77 -14.5t-93 -61.5z" />
    <glyph glyph-name="uni2158" unicode="&#x2158;" horiz-adv-x="1761" vert-adv-y="2457" 
d="M462 614v190h-393v117l261 554h156l-262 -551h238v287h139v-287h125v-120h-125v-190h-139zM426 0l740 1475h152l-739 -1475h-153zM1094 405l31 455h495v-246h-127v121h-230l-16 -209q65 26 126 26q119 0 195 -58q101 -76 101 -226q0 -130 -81 -205q-86 -79 -239 -79
q-156 0 -232 83q-37 41 -63 147l138 35q36 -140 163 -140q71 0 118 47t47 119q0 68 -43.5 110t-114.5 42q-45 0 -77.5 -14.5t-91.5 -61.5z" />
    <glyph glyph-name="uni2159" unicode="&#x2159;" horiz-adv-x="1761" vert-adv-y="2457" 
d="M294 738v590l-149 -62l-46 115l222 94h122v-737h148v-123h-451v123h154zM380 0l739 1475h153l-740 -1475h-152zM1200 510q49 33 79 43t80 10q117 0 192 -66q89 -77 89 -220q0 -140 -83 -218q-78 -75 -216 -75q-155 0 -229 92t-74 284q0 227 74 372q76 145 248 145
q166 0 256 -141l-107 -79q-39 54 -71 74.5t-74 20.5q-132 0 -164 -242zM1338 438q-64 0 -106 -46.5t-42 -116.5q0 -72 42.5 -119t107.5 -47q66 0 105 45q44 50 44 120q0 72 -42.5 118t-108.5 46z" />
    <glyph glyph-name="uni215A" unicode="&#x215a;" horiz-adv-x="1761" vert-adv-y="2457" 
d="M132 1019l31 456h495v-246h-127v121h-230l-16 -209q64 26 125 26q120 0 196 -58q101 -76 101 -226q0 -131 -81 -206q-86 -79 -239 -79q-156 0 -232 84q-23 25 -34.5 52t-28.5 94l138 35q34 -140 163 -140q71 0 118 47t47 119q0 69 -43.5 111t-114.5 42q-45 0 -77 -14.5
t-93 -61.5zM437 0l740 1475h152l-740 -1475h-152zM1223 510q49 33 79 43t80 10q117 0 192 -66q88 -77 88 -220q0 -140 -82 -218q-79 -75 -216 -75q-154 0 -228.5 92t-74.5 283q0 228 75 373t247 145q167 0 256 -141l-107 -79q-40 54 -71 74.5t-74 20.5q-133 0 -164 -242z
M1360 438q-63 0 -105 -46.5t-42 -116.5q0 -72 42.5 -119t107.5 -47t104 45q44 50 44 120q0 72 -42 118t-109 46z" />
    <glyph glyph-name="oneeighth" unicode="&#x215b;" horiz-adv-x="1761" vert-adv-y="2457" 
d="M287 738v590l-149 -62l-46 115l222 94h122v-737h148v-123h-451v123h154zM373 0l739 1475h153l-740 -1475h-152zM1143 457q-93 58 -93 177q0 116 73.5 179.5t207.5 63.5q133 0 207 -63.5t74 -178.5q0 -119 -94 -178q67 -38 96.5 -87.5t29.5 -125.5q0 -122 -83 -191
t-230 -69q-148 0 -230.5 69t-82.5 192q0 76 29 125t96 87zM1329 753q-59 0 -96 -33t-37 -87q0 -53 37.5 -86.5t97.5 -33.5t97.5 33.5t37.5 86.5q0 55 -37.5 87.5t-99.5 32.5zM1328 390q-70 0 -114 -38.5t-44 -101.5t44 -101.5t117 -38.5q72 0 116.5 38.5t44.5 101.5
q0 64 -44.5 102t-119.5 38z" />
    <glyph glyph-name="threeeighths" unicode="&#x215c;" horiz-adv-x="1761" vert-adv-y="2457" 
d="M279 1007v116q24 -1 35 -1q83 0 133 23q76 34 76 108q0 51 -37.5 82.5t-99.5 31.5q-63 0 -99 -31t-53 -100l-143 15q32 127 102.5 183.5t197.5 56.5q133 0 207 -62t74 -174q0 -127 -121 -185q150 -64 150 -213q0 -123 -81.5 -191t-229.5 -68q-298 0 -314 266l140 10
q8 -73 53 -112t120 -39q73 0 116 36t43 98q0 107 -128 138q-46 10 -141 12zM435 0l740 1475h152l-739 -1475h-153zM1188 457q-95 58 -95 177q0 116 74 179.5t207 63.5q134 0 208 -63.5t74 -178.5q0 -120 -94 -178q68 -38 97 -87.5t29 -125.5q0 -122 -83 -191t-231 -69
q-147 0 -230 69t-83 192q0 76 29 125t98 87zM1372 753q-59 0 -96 -33t-37 -87q0 -53 37.5 -86.5t98.5 -33.5q60 0 97.5 33.5t37.5 86.5q0 55 -37.5 87.5t-100.5 32.5zM1372 390q-71 0 -115 -39t-44 -101q0 -63 44.5 -101.5t116.5 -38.5q73 0 117.5 38.5t44.5 101.5
q0 64 -44.5 102t-119.5 38z" />
    <glyph glyph-name="fiveeighths" unicode="&#x215d;" horiz-adv-x="1761" vert-adv-y="2457" 
d="M112 1019l31 456h495v-246h-127v121h-230l-16 -209q64 26 125 26q120 0 196 -58q101 -76 101 -226q0 -131 -81 -206q-86 -79 -239 -79q-156 0 -232 84q-23 25 -34.5 52t-28.5 94l138 35q34 -140 163 -140q71 0 118 47t47 119q0 69 -43.5 111t-114.5 42q-45 0 -77 -14.5
t-93 -61.5zM417 0l740 1475h152l-740 -1475h-152zM1187 457q-94 58 -94 178q0 115 74 178.5t208 63.5q133 0 207 -63.5t74 -178.5q0 -120 -94 -178q68 -39 97 -87.5t29 -124.5q0 -123 -83 -192t-230 -69q-148 0 -231 69t-83 192q0 76 29 124.5t97 87.5zM1372 753
q-59 0 -96 -33t-37 -87q0 -53 37.5 -86.5t98.5 -33.5q60 0 97.5 33.5t37.5 86.5q0 55 -37.5 87.5t-100.5 32.5zM1372 390q-71 0 -115 -39t-44 -101q0 -63 44.5 -101.5t116.5 -38.5q73 0 117.5 38.5t44.5 101.5q0 64 -44.5 102t-119.5 38z" />
    <glyph glyph-name="seveneighths" unicode="&#x215e;" horiz-adv-x="1761" vert-adv-y="2457" 
d="M537 1350h-278v-147h-132v272h573v-107l-307 -754h-171zM337 0l740 1475h152l-739 -1475h-153zM1129 457q-94 59 -94 178q0 115 74 178.5t207 63.5q134 0 208 -63.5t74 -178.5q0 -120 -94 -178q68 -38 97 -87t29 -126q0 -122 -83 -191t-230 -69q-148 0 -230.5 69
t-82.5 191q0 77 29 125.5t96 87.5zM1314 753q-59 0 -96 -33t-37 -87q0 -53 37.5 -86.5t98.5 -33.5q60 0 97.5 33.5t37.5 86.5q0 55 -37.5 87.5t-100.5 32.5zM1315 390q-71 0 -115 -39t-44 -101q0 -63 44.5 -101.5t116.5 -38.5t116.5 38.5t44.5 101.5q0 64 -44.5 102
t-118.5 38z" />
    <glyph glyph-name="partialdiff" unicode="&#x2202;" vert-adv-y="2457" 
d="M328 1448l97 94q234 -186 365 -339q293 -341 293 -711q0 -237 -139 -377q-142 -144 -371 -144t-371 144q-138 140 -138 361t138 364q139 142 348 142q97 0 159 -28t129 -103q-87 171 -190.5 292.5t-319.5 304.5zM568 835q-155 0 -249 -112q-78 -94 -78 -245
q0 -150 78 -244q94 -112 255 -112q160 0 253 112q79 94 79 247t-77 242q-98 112 -261 112z" />
    <glyph glyph-name="Delta" unicode="&#x2206;" horiz-adv-x="1460" vert-adv-y="2457" 
d="M1395 0h-1331l563 1475h197zM1149 151l-426 1145l-417 -1145h843z" />
    <glyph glyph-name="product" unicode="&#x220f;" horiz-adv-x="1476" vert-adv-y="2457" 
d="M248 -205v1626h-144v151h1266v-151h-144v-1626h144v-151h-469v151h145v1626h-618v-1626h144v-151h-468v151h144z" />
    <glyph glyph-name="summation" unicode="&#x2211;" horiz-adv-x="1306" vert-adv-y="2457" 
d="M638 643l-522 795v134h1098v-389h-156v244h-733l515 -784l-570 -854h809v261h156v-406h-1166v140z" />
    <glyph glyph-name="minus" unicode="&#x2212;" vert-adv-y="2457" 
d="M142 661v152h864v-152h-864z" />
    <glyph glyph-name="fraction" unicode="&#x2215;" horiz-adv-x="287" vert-adv-y="2457" 
d="M-302 0l739 1475h152l-739 -1475h-152z" />
    <glyph glyph-name="periodcentered" unicode="&#x2219;" horiz-adv-x="574" vert-adv-y="2457" 
d="M186 443v221h204v-221h-204z" />
    <glyph glyph-name="radical" unicode="&#x221a;" horiz-adv-x="1303" vert-adv-y="2457" 
d="M496 0l-229 609h-157v141h292l181 -515l444 1533h538v-143h-404l-485 -1625h-180z" />
    <glyph glyph-name="infinity" unicode="&#x221e;" horiz-adv-x="1605" vert-adv-y="2457" 
d="M803 625q-59 -84 -109 -125q-106 -88 -244 -88q-150 0 -240 92q-85 86 -85 224q0 139 85 225q91 91 243 91q107 0 189.5 -50t160.5 -162q57 83 110 126q105 86 240 86q152 0 243 -91q85 -86 85 -225q0 -138 -85 -224q-90 -92 -241 -92q-109 0 -191.5 49.5t-160.5 163.5z
M734 728l-13 19q-115 175 -255 175q-89 0 -145 -54.5t-56 -139.5q0 -88 56 -140q57 -54 145 -54q135 0 254 175zM872 728l13 -19q119 -175 255 -175q89 0 145 54.5t56 139.5q0 87 -56 140q-57 54 -145 54q-139 0 -255 -175z" />
    <glyph glyph-name="integral" unicode="&#x222b;" horiz-adv-x="778" vert-adv-y="2457" 
d="M50 -342l31 146q45 -18 84 -18q94 0 122 71q15 38 15 187v1097q0 125 6.5 183t24.5 105q28 71 94.5 110t159.5 39q59 0 137 -20l-31 -145q-46 19 -87 19q-91 0 -119 -73q-15 -37 -15 -158v-1123q0 -148 -9 -210t-37 -110q-69 -118 -257 -118q-62 0 -119 18z" />
    <glyph glyph-name="uni2243" unicode="&#x2243;" vert-adv-y="2457" 
d="M142 493v153h864v-153h-864zM223 777l-98 91q80 94 138.5 130.5t129.5 36.5q89 0 192 -58q84 -47 108 -56.5t59 -9.5q80 0 175 108l93 -89q-133 -169 -265 -169q-82 0 -197 61q-73 39 -103 50.5t-60 11.5q-77 0 -172 -107z" />
    <glyph glyph-name="approxequal" unicode="&#x2248;" vert-adv-y="2457" 
d="M197 433l-96 110q82 94 145.5 132t136.5 38q95 0 204 -61q88 -50 113 -59.5t63 -9.5q86 0 189 120l94 -107q-142 -173 -280 -173q-86 0 -207 64q-77 41 -109 53t-64 12q-46 0 -88 -26.5t-101 -92.5zM197 770l-96 110q83 95 145.5 132.5t136.5 37.5q95 0 204 -61
q89 -50 113.5 -59.5t62.5 -9.5q86 0 189 120l94 -107q-142 -173 -279 -173q-88 0 -208 64q-78 41 -109.5 53t-63.5 12q-84 0 -189 -119z" />
    <glyph glyph-name="notequal" unicode="&#x2260;" vert-adv-y="2457" 
d="M142 827v153h463l109 231l140 -66l-78 -165h230v-153h-304l-86 -181h390v-153h-463l-110 -230l-139 65l78 165h-230v153h303l87 181h-390z" />
    <glyph glyph-name="lessequal" unicode="&#x2264;" vert-adv-y="2457" 
d="M317 785l688 -358v-167l-867 470v110l867 470v-168zM141 0v152h864v-152h-864z" />
    <glyph glyph-name="greaterequal" unicode="&#x2265;" vert-adv-y="2457" 
d="M830 785l-688 357v168l867 -470v-110l-867 -470v167zM142 0v152h864v-152h-864z" />
    <glyph glyph-name="dotmath" unicode="&#x22c5;" horiz-adv-x="574" vert-adv-y="2457" 
d="M186 443v221h204v-221h-204z" />
    <glyph glyph-name="filledrect" unicode="&#x25ac;" horiz-adv-x="1174" vert-adv-y="2457" 
d="M943 985v-687h-711v687h711z" />
    <glyph glyph-name="uni25B4" unicode="&#x25b4;" horiz-adv-x="1173" vert-adv-y="2457" 
d="M926 395h-680l340 658z" />
    <glyph glyph-name="uni25B8" unicode="&#x25b8;" horiz-adv-x="1173" vert-adv-y="2457" 
d="M319 401v659l679 -330z" />
    <glyph glyph-name="uni25BE" unicode="&#x25be;" horiz-adv-x="1173" vert-adv-y="2457" 
d="M246 1016h680l-340 -658z" />
    <glyph glyph-name="uni25C2" unicode="&#x25c2;" horiz-adv-x="1173" vert-adv-y="2457" 
d="M854 1060v-659l-679 329z" />
    <glyph glyph-name="lozenge" unicode="&#x25ca;" vert-adv-y="2457" 
d="M9 704l565 761l565 -761l-565 -761zM204 704l370 -496l369 496l-369 497z" />
    <glyph glyph-name="uniE000" unicode="&#xe000;" horiz-adv-x="1962" vert-adv-y="2457" 
d="M988 150h162l-106 284h-633l-105 -284h162v-150h-468v150h122l506 1325h197l509 -1325h126v-150h-472v150zM724 1296l-258 -715h522zM1337 670v133h226v661l-240 -94l-46 118l310 132h132v-817h225v-133h-607z" />
    <glyph glyph-name="glyph155" horiz-adv-x="573" vert-adv-y="2457" 
 />
    <glyph glyph-name="glyph172" vert-adv-y="1147" 
 />
    <glyph glyph-name="glyph210" horiz-adv-x="573" vert-adv-y="2457" 
 />
    <glyph glyph-name="Hungarumlaut" horiz-adv-x="1024" vert-adv-y="2457" 
d="M306 1596l122 324h171l-192 -324h-101zM568 1596l147 324h176l-220 -324h-103z" />
    <glyph glyph-name="Cedilla" horiz-adv-x="1024" vert-adv-y="2457" 
d="M489 0h119l-52 -94q86 -7 121 -24q97 -44 97 -158q0 -98 -66.5 -150t-191.5 -52q-107 0 -247 39v139q154 -56 249 -56q111 0 111 79q0 40 -30 58t-100 18q-7 0 -68 -4v93z" />
    <glyph glyph-name="Ogonek" horiz-adv-x="1024" vert-adv-y="2457" 
d="M559 0h131q-101 -78 -138.5 -128.5t-37.5 -107.5q0 -81 92 -81h83v-122h-82q-238 0 -238 174q0 69 40.5 125t149.5 140z" />
    <glyph glyph-name="two.numerator" horiz-adv-x="737" vert-adv-y="2457" 
d="M45 615q7 73 18.5 107.5t43.5 78.5q33 48 81.5 95t185.5 167q110 95 110 181q0 55 -37.5 89t-97.5 34q-68 0 -102.5 -42.5t-54.5 -148.5l-143 18q24 129 62 185q77 112 241 112q134 0 210 -64.5t76 -177.5q0 -93 -43.5 -159t-185.5 -188q-124 -108 -164 -164h295v151h132
v-274h-627z" />
    <glyph glyph-name="Macron" horiz-adv-x="1024" vert-adv-y="2457" 
d="M247 1680v138h530v-138h-530z" />
    <glyph glyph-name="one.numerator" horiz-adv-x="737" vert-adv-y="2457" 
d="M306 738v590l-149 -62l-46 115l222 94h122v-737h148v-123h-451v123h154z" />
    <glyph glyph-name="yen.fitted" horiz-adv-x="1207" vert-adv-y="2457" 
d="M513 143v235h-348v119h348v116h-348v119h305l-329 592h-128v151h482v-151h-147l264 -489l263 489h-145v151h464v-151h-132l-325 -592h305v-119h-349v-116h349v-119h-349v-235h182v-143h-543v143h181z" />
    <glyph glyph-name="Euro.fitted" horiz-adv-x="1438" vert-adv-y="2457" 
d="M48 514v119h173q-4 51 -4 91q0 29 2 62h-171v119h183q29 191 128 339q175 262 498 262q213 0 347 -115v84h148v-431h-156v27q0 100 -41 157q-40 55 -118.5 87t-173.5 32q-174 0 -290.5 -115.5t-155.5 -326.5h599v-119h-612q-3 -34 -3 -64q0 -38 4 -89h530v-119h-509
q32 -114 77 -188q122 -196 370 -196q161 0 281 87q47 33 128 131l114 -120q-100 -135 -226 -197t-301 -62q-355 0 -517 250q-87 133 -117 295h-187z" />
    <glyph glyph-name="florin.fitted" horiz-adv-x="879" vert-adv-y="2457" 
d="M153 729v142h220l56 295q19 101 36.5 151t48.5 91q72 98 210 98q93 0 190 -47l-40 -136q-89 36 -132 36q-61 0 -91.5 -42t-52.5 -157l-56 -289h184v-142h-207l-111 -655q-29 -173 -75 -260q-78 -145 -237 -145q-77 0 -185 40l39 144q70 -31 118 -31q72 0 112.5 65
t66.5 220l103 622h-197z" />
    <glyph glyph-name="cent.fitted" horiz-adv-x="1097" vert-adv-y="2457" 
d="M531 284q-138 14 -230 73q-203 131 -203 428q0 184 80 314q59 95 143 144t210 62v303h118v-306q124 -20 204 -85v62h131v-332h-144v30q0 50 -13.5 79t-46.5 53q-47 33 -131 46v-721q166 15 289 124l94 -121q-149 -138 -383 -155v-308h-118v310zM531 443v707
q-100 -23 -151 -71q-105 -97 -105 -288q0 -211 138 -302q34 -23 118 -46z" />
    <glyph glyph-name="dollar.fitted" horiz-adv-x="1184" vert-adv-y="2457" 
d="M86 0v440h156v-34q0 -139 98 -201q74 -47 197 -64v558q-124 34 -174.5 53.5t-99.5 49.5q-145 91 -145 294q0 235 189 338q82 45 230 52v155h118v-160q11 -3 17 -4q76 -18 113 -35.5t84 -56.5v90h141v-431h-147v27q0 107 -47 164t-161 89v-478q120 -32 172 -52t101 -52
q167 -111 167 -330q0 -143 -72 -250q-104 -155 -368 -177v-155h-118v162q-117 12 -175 30.5t-128 65.5v-88h-148zM537 879v459q-105 -8 -158 -46q-90 -63 -90 -180q0 -92 52 -141t196 -92zM655 663v-528q116 20 163 54q104 76 104 210q0 126 -91 192q-41 29 -134 58
q-31 10 -42 14z" />
    <glyph glyph-name="sterling.fitted" horiz-adv-x="1169" vert-adv-y="2457" 
d="M61 -24v170q122 29 177.5 108t55.5 225q0 66 -23 188h-210v137h184q-44 177 -44 281q0 204 123 317q110 102 284 102q176 0 291 -119v90h141v-431h-152v27q0 101 -34 161q-30 53 -93.5 85t-139.5 32q-104 0 -170 -59q-79 -71 -79 -195q0 -96 49 -291h284v-137h-258
q24 -144 24 -212q0 -112 -51 -225q166 -94 301 -94q230 0 255 260h168q-45 -420 -419 -420q-191 0 -382 123q-117 -122 -282 -123z" />
    <glyph glyph-name="zero.fitted" horiz-adv-x="1156" vert-adv-y="2457" 
d="M585 1504q169 0 291 -126q193 -200 193 -640q0 -306 -95 -498q-133 -269 -396 -269q-285 0 -414 310q-77 184 -77 457q0 305 95 497q133 269 403 269zM574 1349q-146 0 -228 -162t-82 -450q0 -257 64 -410q84 -201 250 -201q149 0 231.5 161t82.5 452q0 256 -64 409
q-84 201 -254 201z" />
    <glyph glyph-name="nine.fitted" horiz-adv-x="1090" vert-adv-y="2457" 
d="M823 710q-74 -75 -140 -104t-163 -29q-178 0 -292 93q-154 126 -154 364q0 216 131 347q124 123 329 123q244 0 368 -172q55 -76 80 -184.5t25 -268.5q0 -400 -83 -624q-104 -284 -414 -284q-233 0 -341 147q-66 89 -81 231h169q21 -105 64 -153q65 -72 191 -72
q112 0 176 61t97 200q32 135 38 325zM535 1350q-131 0 -205 -83q-79 -87 -79 -230q0 -142 77 -224.5t211 -82.5q137 0 212 82q77 85 77 225q0 147 -78 230t-215 83z" />
    <glyph glyph-name="eight.fitted" horiz-adv-x="1124" vert-adv-y="2457" 
d="M342 783q-91 41 -139 98q-74 89 -74 225q0 184 123 293q117 105 311 105q210 0 329 -122q104 -108 104 -276q0 -117 -51.5 -195.5t-161.5 -127.5q105 -39 173 -114q93 -104 93 -265q0 -200 -138 -319q-132 -114 -348 -114q-234 0 -367 130q-120 118 -120 302
q0 138 68.5 235.5t197.5 144.5zM559 1352q-125 0 -193.5 -66t-68.5 -186q0 -118 69.5 -183.5t195.5 -65.5q127 0 196.5 65.5t69.5 184.5q0 121 -69.5 186t-199.5 65zM559 701q-140 0 -222.5 -76.5t-82.5 -207.5q0 -141 90 -219q81 -71 218 -71q150 0 233 83q76 77 76 208
q0 136 -90 213q-82 70 -222 70z" />
    <glyph glyph-name="Commaaccent" horiz-adv-x="1024" vert-adv-y="2457" 
d="M299 -476l165 349h195l-236 -349h-124z" />
    <glyph glyph-name="Comma.high" horiz-adv-x="286" vert-adv-y="2457" 
d="M-10 1030l110 445h195l-173 -445h-132z" />
    <glyph glyph-name="seven.fitted" horiz-adv-x="1017" vert-adv-y="2457" 
d="M777 1322h-552v-209h-156v362h884v-138l-508 -1337h-194z" />
    <glyph glyph-name="ahungarumlaut" horiz-adv-x="1175" vert-adv-y="2457" 
d="M792 582v48q0 119 -41 163q-56 60 -217 60q-122 0 -169 -44q-30 -29 -38 -107h-163q5 160 91 228t282 68q262 0 358 -110q41 -47 57.5 -112.5t16.5 -182.5v-442h148v-151h-311v111q-125 -140 -363 -140q-173 0 -270 74q-98 75 -98 232q0 192 146 268q90 47 300 47
q89 0 271 -10zM795 444q-113 12 -266 12q-155 0 -210 -33q-69 -42 -69 -140q0 -83 50 -122q54 -42 173 -42q192 0 280 101q25 28 33.5 57t8.5 86v81zM367 1118l147 349h171l-217 -349h-101zM629 1118l172 349h176l-245 -349h-103z" />
    <glyph glyph-name="six.fitted" horiz-adv-x="1088" vert-adv-y="2457" 
d="M266 799q73 78 139.5 109t162.5 31q185 0 304 -113q141 -134 141 -364q0 -226 -131 -363q-123 -128 -331 -128q-241 0 -367 181q-102 148 -102 453q0 410 115 648q121 251 388 251q177 0 279 -97t119 -281h-169q-17 93 -49 138q-62 87 -184 87q-98 0 -160 -57.5
t-102 -186.5q-31 -98 -53 -308zM545 786q-131 0 -207 -88q-77 -90 -77 -240q0 -154 77.5 -243.5t210.5 -89.5q137 0 209 88q78 96 78 242q0 152 -77 243q-75 88 -214 88z" />
    <glyph glyph-name="five.fitted" horiz-adv-x="1097" vert-adv-y="2457" 
d="M45 401h170q12 -100 61 -167q80 -110 240 -110q145 0 233 100q80 91 80 224q0 146 -88 235q-83 86 -219 86q-78 0 -138.5 -26.5t-140.5 -96.5l-120 72l48 757h756v-353h-156v200h-441l-34 -475q119 75 253 75q184 0 304 -101q156 -132 156 -368q0 -215 -130 -347
q-134 -135 -366 -135q-213 0 -330.5 108.5t-137.5 321.5z" />
    <glyph glyph-name="four.fitted" horiz-adv-x="1079" vert-adv-y="2457" 
d="M419 0v151h231v240h-601v157l396 927h187l-405 -932h423v496h167v-496h237v-152h-237v-240h214v-151h-612z" />
    <glyph glyph-name="three.fitted" horiz-adv-x="1089" vert-adv-y="2457" 
d="M371 703v138q176 -1 269 37q155 63 155 227q0 110 -74.5 178.5t-193.5 68.5q-229 0 -276 -234h-170q21 146 98 239q120 147 352 147q209 0 328 -117q110 -108 110 -276q0 -124 -58.5 -204t-184.5 -129q131 -40 201 -121q91 -103 91 -255q0 -207 -146 -327
q-125 -104 -341 -104q-443 0 -482 430h170q16 -136 95.5 -206.5t216.5 -70.5q126 0 204 62q103 81 103 220q0 193 -201 263q-92 33 -266 34z" />
    <glyph glyph-name="two.fitted" horiz-adv-x="1120" vert-adv-y="2457" 
d="M73 0q15 157 103.5 283t374.5 397q86 82 126 128t72 99q53 91 53 183q0 118 -71 189q-73 74 -191 74q-252 0 -294 -323h-166q23 185 87 283q123 191 375 191q189 0 310 -105q132 -114 132 -306q0 -171 -105 -309q-74 -98 -264 -274q-169 -156 -218.5 -213.5t-89.5 -145.5
h565v257h156v-408h-955z" />
    <glyph glyph-name="one.fitted" horiz-adv-x="756" vert-adv-y="2457" 
d="M311 151v1154l-201 -88l-48 132l277 126h146v-1324h223v-151h-629v151h232z" />
    <glyph glyph-name="afii10021.bgr" horiz-adv-x="1481" vert-adv-y="2457" 
d="M1298 0h-1114l-24 -360h-149v511h122l505 1324h198l509 -1324h126v-511h-148zM1161 151l-426 1145l-417 -1145h843z" />
    <glyph glyph-name="afii10026.bgr" horiz-adv-x="1494" vert-adv-y="2457" 
d="M237 151v1173h-144v151h470v-151h-150v-1047l655 1198h333v-151h-144v-1173h144v-151h-471v151h151v1060l-664 -1211h-324v151h144z" />
    <glyph glyph-name="afii10029.bgr" horiz-adv-x="1428" vert-adv-y="2457" 
d="M132 151l486 1324h184l491 -1324h125v-151h-472v151h162l-400 1134l-392 -1134h161v-151h-467v151h122z" />
    <glyph glyph-name="afii10038.bgr" horiz-adv-x="1834" vert-adv-y="2457" 
d="M822 44v106q-255 15 -418 96q-308 153 -308 492q0 214 131 361q144 162 426 208q73 12 169 18v106h-145v136h458v-136h-144v-106q293 -21 440 -95q307 -156 307 -492q0 -214 -131 -361q-94 -105 -242 -159.5t-374 -67.5v-106h144v-136h-458v136h145zM822 298v879
q-195 -9 -320 -71q-222 -111 -222 -368q0 -405 542 -440zM991 298q563 27 563 440q0 279 -262 385q-107 44 -301 54v-879z" />
    </font>
</defs>
</svg>
